<?xml version="1.0" encoding="utf-8"?>
<!-- Generator: Adobe Illustrator 19.0.0, SVG Export Plug-In . SVG Version: 6.00 Build 0)  -->
<svg version="1.1" id="Layer_1" xmlns="http://www.w3.org/2000/svg" xmlns:xlink="http://www.w3.org/1999/xlink" x="0px" y="0px"
	 viewBox="-516 247.3 245.6 227.7" style="enable-background:new -516 247.3 245.6 227.7;" xml:space="preserve">
<style type="text/css">
	.st0{fill:#006838;}
	.st1{opacity:0.4;enable-background:new    ;}
	.st2{fill:#FF6584;}
	.st3{opacity:0.1;enable-background:new    ;}
	.st4{fill:url(#SVGID_1_);}
	.st5{fill:url(#SVGID_2_);}
	.st6{fill:#FBBEBE;}
	.st7{fill:#3F3D56;}
	.st8{opacity:0.1;}
	.st9{fill:#FFFFFF;}
	.st10{fill:#FFD037;}
	.st11{fill:#A8A8A8;}
	.st12{opacity:0.2;enable-background:new    ;}
	.st13{fill:none;stroke:#535461;stroke-width:2;stroke-miterlimit:10;}
</style>
<ellipse class="st0" cx="-384" cy="470.4" rx="59.3" ry="4.5"/>
<ellipse class="st1" cx="-384" cy="470.4" rx="59.3" ry="4.5"/>
<path class="st0" d="M-440.2,269.3c8.3-7.4,21.4-8.9,33.3-8.3c37.4,1.9,71.2,19.9,100.4,40.3c10.6,7.4,21,15.4,27.8,25.5
	c14,20.7,9.8,49.4-9.6,66.5c-6.6,5.8-14.6,10.3-22.8,14.2c-14.6,7-30.4,12.7-47,14.3c-11.8,1.1-23.8,0.2-35.6-1.4
	c-32.9-4.5-65.1-14.3-92.2-31.2c-11.9-7.4-23-16.6-27.9-28.6c-4.9-12-1.8-27.1,10.4-34.2c5-2.9,11-4.3,16.9-5.5
	c8.6-1.8,17.4-3.6,25.2-7.3c8-3.8,17.6-11.3,16-19.8C-447.1,284.7-448.5,276.7-440.2,269.3z"/>
<path class="st1" d="M-440.2,269.3c8.3-7.4,21.4-8.9,33.3-8.3c37.4,1.9,71.2,19.9,100.4,40.3c10.6,7.4,21,15.4,27.8,25.5
	c14,20.7,9.8,49.4-9.6,66.5c-6.6,5.8-14.6,10.3-22.8,14.2c-14.6,7-30.4,12.7-47,14.3c-11.8,1.1-23.8,0.2-35.6-1.4
	c-32.9-4.5-65.1-14.3-92.2-31.2c-11.9-7.4-23-16.6-27.9-28.6c-4.9-12-1.8-27.1,10.4-34.2c5-2.9,11-4.3,16.9-5.5
	c8.6-1.8,17.4-3.6,25.2-7.3c8-3.8,17.6-11.3,16-19.8C-447.1,284.7-448.5,276.7-440.2,269.3z"/>
<path class="st2" d="M-357.7,266.7v0.2v0.1c0,0,0,0.1,0,0.2s0,0.3,0,0.4v0.1c0,0.1,0,0.2,0,0.3v0.1c0,0,0,0,0,0.1s0,0.2,0,0.3
	s0,0.2,0,0.3c0,0.2-0.1,0.4-0.1,0.6c0,0.1,0,0.3-0.1,0.4l0,0c0,0.1,0,0.1,0,0.2s0,0.1,0,0.1v0.1c0,0,0,0.1,0,0.2s0,0.1,0,0.2
	s0,0.1,0,0.2s0,0.2-0.1,0.3l0,0v0.2l-0.1,0.2c0,0.1-0.1,0.2-0.1,0.3c0,0,0,0,0,0.1l-0.1,0.3c-0.1,0.3-0.2,0.6-0.3,0.9l-0.1,0.3
	l-0.1,0.1c-0.6,1.7-1.5,3.3-2.6,4.7c-0.1,0.1-0.1,0.2-0.2,0.3c-0.5,0.7-1.1,1.3-1.7,1.9l-27.4,27.4l-27.4-27.4
	c-0.8-0.8-1.5-1.6-2.1-2.6c-0.4-0.6-0.8-1.2-1.1-1.8c-1.9-3.4-2.7-7.2-2.3-11c0-0.4,0.1-0.7,0.1-1.1c0.1-0.6,0.2-1.2,0.3-1.8
	c0-0.1,0.1-0.2,0.1-0.4c0-0.1,0-0.1,0-0.2s0-0.1,0-0.1l0.1-0.3l0,0l0,0c0.1-0.2,0.1-0.4,0.2-0.6l0.1-0.3c0.1-0.4,0.3-0.8,0.5-1.2
	l0.1-0.2c0.1-0.1,0.1-0.2,0.2-0.4c0.1-0.2,0.2-0.4,0.3-0.6l0,0l0,0l0,0c0-0.1,0.1-0.2,0.1-0.3l0.2-0.3c0.1-0.1,0.1-0.2,0.2-0.4
	c0-0.1,0.1-0.1,0.1-0.2s0-0.1,0.1-0.1l0,0l0,0c0-0.1,0.1-0.1,0.1-0.2s0.1-0.2,0.2-0.2c0.1-0.2,0.2-0.3,0.3-0.5l0.1-0.2l0.2-0.2
	c0.1-0.1,0.1-0.2,0.2-0.2l0.2-0.3c0.1-0.1,0.1-0.2,0.2-0.2l0.1-0.1l0.1-0.2c0.1-0.1,0.1-0.2,0.2-0.3l0.1-0.1l0,0l0.2-0.2l0.2-0.2
	c0.2-0.2,0.3-0.4,0.5-0.5l0.2-0.2l0.3-0.3c0.1-0.1,0.1-0.1,0.2-0.2c0.1-0.1,0.2-0.2,0.3-0.2l0.2-0.1c0.1-0.1,0.1-0.1,0.2-0.1
	c0.1-0.1,0.2-0.2,0.3-0.3l0.2-0.1c0.3-0.2,0.6-0.4,0.9-0.7l0.2-0.1l0.2-0.1l0.2-0.1l0.3-0.2l0.1-0.1l0.2-0.1
	c0.3-0.1,0.5-0.3,0.8-0.4l0.2-0.1l0.2-0.1l0.2-0.1l0.2-0.1l0.2-0.1l0.2-0.1l0.2-0.1c0.3-0.1,0.5-0.2,0.8-0.3l0.2-0.1l0.2-0.1
	l0.2-0.1l0.2-0.1l0.4-0.1l0.2-0.1h0.2h0.2c0.1,0,0.2-0.1,0.3-0.1l0.4-0.1c0.4-0.1,0.7-0.2,1.1-0.2h0.2h0.2h0.2h0.3h0.2
	c0.4,0,0.7-0.1,1.1-0.1h0.2h0.1h0.2l0,0h0.1h0.1h0.2h0.2h0.9h0.2h0.2h0.1h0.1l0,0c0.1,0,0.2,0,0.3,0l0,0h0.2c0.3,0,0.6,0.1,0.9,0.1
	l0.4,0.1h0.3h0.2h0.2h0.1c0.4,0.1,0.7,0.1,1.1,0.2l0.4,0.1h0.1l0.2,0.1c0.1,0,0.2,0.1,0.4,0.1l0.2,0.1c0.3,0.1,0.5,0.2,0.8,0.3
	l0.2,0.1l0.2,0.1l0.4,0.1c0.1,0.1,0.3,0.1,0.4,0.2l0.2,0.1l0.2,0.1l0.2,0.1l0.2,0.1l0.2,0.1l0.2,0.1c0.2,0.1,0.3,0.2,0.4,0.2
	l0.2,0.1c0.2,0.1,0.4,0.3,0.6,0.4l0.2,0.1l0.2,0.1l0.2,0.1l0,0l0.1,0.1c0.3,0.2,0.5,0.4,0.8,0.6l0.2,0.1c0.1,0.1,0.2,0.2,0.3,0.3
	c0.1,0,0.1,0.1,0.2,0.1l0.2,0.1l0.3,0.2c0.1,0.1,0.1,0.1,0.2,0.2l0.3,0.3l0.2,0.2l0.2-0.2l0.3-0.3c0.1-0.1,0.1-0.1,0.2-0.2
	c0.1-0.1,0.2-0.2,0.3-0.2l0.2-0.1c0.1-0.1,0.1-0.1,0.2-0.1c0.1-0.1,0.2-0.2,0.3-0.3l0.2-0.1c0.3-0.2,0.6-0.4,0.9-0.7l0.2-0.1
	l0.2-0.1l0.2-0.1l0.3-0.2l0.1-0.1l0.2-0.1c0.3-0.1,0.5-0.3,0.8-0.4l0.2-0.1l0.2-0.1l0.2-0.1l0.2-0.1l0.2-0.1l0.2-0.1l0.2-0.1
	c0.3-0.1,0.5-0.2,0.8-0.3c0.1,0,0.1-0.1,0.2-0.1l0.2-0.1l0.2-0.1l0.2-0.1l0.4-0.1l0.2-0.1h0.2h0.2c0.1,0,0.2-0.1,0.3-0.1l0.4-0.1
	c0.4-0.1,0.7-0.2,1.1-0.2h0.2h0.2h0.2h0.3h0.2c0.4,0,0.7-0.1,1.1-0.1h0.2h0.1h0.2l0,0h0.1h0.1h0.2h0.2h0.9h0.2h0.2h0.1h0.1l0,0
	c0.1,0,0.2,0,0.3,0l0,0h0.2c0.3,0,0.6,0.1,0.9,0.1l0.4,0.1h0.3h0.2h0.2h0.1c0.4,0.1,0.7,0.1,1.1,0.2l0.4,0.1h0.1l0.2,0.1
	c0.1,0,0.2,0.1,0.4,0.1l0.2,0.1c0.3,0.1,0.5,0.2,0.8,0.3l0.2,0.1l0.2,0.1l0.4,0.1c0.1,0.1,0.3,0.1,0.4,0.2l0.2,0.1l0.2,0.1l0.2,0.1
	l0.2,0.1l0.2,0.1l0.2,0.1c0.1,0.1,0.3,0.2,0.4,0.2l0.2,0.1c0.2,0.1,0.4,0.3,0.6,0.4l0.2,0.1l0.2,0.1l0.2,0.1l0,0l0.1,0.1
	c0.3,0.2,0.5,0.4,0.8,0.6l0.2,0.1c0.1,0.1,0.2,0.2,0.3,0.3c0.1,0,0.1,0.1,0.2,0.1l0.2,0.1l0.2,0.2c0.1,0.1,0.2,0.1,0.2,0.2l0.1,0.1
	l0,0l0,0c0.1,0.1,0.1,0.1,0.2,0.2l0.1,0.1l0.1,0.1l0.2,0.2c0.1,0.1,0.2,0.2,0.3,0.3c0.1,0.1,0.1,0.1,0.2,0.2
	c0.1,0.1,0.2,0.2,0.3,0.3l0.3,0.4c0.4,0.4,0.7,0.9,1,1.4l0.1,0.2c0,0.1,0.1,0.1,0.1,0.2l0.1,0.2c0.1,0.1,0.1,0.2,0.2,0.3l0.2,0.3
	c0,0.1,0.1,0.1,0.1,0.2l0.1,0.1l0.1,0.1l0.1,0.2l0.1,0.2c0.3,0.5,0.5,1,0.7,1.5l0.1,0.2c0.1,0.2,0.2,0.4,0.2,0.6l0.1,0.2
	c0,0.1,0.1,0.2,0.1,0.3c0,0.1,0.1,0.2,0.1,0.2v0.2c0,0.1,0,0.2,0.1,0.2c0,0.1,0.1,0.2,0.1,0.3c0,0.2,0.1,0.3,0.1,0.5l0.1,0.2
	c0,0.1,0.1,0.2,0.1,0.3v0.1c0,0,0,0.1,0,0.2s0,0.1,0,0.2v0.1v0.1v0.1v0.2c0,0.1,0,0.2,0,0.2s0,0.2,0,0.3c0,0.1,0,0.2,0,0.3v0.1
	c0,0.1,0,0.2,0,0.3v0.1c0,0.1,0,0.2,0,0.3l0,0c0,0.1,0,0.1,0,0.2v0.2c0,0.1,0,0.2,0,0.3l0,0c0,0.1,0,0.2,0,0.3
	C-357.6,266.3-357.6,266.5-357.7,266.7z"/>
<path class="st3" d="M-357.7,266.7v0.2v0.1c0,0,0,0.1,0,0.2s0,0.3,0,0.4v0.1c0,0.1,0,0.2,0,0.3v0.1c0,0,0,0,0,0.1s0,0.2,0,0.3
	s0,0.2,0,0.3c0,0.2-0.1,0.4-0.1,0.6c0,0.1,0,0.3-0.1,0.4l0,0c0,0.1,0,0.1,0,0.2s0,0.1,0,0.1v0.1c0,0,0,0.1,0,0.2s0,0.1,0,0.2
	s0,0.1,0,0.2s0,0.2-0.1,0.3l0,0v0.2l-0.1,0.2c0,0.1-0.1,0.2-0.1,0.3c0,0,0,0,0,0.1l-0.1,0.3c-0.1,0.3-0.2,0.6-0.3,0.9l-0.1,0.3
	l-0.1,0.1c1.9-8.1-1.5-16.5-8.5-20.9c-0.3-0.2-0.7-0.4-1.1-0.6c-7.6-4.2-17-2.8-23.1,3.3c-0.7-0.7-1.5-1.4-2.4-2l0,0
	c-0.6-0.5-1.3-0.9-2-1.3c-5.8-3.2-12.9-3.2-18.7,0c-1,0.5-1.9,1.1-2.8,1.8c-1.4,1.1-2.7,2.5-3.8,4c-0.4,0.5-0.7,1.1-1.1,1.7l0,0
	c-0.3,0.5-0.6,1.1-0.8,1.7c-0.1,0.3-0.3,0.6-0.4,0.9c0-0.1,0.1-0.2,0.1-0.4c0-0.1,0-0.1,0-0.2s0-0.1,0-0.1l0.1-0.3l0,0
	c0.1-0.2,0.1-0.4,0.2-0.6l0.1-0.3c0.1-0.4,0.3-0.8,0.5-1.2l0.1-0.2c0.1-0.1,0.1-0.2,0.2-0.4c0.1-0.2,0.2-0.4,0.3-0.6l0,0l0,0l0,0
	c0-0.1,0.1-0.2,0.1-0.3l0.2-0.3c0.1-0.1,0.1-0.2,0.2-0.4c0-0.1,0.1-0.1,0.1-0.2s0-0.1,0.1-0.1l0,0l0,0c0-0.1,0.1-0.1,0.1-0.2
	s0.1-0.2,0.2-0.2c0.1-0.2,0.2-0.3,0.3-0.5l0.1-0.2l0.2-0.2c0.1-0.1,0.1-0.2,0.2-0.2l0.2-0.3c0.1-0.1,0.1-0.2,0.2-0.2l0.1-0.1
	l0.1-0.2c0.1-0.1,0.1-0.2,0.2-0.3l0.1-0.1l0,0l0.2-0.2l0.2-0.2c0.2-0.2,0.3-0.4,0.5-0.5l0.2-0.2l0.3-0.3c0.1-0.1,0.1-0.1,0.2-0.2
	s0.2-0.2,0.3-0.2l0.2-0.1c0.1-0.1,0.1-0.1,0.2-0.1c0.1-0.1,0.2-0.2,0.3-0.3l0.2-0.1c0.3-0.2,0.6-0.4,0.9-0.7l0.2-0.1l0.2-0.1
	l0.2-0.1l0.3-0.2l0.1-0.1l0.2-0.1c0.3-0.1,0.5-0.3,0.8-0.4l0.2-0.1l0.2-0.1l0.2-0.1l0.2-0.1l0.2-0.1l0.2-0.1l0.2-0.1
	c0.3-0.1,0.5-0.2,0.8-0.3l0.2-0.1l0.2-0.1l0.2-0.1l0.2-0.1l0.4-0.1l0.2-0.1h0.2h0.2c0.1,0,0.2-0.1,0.3-0.1l0.4-0.1
	c0.4-0.1,0.7-0.2,1.1-0.2h0.2h0.2h0.2h0.3h0.2c0.4,0,0.7-0.1,1.1-0.1h0.2h0.1h0.2l0,0h0.1h0.1h0.2h0.2h0.9h0.2h0.2h0.1h0.1l0,0
	c0.1,0,0.2,0,0.3,0l0,0h0.2c0.3,0,0.6,0.1,0.9,0.1l0.4,0.1h0.3h0.2h0.2h0.1c0.4,0.1,0.7,0.1,1.1,0.2l0.4,0.1h0.1l0.2,0.1
	c0.1,0,0.2,0.1,0.4,0.1l0.2,0.1c0.3,0.1,0.5,0.2,0.8,0.3l0.2,0.1l0.2,0.1l0.4,0.1c0.1,0.1,0.3,0.1,0.4,0.2l0.2,0.1l0.2,0.1l0.2,0.1
	l0.2,0.1l0.2,0.1l0.2,0.1c0.2,0.1,0.3,0.2,0.4,0.2l0.2,0.1c0.2,0.1,0.4,0.3,0.6,0.4l0.2,0.1l0.2,0.1l0.2,0.1l0,0l0.1,0.1
	c0.3,0.2,0.5,0.4,0.8,0.6l0.2,0.1c0.1,0.1,0.2,0.2,0.3,0.3c0.1,0,0.1,0.1,0.2,0.1l0.2,0.1l0.3,0.2c0.1,0.1,0.1,0.1,0.2,0.2l0.3,0.3
	l0.2,0.2l0.2-0.2l0.3-0.3c0.1-0.1,0.1-0.1,0.2-0.2c0.1-0.1,0.2-0.2,0.3-0.2l0.2-0.1c0.1-0.1,0.1-0.1,0.2-0.1
	c0.1-0.1,0.2-0.2,0.3-0.3l0.2-0.1c0.3-0.2,0.6-0.4,0.9-0.7l0.2-0.1l0.2-0.1l0.2-0.1l0.3-0.2l0.1-0.1l0.2-0.1
	c0.3-0.1,0.5-0.3,0.8-0.4l0.2-0.1l0.2-0.1l0.2-0.1l0.2-0.1l0.2-0.1l0.2-0.1l0.2-0.1c0.3-0.1,0.5-0.2,0.8-0.3c0.1,0,0.1-0.1,0.2-0.1
	l0.2-0.1l0.2-0.1l0.2-0.1l0.4-0.1l0.2-0.1h0.2h0.2c0.1,0,0.2-0.1,0.3-0.1l0.4-0.1c0.4-0.1,0.7-0.2,1.1-0.2h0.2h0.2h0.2h0.3h0.2
	c0.4,0,0.7-0.1,1.1-0.1h0.2h0.1h0.2l0,0h0.1h0.1h0.2h0.2h0.9h0.2h0.2h0.1h0.1l0,0c0.1,0,0.2,0,0.3,0l0,0h0.2c0.3,0,0.6,0.1,0.9,0.1
	l0.4,0.1h0.3h0.2h0.2h0.1c0.4,0.1,0.7,0.1,1.1,0.2l0.4,0.1h0.1l0.2,0.1c0.1,0,0.2,0.1,0.4,0.1l0.2,0.1c0.3,0.1,0.5,0.2,0.8,0.3
	l0.2,0.1l0.2,0.1l0.4,0.1c0.1,0.1,0.3,0.1,0.4,0.2l0.2,0.1l0.2,0.1l0.2,0.1l0.2,0.1l0.2,0.1l0.2,0.1c0.1,0.1,0.3,0.2,0.4,0.2
	l0.2,0.1c0.2,0.1,0.4,0.3,0.6,0.4l0.2,0.1l0.2,0.1l0.2,0.1l0,0l0.1,0.1c0.3,0.2,0.5,0.4,0.8,0.6l0.2,0.1c0.1,0.1,0.2,0.2,0.3,0.3
	c0.1,0,0.1,0.1,0.2,0.1l0.2,0.1l0.2,0.2c0.1,0.1,0.2,0.1,0.2,0.2l0.1,0.1l0,0l0,0c0.1,0.1,0.1,0.1,0.2,0.2l0.1,0.1l0.1,0.1l0.2,0.2
	c0.1,0.1,0.2,0.2,0.3,0.3s0.1,0.1,0.2,0.2c0.1,0.1,0.2,0.2,0.3,0.3l0.3,0.4c0.4,0.4,0.7,0.9,1,1.4l0.1,0.2c0,0.1,0.1,0.1,0.1,0.2
	l0.1,0.2c0.1,0.1,0.1,0.2,0.2,0.3l0.2,0.3c0,0.1,0.1,0.1,0.1,0.2l0.1,0.1l0.1,0.1l0.1,0.2l0.1,0.2c0.3,0.5,0.5,1,0.7,1.5l0.1,0.2
	c0.1,0.2,0.2,0.4,0.2,0.6l0.1,0.2c0,0.1,0.1,0.2,0.1,0.3c0,0.1,0.1,0.2,0.1,0.2v0.2c0,0.1,0,0.2,0.1,0.2c0,0.1,0.1,0.2,0.1,0.3
	c0,0.2,0.1,0.3,0.1,0.5l0.1,0.2c0,0.1,0.1,0.2,0.1,0.3v0.1c0,0,0,0.1,0,0.2s0,0.1,0,0.2v0.1v0.1v0.1v0.2c0,0.1,0,0.2,0,0.2
	s0,0.2,0,0.3c0,0.1,0,0.2,0,0.3v0.1c0,0.1,0,0.2,0,0.3v0.1c0,0.1,0,0.2,0,0.3l0,0c0,0.1,0,0.1,0,0.2v0.2c0,0.1,0,0.2,0,0.3l0,0
	c0,0.1,0,0.2,0,0.3C-357.6,266.3-357.6,266.5-357.7,266.7z"/>
<path class="st2" d="M-312.8,326.5L-312.8,326.5c0,0.1,0,0.1,0,0.1v0.1l0,0v0.1l0,0l0,0v0.1v0.1v0.2v0.1l0,0c0,0,0,0,0,0.1l0,0l0,0
	c0,0,0,0,0,0.1c0,0,0,0,0,0.1l0,0v0.1l0,0v0.1v0.1v0.1l0,0v0.1c0,0.1-0.1,0.2-0.1,0.3v0.1l0,0c-0.2,0.5-0.5,1-0.8,1.4l-0.1,0.1
	c-0.2,0.2-0.3,0.4-0.5,0.6l-8.5,8.4l-8.4-8.4c-0.2-0.2-0.5-0.5-0.7-0.8c-0.1-0.2-0.2-0.4-0.3-0.5c-0.6-1-0.8-2.2-0.7-3.4
	c0-0.1,0-0.2,0-0.3c0-0.2,0.1-0.4,0.1-0.6v-0.1v-0.1l0,0v-0.1l0,0c0-0.1,0-0.1,0.1-0.2s0-0.1,0-0.1c0-0.1,0.1-0.3,0.1-0.4v-0.1v-0.1
	c0-0.1,0.1-0.1,0.1-0.2l0,0l0,0v-0.1v-0.1c0,0,0-0.1,0.1-0.1v-0.1l0,0l0,0l0,0c0,0,0,0,0-0.1s0,0,0-0.1c0,0,0.1-0.1,0.1-0.2v-0.1
	v-0.1l0.1-0.1l0.1-0.1l0.1-0.1l0,0v-0.1l0.1-0.1l0,0l0,0l0.1-0.1c0,0,0,0,0.1-0.1c0,0,0.1-0.1,0.2-0.2l0.1-0.1l0.1-0.1l0.1-0.1
	l0.1-0.1h0.1h0.1l0.1-0.1h0.1c0.1-0.1,0.2-0.1,0.3-0.2h0.1h0.1h0.1l0.1-0.1l0,0h0.1c0.1,0,0.2-0.1,0.2-0.1l0,0h0.1h0.1h0.1h0.1h0.1
	h0.1l0.2-0.1h0.1h0.1h0.1l0,0h0.1h0.1l0,0l0,0h0.1h0.1c0.1,0,0.2-0.1,0.3-0.1l0,0h0.1h0.1h0.1l0,0c0.1,0,0.2,0,0.3,0h0.8h0.1h0.1
	h0.3h0.1h0.1h0.1h0.1l0,0c0.1,0,0.2,0,0.3,0.1h0.1l0,0h0.1h0.1l0,0c0.1,0,0.2,0.1,0.2,0.1h0.1h0.1h0.1l0.1,0.1h0.1h0.1h0.1h0.1h0.1
	h0.1l0.1,0.1h0.1c0.1,0,0.1,0.1,0.2,0.1h0.1h0.1h0.1l0,0l0,0l0.2,0.2c0,0,0,0,0.1,0l0.1,0.1h0.1h0.1l0.1,0.1l0.1,0.1l0.1,0.1
	c0,0,0,0,0.1,0.1c0,0,0,0,0.1-0.1l0.1-0.1l0.1-0.1l0.1-0.1h0.1h0.1l0.1-0.1c0,0,0,0,0.1,0l0.3-0.2h0.1h0.1h0.1l0.1-0.1l0,0h0.1
	c0.1,0,0.2-0.1,0.2-0.1l0,0h0.1h0.1h0.1h0.1h0.1h0.1l0.2-0.1h0.1h0.1h0.1l0,0h0.1h0.1l0,0l0,0h0.1h0.1c0.1,0,0.2-0.1,0.3-0.1l0,0
	h0.1h0.1h0.1l0,0c0.1,0,0.2,0,0.3,0h0.8h0.1h0.1h0.3h0.1h0.1h0.1h0.1l0,0c0.1,0,0.2,0,0.3,0.1h0.1l0,0h0.1h0.1l0,0
	c0.1,0,0.2,0.1,0.2,0.1h0.1h0.1h0.1l0.1,0.1l0,0h0.1h0.1h0.1h0.1h0.1l0.1,0.1h0.1c0.1,0,0.1,0.1,0.2,0.1h0.1h0.1h0.1l0,0l0,0
	c0.1,0.1,0.2,0.1,0.2,0.2h0.1l0.1,0.1h0.1h0.1l0.1,0.1l0.1,0.1l0,0l0,0l0,0l0.1,0.1l0,0l0,0l0.1,0.1l0.1,0.1c0,0,0,0,0.1,0.1
	l0.1,0.1l0.1,0.1c0.1,0.1,0.2,0.3,0.3,0.4v0.1v0.1v0.1l0.1,0.1l0.1,0.1v0.1l0,0l0,0c0,0,0,0,0,0.1v0.1c0.1,0.2,0.1,0.3,0.2,0.5
	c0,0,0,0,0,0.1l0.1,0.2c0,0,0,0,0,0.1v0.1c0,0,0,0,0,0.1l0,0c0,0,0,0,0,0.1v0.1v0.1c0,0,0,0,0,0.1v0.1l0,0c0,0,0,0,0,0.1l0,0l0,0
	l0,0l0,0v0.1c0,0,0,0,0,0.1v0.1v0.1l0,0v0.1l0,0v0.1l0,0c0,0,0,0,0,0.1c0,0,0,0,0,0.1v0.1l0,0v0.1L-312.8,326.5z"/>
<path class="st3" d="M-312.8,326.5L-312.8,326.5c0,0.1,0,0.1,0,0.1v0.1l0,0v0.1l0,0l0,0v0.1v0.1v0.2v0.1l0,0c0,0,0,0,0,0.1l0,0l0,0
	c0,0,0,0,0,0.1c0,0,0,0,0,0.1l0,0v0.1l0,0v0.1v0.1v0.1l0,0v0.1c0,0.1-0.1,0.2-0.1,0.3v0.1l0,0c0.1-0.5,0.2-1,0.2-1.4
	c0-2-1.1-3.9-2.7-5c-0.1-0.1-0.2-0.1-0.3-0.2c-1.8-1-3.9-1-5.7,0c-0.2,0.1-0.4,0.2-0.6,0.4c-0.3,0.2-0.5,0.4-0.8,0.7
	c-0.2-0.2-0.5-0.4-0.7-0.6l0,0c-0.2-0.1-0.4-0.3-0.6-0.4c-2.1-1.2-4.7-0.9-6.5,0.6c-0.2,0.1-0.3,0.3-0.5,0.4
	c-0.2,0.2-0.5,0.5-0.6,0.8c-0.1,0.2-0.2,0.3-0.3,0.5l0,0c-0.1,0.2-0.2,0.3-0.3,0.5c0,0.1-0.1,0.2-0.1,0.3V325v-0.1l0,0v-0.1l0,0
	c0-0.1,0-0.1,0.1-0.2c0.1-0.1,0-0.1,0-0.1c0-0.1,0.1-0.3,0.1-0.4V324v-0.1c0-0.1,0.1-0.1,0.1-0.2l0,0l0,0v-0.1v-0.1
	c0,0,0-0.1,0.1-0.1v-0.1l0,0l0,0l0,0c0,0,0,0,0-0.1c0,0,0,0,0-0.1c0,0,0.1-0.1,0.1-0.2v-0.1v-0.1l0.1-0.1l0.1-0.1l0.1-0.1l0,0v-0.1
	l0.1-0.1l0,0l0,0l0.1-0.1c0,0,0,0,0.1-0.1c0,0,0.1-0.1,0.2-0.2l0.1-0.1l0.1-0.1l0.1-0.1l0.1-0.1h0.1h0.1l0.1-0.1h0.1
	c0.1-0.1,0.2-0.1,0.3-0.2h0.1h0.1h0.1l0.1-0.1l0,0h0.1c0.1,0,0.2-0.1,0.2-0.1l0,0h0.1h0.1h0.1h0.1h0.1h0.1l0.2-0.1h0.1h0.1h0.1l0,0
	h0.1h0.1l0,0l0,0h0.1h0.1c0.1,0,0.2-0.1,0.3-0.1l0,0h0.1h0.1h0.1l0,0c0.1,0,0.2,0,0.3,0h0.8h0.1h0.1h0.3h0.1h0.1h0.1h0.1l0,0
	c0.1,0,0.2,0,0.3,0.1h0.1l0,0h0.1h0.1l0,0c0.1,0,0.2,0.1,0.2,0.1h0.1h0.1h0.1l0.1,0.1h0.1h0.1h0.1h0.1h0.1h0.1l0.1,0.1h0.1
	c0.1,0,0.1,0.1,0.2,0.1h0.1h0.1h0.1l0,0l0,0l0.2,0.2c0,0,0,0,0.1,0l0.1,0.1h0.1h0.1l0.1,0.1l0.1,0.1l0.1,0.1c0,0,0,0,0.1,0.1
	c0,0,0,0,0.1-0.1l0.1-0.1l0.1-0.1l0.1-0.1h0.1h0.1l0.1-0.1c0,0,0,0,0.1,0l0.3-0.2h0.1h0.1h0.1l0.1-0.1l0,0h0.1
	c0.1,0,0.2-0.1,0.2-0.1l0,0h0.1h0.1h0.1h0.1h0.1h0.1l0.2-0.1h0.1h0.1h0.1l0,0h0.1h0.1l0,0l0,0h0.1h0.1c0.1,0,0.2-0.1,0.3-0.1l0,0
	h0.1h0.1h0.1l0,0c0.1,0,0.2,0,0.3,0h0.8h0.1h0.1h0.3h0.1h0.1h0.1h0.1l0,0c0.1,0,0.2,0,0.3,0.1h0.1l0,0h0.1h0.1l0,0
	c0.1,0,0.2,0.1,0.2,0.1h0.1h0.1h0.1l0.1,0.1l0,0h0.1h0.1h0.1h0.1h0.1l0.1,0.1h0.1c0.1,0,0.1,0.1,0.2,0.1h0.1h0.1h0.1l0,0l0,0
	c0.1,0.1,0.2,0.1,0.2,0.2h0.1l0.1,0.1h0.1h0.1l0.1,0.1l0.1,0.1l0,0l0,0l0,0l0.1,0.1l0,0l0,0l0.1,0.1l0.1,0.1c0,0,0,0,0.1,0.1
	l0.1,0.1l0.1,0.1c0.1,0.1,0.2,0.3,0.3,0.4v0.1v0.1v0.1l0.1,0.1l0.1,0.1v0.1l0,0l0,0c0,0,0,0,0,0.1v0.1c0.1,0.2,0.1,0.3,0.2,0.5
	c0,0,0,0,0,0.1l0.1,0.2c0,0,0,0,0,0.1v0.1c0,0,0,0,0,0.1l0,0c0,0,0,0,0,0.1v0.1v0.1c0,0,0,0,0,0.1v0.1l0,0c0,0,0,0,0,0.1l0,0l0,0
	l0,0l0,0v0.1c0,0,0,0,0,0.1v0.1v0.1l0,0v0.1l0,0v0.1l0,0c0,0,0,0,0,0.1c0,0,0,0,0,0.1v0.1l0,0v0.1L-312.8,326.5z"/>
<path class="st2" d="M-351.6,315.4L-351.6,315.4C-351.6,315.5-351.6,315.5-351.6,315.4v0.1v0.1l0,0v0.1l0,0v0.1v0.1
	c0,0.1,0,0.1,0,0.2s0,0.1,0,0.1l0,0c0,0,0,0,0,0.1l0,0l0,0c0,0,0,0,0,0.1v0.1l0,0v0.1l0,0c0,0,0,0,0,0.1c0,0,0,0,0,0.1v0.1l0,0v0.1
	c0,0.1-0.1,0.2-0.1,0.3v0.1l0,0c-0.2,0.5-0.5,1-0.8,1.4l-0.1,0.1c-0.2,0.2-0.3,0.4-0.5,0.6l-8.4,8.4l-8.4-8.4
	c-0.2-0.2-0.5-0.5-0.7-0.8c-0.1-0.2-0.2-0.4-0.3-0.5c-0.6-1-0.8-2.2-0.7-3.4c0-0.1,0-0.2,0-0.3c0-0.2,0.1-0.4,0.1-0.6v-0.1
	c0,0,0,0,0-0.1l0,0v-0.1l0,0c0-0.1,0-0.1,0.1-0.2v-0.1c0-0.1,0.1-0.2,0.1-0.4v-0.1c0,0,0-0.1,0.1-0.1c0,0,0.1-0.1,0.1-0.2l0,0l0,0
	v-0.1v-0.1l0.1-0.1c0,0,0,0,0-0.1l0,0l0,0l0,0V312c0,0,0,0,0-0.1l0.1-0.2v-0.1v-0.1l0.1-0.1l0.1-0.1c0,0,0,0,0.1-0.1l0,0l0,0
	l0.1-0.1l0,0l0,0V311l0.1-0.1l0.2-0.2l0.1-0.1l0.1-0.1c0,0,0,0,0.1-0.1l0.1-0.1h0.1h0.1l0.1-0.1h0.1c0.1-0.1,0.2-0.1,0.3-0.2h0.1
	h0.1h0.1h0.1l0,0h0.1c0.1,0,0.2-0.1,0.2-0.1l0,0v-0.1h0.1h0.1h0.1h0.1h0.1l0.2-0.1h0.1h0.1h0.1h0.1h0.1h0.1l0,0l0,0h0.1h0.1l0.3-0.1
	l0,0h0.1h0.1h0.1l0,0c0.1,0,0.2,0,0.3,0h0.1h0.8c0.1,0,0.2,0,0.3,0h0.1h0.1h0.1h0.1l0,0c0.1,0,0.2,0,0.3,0.1h0.1l0,0c0,0,0,0,0.1,0
	h0.1h0.1l0.2,0.1h0.1h0.1h0.1l0.1,0.1l0,0h0.1h0.1h0.1h0.1h0.1l0.1,0.1h0.1l0.2,0.1h0.1h0.1h0.1l0,0l0,0c0.1,0.1,0.2,0.1,0.2,0.2
	c0,0,0,0,0.1,0l0.1,0.1h0.1h0.1l0.1,0.1c0,0,0,0,0.1,0.1l0.1,0.1l0.1,0.1l0.1-0.1l0.1-0.1l0.1-0.1l0.1-0.1h0.1h0.1l0.1-0.1
	c0,0,0,0,0.1,0c0.1-0.1,0.2-0.1,0.3-0.2h0.1h0.1h0.1h0.1l0,0h0.1c0.1,0,0.2-0.1,0.2-0.1l0,0h0.1h0.1h0.1h0.1h0.1h0.1l0.2-0.1h0.1
	h0.1h0.1l0,0h0.1h0.1l0,0l0,0h0.1h0.1c0.1,0,0.2-0.1,0.3-0.1l0,0h0.1h0.1h0.1l0,0c0.1,0,0.2,0,0.3,0h0.1h0.8h0.3h0.1h0.1h0.1h0.1
	l0,0c0.1,0,0.2,0,0.3,0.1h0.1l0,0c0,0,0,0,0.1,0h0.1l0,0l0.2,0.1h0.1h0.1h0.1l0.1,0.1l0,0h0.1h0.1h0.1h0.1h0.1l0.1,0.1h0.1l0.2,0.1
	h0.1h0.1h0.1l0,0l0,0l0.2,0.2h0.1l0.1,0.1h0.1h0.1l0.1,0.1l0.1,0.1l0,0l0,0l0,0l0.1,0.1l0,0l0,0l0.1,0.1l0.1,0.1l0.1,0.1l0.1,0.1
	l0.1,0.1c0.1,0.1,0.2,0.3,0.3,0.4v0.1v0.1c0,0,0,0,0,0.1c0,0,0,0.1,0.1,0.1s0,0.1,0.1,0.1v0.1l0,0l0,0v0.1c0,0,0,0,0,0.1
	c0.1,0.2,0.1,0.3,0.2,0.5c0,0,0,0,0,0.1s0.1,0.1,0.1,0.2c0,0,0,0,0,0.1v0.1v0.1l0,0c0,0,0,0,0,0.1v0.1v0.1v0.1v0.1l0,0
	c0,0,0,0,0,0.1l0,0l0,0l0,0l0,0c0,0,0,0,0,0.1v0.1v0.1v0.1l0,0v0.1l0,0v0.1l0,0c0,0,0,0,0,0.1c0,0,0,0,0,0.1v0.1l0,0v0.1
	C-351.6,315.3-351.6,315.3-351.6,315.4z"/>
<path class="st3" d="M-351.6,315.4L-351.6,315.4C-351.6,315.5-351.6,315.5-351.6,315.4v0.1v0.1l0,0v0.1l0,0v0.1v0.1
	c0,0.1,0,0.1,0,0.2s0,0.1,0,0.1l0,0c0,0,0,0,0,0.1l0,0l0,0c0,0,0,0,0,0.1v0.1l0,0v0.1l0,0c0,0,0,0,0,0.1c0,0,0,0,0,0.1v0.1l0,0v0.1
	c0,0.1-0.1,0.2-0.1,0.3v0.1l0,0c0.2-1,0.2-2,0-2.9c-0.4-1.4-1.3-2.7-2.5-3.5c-0.1-0.1-0.2-0.1-0.3-0.2c-1.8-1-3.9-1-5.7,0
	c-0.2,0.1-0.4,0.2-0.6,0.4c-0.3,0.2-0.5,0.4-0.8,0.7c-0.2-0.2-0.5-0.4-0.7-0.6l0,0c-0.2-0.1-0.4-0.3-0.6-0.4c-2.3-1.3-5.2-0.9-7,1
	c-0.3,0.2-0.5,0.5-0.8,0.8c-0.1,0.2-0.2,0.3-0.3,0.5l0,0c-0.1,0.2-0.2,0.3-0.3,0.5c0,0.1-0.1,0.2-0.1,0.3v-0.1c0,0,0,0,0-0.1l0,0
	v-0.1l0,0c0-0.1,0-0.1,0.1-0.2v-0.1c0-0.1,0.1-0.2,0.1-0.4v-0.1c0,0,0-0.1,0.1-0.1c0.1,0,0.1-0.1,0.1-0.2l0,0l0,0v-0.1v-0.1l0.1-0.1
	c0,0,0,0,0-0.1l0,0l0,0l0,0v-0.1c0,0,0,0,0-0.1l0.1-0.2v-0.1v-0.1l0.1-0.1l0.1-0.1c0,0,0,0,0.1-0.1l0,0l0,0l0.1-0.1l0,0l0,0V311
	l0.1-0.1l0.2-0.2l0.1-0.1l0.1-0.1c0,0,0,0,0.1-0.1l0.1-0.1h0.1h0.1l0.1-0.1h0.1c0.1-0.1,0.2-0.1,0.3-0.2h0.1h0.1h0.1h0.1l0,0h0.1
	c0.1,0,0.2-0.1,0.2-0.1l0,0h0.1h0.1h0.1h0.1h0.1h0.1l0.2-0.1h0.1h0.1h0.1h0.1h0.1h0.1l0,0l0,0h0.1h0.1l0.3-0.1l0,0h0.1h0.1h0.1l0,0
	c0.1,0,0.2,0,0.3,0h0.1h0.8c0.1,0,0.2,0,0.3,0h0.1h0.1h0.1h0.1l0,0c0.1,0,0.2,0,0.3,0.1h0.1l0,0c0,0,0,0,0.1,0h0.1h0.1l0.2,0.1h0.1
	h0.1h0.1l0.1,0.1l0,0h0.1h0.1h0.1h0.1h0.1l0.1,0.1h0.1l0.2,0.1h0.1h0.1h0.1l0,0l0,0c0.1,0.1,0.2,0.1,0.2,0.2c0,0,0,0,0.1,0l0.1,0.1
	h0.1h0.1l0.1,0.1c0,0,0,0,0.1,0.1l0.1,0.1l0.1,0.1l0.1-0.1l0.1-0.1l0.1-0.1l0.1-0.1h0.1h0.1l0.1-0.1c0,0,0,0,0.1,0
	c0.1-0.1,0.2-0.1,0.3-0.2h0.1h0.1h0.1h0.1l0,0h0.1c0.1,0,0.2-0.1,0.2-0.1l0,0h0.1h0.1h0.1h0.1h0.1h0.1l0.2-0.1h0.1h0.1h0.1l0,0h0.1
	h0.1l0,0l0,0h0.1h0.1c0.1,0,0.2-0.1,0.3-0.1l0,0h0.1h0.1h0.1l0,0c0.1,0,0.2,0,0.3,0h0.1h0.8h0.3h0.1h0.1h0.1h0.1l0,0
	c0.1,0,0.2,0,0.3,0.1h0.1l0,0c0,0,0,0,0.1,0h0.1l0,0l0.2,0.1h0.1h0.1h0.1l0.1,0.1l0,0h0.1h0.1h0.1h0.1h0.1l0.1,0.1h0.1l0.2,0.1h0.1
	h0.1h0.1l0,0l0,0l0.2,0.2h0.1l0.1,0.1h0.1h0.1l0.1,0.1l0.1,0.1l0,0l0,0l0,0l0.1,0.1l0,0l0,0l0.1,0.1l0.1,0.1l0.1,0.1l0.1,0.1
	l0.1,0.1c0.1,0.1,0.2,0.3,0.3,0.4v0.1v0.1c0,0,0,0,0,0.1c0,0,0,0.1,0.1,0.1c0.1,0,0,0.1,0.1,0.1v0.1l0,0l0,0v0.1c0,0,0,0,0,0.1
	c0.1,0.2,0.1,0.3,0.2,0.5c0,0,0,0,0,0.1s0.1,0.1,0.1,0.2c0,0,0,0,0,0.1v0.1v0.1l0,0c0,0,0,0,0,0.1v0.1v0.1v0.1v0.1l0,0
	c0,0,0,0,0,0.1l0,0l0,0l0,0l0,0c0,0,0,0,0,0.1v0.1v0.1v0.1l0,0v0.1l0,0v0.1l0,0c0,0,0,0,0,0.1c0,0,0,0,0,0.1v0.1l0,0v0.1
	C-351.6,315.3-351.6,315.3-351.6,315.4z"/>
<path class="st2" d="M-430.7,321.3L-430.7,321.3v0.1v0.1l0,0v0.1l0,0v0.1v0.1c0,0.1,0,0.1,0,0.2s0,0.1,0,0.1l0,0c0,0,0,0,0,0.1l0,0
	l0,0c0,0,0,0,0,0.1v0.1l0,0v0.1l0,0c0,0,0,0,0,0.1c0,0,0,0,0,0.1v0.1l0,0v0.1c0,0.1-0.1,0.2-0.1,0.3v0.1l0,0c-0.2,0.5-0.5,1-0.8,1.4
	l-0.1,0.1c-0.2,0.2-0.3,0.4-0.5,0.6l-8.4,8.4l-8.4-8.4c-0.2-0.2-0.5-0.5-0.7-0.8c-0.1-0.2-0.2-0.4-0.3-0.5c-0.6-1-0.8-2.2-0.7-3.4
	c0-0.1,0-0.2,0-0.3c0-0.2,0.1-0.4,0.1-0.6v-0.1v-0.1l0,0v-0.1l0,0c0-0.1,0-0.1,0.1-0.2c0-0.1,0-0.1,0-0.1c0-0.1,0.1-0.3,0.1-0.4
	v-0.1c0,0,0-0.1,0.1-0.1s0.1-0.1,0.1-0.2l0,0l0,0v-0.1v-0.1l0.1-0.1V318l0,0l0,0l0,0v-0.1c0,0,0,0,0-0.1l0.1-0.2v-0.1v-0.1
	c0,0,0,0,0.1-0.1c0,0,0-0.1,0.1-0.1l0.1-0.1l0,0V317l0.1-0.1l0,0l0,0v-0.1l0.1-0.1l0.2-0.2l0.1-0.1l0.1-0.1l0.1-0.1l0.1-0.1h0.1h0.1
	l0.1-0.1h0.1c0.1-0.1,0.2-0.1,0.3-0.2h0.1h0.1h0.1c0,0,0.1,0,0.1-0.1l0,0h0.1c0.1,0,0.2-0.1,0.2-0.1l0,0l0,0h0.1h0.1h0.1h0.1h0.1
	l0.2-0.1h0.1h0.1h0.1h0.1h0.1h0.1l0,0l0,0h0.1h0.1c0.1,0,0.2-0.1,0.3-0.1l0,0h0.1h0.1h0.1l0,0c0.1,0,0.2,0,0.3,0h0.8h0.1h0.1h0.3
	h0.1h0.1h0.1h0.1l0,0c0.1,0,0.2,0,0.3,0.1h0.1l0,0h0.1h0.1l0,0c0.1,0,0.2,0.1,0.2,0.1h0.1h0.1h0.1l0.1,0.1l0,0h0.1h0.1h0.1h0.1h0.1
	l0.1,0.1h0.1c0.1,0,0.1,0.1,0.2,0.1h0.1h0.1h0.1l0,0l0,0c0.1,0.1,0.2,0.1,0.2,0.2h0.1l0.1,0.1h0.1h0.1l0.1,0.1l0.1,0.1l0.1,0.1
	l0.1,0.1l0.1-0.1l0.1-0.1l0.1-0.1l0.1-0.1h0.1h0.1l0.1-0.1h0.1c0.1-0.1,0.2-0.1,0.3-0.2h0.1h0.1h0.1l0.1-0.1l0,0h0.1
	c0.1,0,0.2-0.1,0.2-0.1l0,0h0.1h0.1h0.1h0.1h0.1h0.1l0.2-0.1h0.1h0.1h0.1l0,0h0.1h0.1l0,0l0,0h0.1h0.1c0.1,0,0.2-0.1,0.3-0.1l0,0
	h0.1h0.1h0.1l0,0c0.1,0,0.2,0,0.3,0h0.8h0.1h0.1h0.3h0.1h0.1h0.1h0.1l0,0c0.1,0,0.2,0,0.3,0.1h0.1l0,0h0.1h0.1l0,0
	c0.1,0,0.2,0.1,0.2,0.1h0.1h0.1h0.1l0.1,0.1h0.1h0.1h0.1h0.1h0.1h0.1l0.1,0.1h0.1c0.1,0,0.1,0.1,0.2,0.1h0.1h0.1h0.1l0,0l0,0
	l0.2,0.2h0.1l0.1,0.1h0.1h0.1l0.1,0.1c0,0,0,0,0.1,0.1l0,0l0,0l0,0l0.1,0.1l0,0l0,0l0.1,0.1l0.1,0.1l0.1,0.1l0.1,0.1l0.1,0.1
	c0.1,0.1,0.2,0.3,0.3,0.4v0.1v0.1c0,0,0,0,0,0.1c0,0,0,0.1,0.1,0.1s0,0.1,0.1,0.1v0.1l0,0l0,0v0.1c0,0,0,0,0,0.1
	c0.1,0.1,0.1,0.3,0.2,0.5v0.1c0,0.1,0.1,0.1,0.1,0.2v0.1v0.1v0.1l0,0v0.1v0.1v0.1v0.1v0.1l0,0c0,0,0,0,0,0.1l0,0l0,0l0,0l0,0v0.1
	c0,0,0,0,0,0.1v0.1v0.1l0,0v0.1l0,0v0.1l0,0c0,0,0,0,0,0.1c0,0,0,0,0,0.1v0.1l0,0v0.1C-429.4,321-430.7,321.2-430.7,321.3z"/>
<path class="st3" d="M-430.7,321.3L-430.7,321.3v0.1v0.1l0,0v0.1l0,0v0.1v0.1c0,0.1,0,0.1,0,0.2s0,0.1,0,0.1l0,0c0,0,0,0,0,0.1l0,0
	l0,0c0,0,0,0,0,0.1v0.1l0,0v0.1l0,0c0,0,0,0,0,0.1c0,0,0,0,0,0.1v0.1l0,0v0.1c0,0.1-0.1,0.2-0.1,0.3v0.1l0,0c0.2-1,0.2-2,0-2.9
	c-0.4-1.4-1.4-2.7-2.6-3.4c-0.1-0.1-0.2-0.1-0.3-0.2c-1.8-1-3.9-1-5.7,0c-0.2,0.1-0.4,0.2-0.6,0.4c-0.3,0.2-0.5,0.4-0.8,0.7
	c-0.2-0.2-0.5-0.4-0.7-0.6l0,0c-0.2-0.1-0.4-0.3-0.6-0.4c-1.8-1-3.9-1-5.7,0c-0.3,0.2-0.6,0.4-0.8,0.6c-0.2,0.1-0.3,0.3-0.5,0.4
	c-0.2,0.2-0.5,0.5-0.6,0.8c-0.1,0.2-0.2,0.3-0.3,0.5l0,0c-0.1,0.2-0.2,0.3-0.3,0.5c0,0.1-0.1,0.2-0.1,0.3v-0.1v-0.1l0,0v-0.1l0,0
	c0-0.1,0-0.1,0.1-0.2s0-0.1,0-0.1c0-0.1,0.1-0.3,0.1-0.4v-0.1c0,0,0-0.1,0.1-0.1s0.1-0.1,0.1-0.2l0,0l0,0v-0.1v-0.1l0.1-0.1v-0.1
	l0,0l0,0l0,0v-0.1c0,0,0,0,0-0.1l0.1-0.2v-0.1v-0.1c0,0,0,0,0.1-0.1c0,0,0-0.1,0.1-0.1l0.1-0.1l0,0v-0.1l0.1-0.1l0,0l0,0v-0.1
	l0.1-0.1l0.2-0.2l0.1-0.1l0.1-0.1l0.1-0.1l0.1-0.1h0.1h0.1l0.1-0.1h0.1c0.1-0.1,0.2-0.1,0.3-0.2h0.1h0.1h0.1c0,0,0.1,0,0.1-0.1l0,0
	h0.1c0.1,0,0.2-0.1,0.2-0.1l0,0h0.1h0.1h0.1h0.1h0.1h0.1l0.2-0.1h0.1h0.1h0.1h0.1h0.1h0.1l0,0l0,0h0.1h0.1c0.1,0,0.2-0.1,0.3-0.1
	l0,0h0.1h0.1h0.1l0,0c0.1,0,0.2,0,0.3,0h0.8h0.1h0.1h0.3h0.1h0.1h0.1h0.1l0,0c0.1,0,0.2,0,0.3,0.1h0.1l0,0h0.1h0.1l0,0
	c0.1,0,0.2,0.1,0.2,0.1h0.1h0.1h0.1l0.1,0.1l0,0h0.1h0.1h0.1h0.1h0.1l0.1,0.1h0.1c0.1,0,0.1,0.1,0.2,0.1h0.1h0.1h0.1l0,0l0,0
	c0.1,0.1,0.2,0.1,0.2,0.2h0.1l0.1,0.1h0.1h0.1l0.1,0.1l0.1,0.1l0.1,0.1l0.1,0.1l0.1-0.1l0.1-0.1l0.1-0.1l0.1-0.1h0.1h0.1l0.1-0.1
	h0.1c0.1-0.1,0.2-0.1,0.3-0.2h0.1h0.1h0.1l0.1-0.1l0,0h0.1c0.1,0,0.2-0.1,0.2-0.1l0,0h0.1h0.1h0.1h0.1h0.1h0.1l0.2-0.1h0.1h0.1h0.1
	l0,0h0.1h0.1l0,0l0,0h0.1h0.1c0.1,0,0.2-0.1,0.3-0.1l0,0h0.1h0.1h0.1l0,0c0.1,0,0.2,0,0.3,0h0.8h0.1h0.1h0.3h0.1h0.1h0.1h0.1l0,0
	c0.1,0,0.2,0,0.3,0.1h0.1l0,0h0.1h0.1l0,0c0.1,0,0.2,0.1,0.2,0.1h0.1h0.1h0.1l0.1,0.1h0.1h0.1h0.1h0.1h0.1h0.1l0.1,0.1h0.1
	c0.1,0,0.1,0.1,0.2,0.1h0.1h0.1h0.1l0,0l0,0l0.2,0.2h0.1l0.1,0.1h0.1h0.1l0.1,0.1c0,0,0,0,0.1,0.1l0,0l0,0l0,0l0.1,0.1l0,0l0,0
	l0.1,0.1l0.1,0.1l0.1,0.1l0.1,0.1l0.1,0.1c0.1,0.1,0.2,0.3,0.3,0.4v0.1v0.1c0,0,0,0,0,0.1c0,0,0,0.1,0.1,0.1s0,0.1,0.1,0.1v0.1l0,0
	l0,0v0.1c0,0,0,0,0,0.1c0.1,0.1,0.1,0.3,0.2,0.5v0.1c0,0.1,0.1,0.1,0.1,0.2v0.1v0.1v0.1l0,0v0.1v0.1v0.1v0.1v0.1l0,0c0,0,0,0,0,0.1
	l0,0l0,0l0,0l0,0v0.1c0,0,0,0,0,0.1v0.1v0.1l0,0v0.1l0,0v0.1l0,0c0,0,0,0,0,0.1c0,0,0,0,0,0.1v0.1l0,0v0.1
	C-429.1,321.2-430.7,321.2-430.7,321.3z"/>
<path class="st2" d="M-433.3,364L-433.3,364c0,0.1,0,0.1,0,0.1v0.1l0,0v0.1l0,0l0,0v0.1v0.1v0.2v0.1l0,0c0,0,0,0,0,0.1l0,0l0,0
	c0,0,0,0,0,0.1c0,0,0,0,0,0.1l0,0v0.1l0,0v0.1v0.1v0.1l0,0v0.1c0,0.1-0.1,0.2-0.1,0.3v0.1l0,0c-0.2,0.5-0.5,1-0.8,1.4l-0.1,0.1
	c-0.2,0.2-0.3,0.4-0.5,0.6l-8.4,8.4l-8.4-8.4c-0.2-0.2-0.5-0.5-0.7-0.8c-0.1-0.2-0.2-0.4-0.3-0.5c-0.6-1-0.8-2.2-0.7-3.4
	c0-0.1,0-0.2,0-0.3c0-0.2,0.1-0.4,0.1-0.6v-0.1v-0.1l0,0v-0.1l0,0c0-0.1,0-0.1,0.1-0.2v-0.1c0-0.1,0.1-0.2,0.1-0.4v-0.1v-0.1
	c0-0.1,0.1-0.1,0.1-0.2l0,0l0,0V361v-0.1c0,0,0-0.1,0.1-0.1v-0.1l0,0l0,0l0,0c0,0,0,0,0-0.1c0,0,0,0,0-0.1l0.1-0.2c0,0,0,0,0-0.1
	v-0.1l0.1-0.1l0.1-0.1l0.1-0.1l0,0v-0.1l0.1-0.1l0,0l0,0l0.1-0.1l0.1-0.1c0.1-0.1,0.1-0.1,0.2-0.2l0.1-0.1l0.1-0.1l0.1-0.1l0.1-0.1
	h0.1h0.1l0.1-0.1c0,0,0,0,0.1,0c0.1-0.1,0.2-0.1,0.3-0.2h0.1c0,0,0,0,0.1,0h0.1h0.1l0,0h0.1c0.1,0,0.2-0.1,0.2-0.1l0,0h0.1h0.1h0.1
	h0.1h0.1h0.1l0.2-0.1h0.1h0.1h0.1l0,0h0.1h0.1l0,0l0,0h0.1h0.1c0.1,0,0.2-0.1,0.3-0.1l0,0h0.1h0.1h0.1l0,0c0.1,0,0.2,0,0.3,0h0.1
	h0.7h0.1l0,0l0,0h0.3h0.1h0.1h0.1h0.1l0,0c0.1,0,0.2,0,0.3,0.1h0.1l0,0h0.1h0.1l0,0c0.1,0,0.2,0.1,0.2,0.1h0.1h0.1h0.1l0.1,0.1h0.1
	h0.1h0.1h0.1h0.1h0.1l0.1,0.1h0.1c0.1,0,0.1,0.1,0.2,0.1h0.1h0.1h0.1l0,0l0,0l0.2,0.2h0.1l0.1,0.1h0.1h0.1l0.1,0.1l0.1,0.1l0.1,0.1
	l0.1,0.1l0.1-0.1l0.1-0.1l0.1-0.1l0.1-0.1h0.1h0.1l0.1-0.1h0.1c0.1-0.1,0.2-0.1,0.3-0.2h0.1h0.1h0.1h0.1l0,0h0.1l0.2-0.1l0,0h0.1
	h0.1h0.1h0.1h0.1h0.1l0.2-0.1h0.1h0.1h0.1l0,0h0.1h0.1l0,0l0,0h0.1h0.1c0.1,0,0.2-0.1,0.3-0.1l0,0h0.1h0.1h0.1l0,0h0.3h0.1h0.7h0.1
	l0,0l0,0c0.1,0,0.2,0,0.3,0h0.1h0.1h0.1h0.1l0,0c0.1,0,0.2,0,0.3,0.1h0.1l0,0h0.1h0.1l0,0c0.1,0,0.2,0.1,0.2,0.1h0.1h0.1h0.1
	l0.1,0.1l0,0h0.1h0.1h0.1h0.1h0.1c0,0,0.1,0,0.1,0.1h0.1l0.2,0.1h0.1h0.1h0.1l0,0l0,0c0.1,0.1,0.2,0.1,0.2,0.2h0.1l0.1,0.1h0.1h0.1
	l0.1,0.1l0.1,0.1l0,0l0,0l0,0l0.1,0.1l0,0l0,0l0.1,0.1l0.1,0.1l0.1,0.1l0.1,0.1l0.1,0.1c0.1,0.1,0.2,0.3,0.3,0.4v0.1v0.1v0.1
	l0.1,0.1l0.1,0.1v0.1l0,0l0,0c0,0,0,0,0,0.1c0,0,0,0,0,0.1c0.1,0.2,0.1,0.3,0.2,0.5c0,0,0,0,0,0.1l0.1,0.2v0.1v0.1v0.1l0,0v0.1v0.1
	v0.1c0,0,0,0,0,0.1v0.1l0,0c0,0,0,0,0,0.1l0,0l0,0l0,0l0,0c0,0,0,0,0,0.1s0,0,0,0.1v0.1v0.1l0,0v0.1l0,0v0.1l0,0c0,0,0,0,0,0.1
	c0,0,0,0,0,0.1v0.1l0,0v0.1L-433.3,364z"/>
<path class="st3" d="M-433.3,364L-433.3,364c0,0.1,0,0.1,0,0.1v0.1l0,0v0.1l0,0l0,0v0.1v0.1v0.2v0.1l0,0c0,0,0,0,0,0.1l0,0l0,0
	c0,0,0,0,0,0.1c0,0,0,0,0,0.1l0,0v0.1l0,0v0.1v0.1v0.1l0,0v0.1c0,0.1-0.1,0.2-0.1,0.3v0.1l0,0c0.1-0.5,0.2-1,0.2-1.4
	c0-0.5-0.1-1-0.2-1.5c-0.4-1.4-1.3-2.7-2.5-3.5c-0.1-0.1-0.2-0.1-0.3-0.2c-1.8-1-3.9-1-5.7,0c-0.2,0.1-0.4,0.2-0.6,0.4
	c-0.3,0.2-0.6,0.4-0.8,0.7c-0.2-0.2-0.5-0.4-0.7-0.6l0,0c-0.2-0.1-0.4-0.3-0.6-0.4c-2.1-1.1-4.7-0.9-6.5,0.6
	c-0.2,0.1-0.3,0.3-0.5,0.4c-0.2,0.2-0.5,0.5-0.6,0.8c-0.1,0.2-0.2,0.3-0.3,0.5l0,0c-0.1,0.2-0.2,0.3-0.3,0.5c0,0.1-0.1,0.2-0.1,0.3
	v-0.1v-0.1l0,0v-0.1l0,0c0-0.1,0-0.1,0.1-0.2V362c0-0.1,0.1-0.2,0.1-0.4v-0.1v-0.1l0.1-0.2l0,0l0,0v-0.1V361c0,0,0-0.1,0.1-0.1v-0.1
	l0,0l0,0l0,0c0,0,0,0,0-0.1c0,0,0,0,0-0.1l0.1-0.2c0,0,0,0,0-0.1v-0.1l0.1-0.1l0.1-0.1l0.1-0.1l0,0v-0.1l0.1-0.1l0,0l0,0l0.1-0.1
	l0.1-0.1c0.1-0.1,0.1-0.1,0.2-0.2l0.1-0.1l0.1-0.1l0.1-0.1l0.1-0.1h0.1h0.1l0.1-0.1c0,0,0,0,0.1,0c0.1-0.1,0.2-0.1,0.3-0.2h0.1
	c0,0,0,0,0.1,0h0.1h0.1l0,0h0.1c0.1,0,0.2-0.1,0.2-0.1l0,0h0.1h0.1h0.1h0.1h0.1h0.1l0.2-0.1h0.1h0.1h0.1l0,0h0.1h0.1l0,0l0,0h0.1
	h0.1c0.1,0,0.2-0.1,0.3-0.1l0,0h0.1h0.1h0.1l0,0c0.1,0,0.2,0,0.3,0h0.1h0.7h0.1l0,0l0,0h0.3h0.1h0.1h0.1h0.1l0,0
	c0.1,0,0.2,0,0.3,0.1h0.1l0,0h0.1h0.1l0,0c0.1,0,0.2,0.1,0.2,0.1h0.1h0.1h0.1l0.1,0.1h0.1h0.1h0.1h0.1h0.1h0.1l0.1,0.1h0.1
	c0.1,0,0.1,0.1,0.2,0.1h0.1h0.1h0.1l0,0l0,0l0.2,0.2h0.1l0.1,0.1h0.1h0.1l0.1,0.1l0.1,0.1l0.1,0.1l0.1,0.1l0.1-0.1l0.1-0.1l0.1-0.1
	l0.1-0.1h0.1h0.1l0.1-0.1h0.1c0.1-0.1,0.2-0.1,0.3-0.2h0.1h0.1h0.1h0.1l0,0h0.1l0.2-0.1l0,0h0.1h0.1h0.1h0.1h0.1h0.1l0.2-0.1h0.1
	h0.1h0.1l0,0h0.1h0.1l0,0l0,0h0.1h0.1c0.1,0,0.2-0.1,0.3-0.1l0,0h0.1h0.1h0.1l0,0h0.3h0.1h0.7h0.1l0,0l0,0c0.1,0,0.2,0,0.3,0h0.1
	h0.1h0.1h0.1l0,0c0.1,0,0.2,0,0.3,0.1h0.1l0,0h0.1h0.1l0,0c0.1,0,0.2,0.1,0.2,0.1h0.1h0.1h0.1l0.1,0.1l0,0h0.1h0.1h0.1h0.1h0.1
	c0,0,0.1,0,0.1,0.1h0.1l0.2,0.1h0.1h0.1h0.1l0,0l0,0c0.1,0.1,0.2,0.1,0.2,0.2h0.1l0.1,0.1h0.1h0.1l0.1,0.1l0.1,0.1l0,0l0,0l0,0
	l0.1,0.1l0,0l0,0l0.1,0.1l0.1,0.1l0.1,0.1l0.1,0.1l0.1,0.1c0.1,0.1,0.2,0.3,0.3,0.4v0.1v0.1v0.1l0.1,0.1l0.1,0.1v0.1l0,0l0,0
	c0,0,0,0,0,0.1c0,0,0,0,0,0.1c0.1,0.2,0.1,0.3,0.2,0.5c0,0,0,0,0,0.1l0.1,0.2v0.1v0.1v0.1l0,0v0.1v0.1v0.1c0,0,0,0,0,0.1v0.1l0,0
	c0,0,0,0,0,0.1l0,0l0,0l0,0l0,0c0,0,0,0,0,0.1s0,0,0,0.1v0.1v0.1l0,0v0.1l0,0v0.1l0,0c0,0,0,0,0,0.1c0,0,0,0,0,0.1v0.1l0,0v0.1
	L-433.3,364z"/>
<path class="st2" d="M-411,336.6L-411,336.6c0,0.1,0,0.1,0,0.1v0.1l0,0c0,0,0,0,0,0.1l0,0v0.1c0,0,0,0,0,0.1v0.1v0.1l0,0l0,0l0,0
	l0,0l0,0l0,0l0,0c0,0,0,0,0,0.1l0,0l0,0c0,0,0,0,0,0.1v0.1l0,0v0.1c0,0.1,0,0.1-0.1,0.2c-0.1,0.1,0,0,0,0.1l0,0
	c-0.1,0.4-0.3,0.7-0.6,1v0.1c-0.1,0.1-0.2,0.3-0.4,0.4l-5.9,5.9l-5.9-5.9c-0.9-0.9-1.3-2.1-1.2-3.3c0-0.1,0-0.2,0-0.2
	c0-0.1,0-0.3,0.1-0.4v-0.1l0,0l0,0v-0.1l0,0v-0.1v-0.1c0-0.1,0.1-0.2,0.1-0.3v-0.1v-0.1l0.1-0.1l0,0l0,0c0,0,0,0,0-0.1v-0.1v-0.1
	l0,0l0,0l0,0l0,0l0,0v-0.1l0.1-0.1l0,0l0,0V334v-0.1c0,0,0,0,0-0.1l0,0l0,0c0,0,0,0,0-0.1l0,0l0,0l0,0l0,0l0.1-0.1l0,0l0.1-0.1l0,0
	h0.1l0,0l0,0l0.1-0.1l0,0l0.2-0.1l0,0l0,0l0,0h0.1l0,0l0,0c0.1,0,0.1-0.1,0.2-0.1l0,0h0.1l0,0l0,0l0,0l0,0l0,0l0.2-0.1l0,0l0,0l0,0
	l0,0h0.1l0,0l0,0l0,0h0.1h0.1c0.1,0,0.2,0,0.2-0.1l0,0l0,0l0,0h0.1l0,0c0.1,0,0.2,0,0.2,0h0.6h0.2h0.1h0.1l0,0l0,0l0,0
	c0.1,0,0.2,0,0.2,0h0.1l0,0l0,0h0.1l0,0l0.2,0.1l0,0h0.1h0.1h0.1l0,0l0,0l0,0l0,0h0.1l0,0l0.1,0.1l0,0l0.1,0.1l0,0l0,0l0,0l0,0l0,0
	c0.1,0,0.1,0.1,0.2,0.1l0,0l0.1,0.1l0,0l0,0h0.1l0,0c0,0,0,0,0.1,0.1l0,0l0,0c0,0,0,0,0.1-0.1l0,0h0.1l0,0l0,0l0.1-0.1l0,0
	c0.1,0,0.1-0.1,0.2-0.1l0,0l0,0l0,0h0.1l0,0l0,0c0.1,0,0.1-0.1,0.2-0.1l0,0h0.1l0,0l0,0l0,0l0,0l0,0l0.2-0.1l0,0l0,0l0,0l0,0h0.1
	l0,0l0,0l0,0h0.1h0.1c0.1,0,0.2,0,0.2-0.1l0,0l0,0l0,0h0.1l0,0c0.1,0,0.2,0,0.2,0h0.6h0.2h0.1h0.1l0,0l0,0l0,0h0.2h0.1l0,0l0,0h0.1
	l0,0l0.2,0.1l0,0h0.1h0.1h0.1l0,0l0,0l0,0l0,0h0.1l0,0l0.1,0.1l0,0l0.1,0.1l0,0l0,0l0,0l0,0l0,0c0.1,0,0.1,0.1,0.2,0.1l0,0
	c0,0,0.1,0,0.1,0.1l0,0l0,0l0,0l0,0l0,0l0,0l0,0l0,0l0,0l0,0l0.1,0.1l0,0l0.1,0.1l0.1,0.1c0.1,0.1,0.2,0.2,0.2,0.3l0,0l0,0l0,0
	c0,0,0,0,0,0.1v0.1l0,0l0,0l0,0l0,0l0,0c0.1,0.1,0.1,0.2,0.1,0.3l0,0c0,0,0,0.1,0.1,0.1l0,0c0,0,0,0,0,0.1v0.1l0,0l0,0v0.1v0.1
	c0,0,0,0,0,0.1v0.1l0,0l0,0l0,0l0,0l0,0l0,0v0.1v0.1v0.1c0,0,0,0,0,0.1l0,0c0,0,0,0,0,0.1l0,0c0,0,0,0,0,0.1l0,0l0,0l0,0
	c0,0,0,0,0,0.1l0,0c0,0,0,0,0,0.1L-411,336.6z"/>
<path class="st3" d="M-411,336.6L-411,336.6c0,0.1,0,0.1,0,0.1v0.1l0,0c0,0,0,0,0,0.1l0,0v0.1c0,0,0,0,0,0.1v0.1v0.1l0,0l0,0l0,0
	l0,0l0,0l0,0l0,0c0,0,0,0,0,0.1l0,0l0,0c0,0,0,0,0,0.1v0.1l0,0v0.1c0,0.1,0,0.1-0.1,0.2c-0.1,0.1,0,0,0,0.1l0,0
	c0.1-0.3,0.1-0.7,0.1-1c0-0.4-0.1-0.7-0.1-1.1c-0.2-0.7-0.6-1.4-1.1-1.9c-0.2-0.2-0.5-0.4-0.7-0.6c-0.1,0-0.2-0.1-0.2-0.1
	c-1.3-0.7-2.8-0.7-4,0c-0.1,0.1-0.3,0.2-0.4,0.2c-0.2,0.1-0.4,0.3-0.5,0.5c-0.2-0.2-0.3-0.3-0.5-0.4l0,0c-0.1-0.1-0.3-0.2-0.4-0.3
	c-1.3-0.7-2.8-0.7-4,0c-0.2,0.1-0.4,0.2-0.6,0.4c-0.1,0.1-0.2,0.2-0.3,0.3c-0.2,0.2-0.3,0.3-0.5,0.5c-0.1,0.1-0.2,0.2-0.2,0.4l0,0
	c-0.1,0.1-0.1,0.2-0.2,0.4c0,0.1-0.1,0.1-0.1,0.2v-0.1l0,0l0,0v-0.1l0,0v-0.1v-0.1c0-0.1,0.1-0.2,0.1-0.3v-0.1v-0.1l0.1-0.1l0,0l0,0
	c0,0,0,0,0-0.1v-0.1v-0.1l0,0l0,0l0,0l0,0l0,0v-0.1l0.1-0.1l0,0l0,0v-0.1v-0.1c0,0,0,0,0-0.1l0,0l0,0c0,0,0,0,0-0.1l0,0l0,0l0,0l0,0
	l0.1-0.1l0,0l0.1-0.1l0,0h0.1l0,0l0,0l0.1-0.1l0,0l0.2-0.1l0,0l0,0l0,0h0.1l0,0l0,0c0.1,0,0.1-0.1,0.2-0.1l0,0h0.1l0,0l0,0l0,0l0,0
	l0,0l0.2-0.1l0,0l0,0l0,0l0,0h0.1l0,0l0,0l0,0h0.1h0.1c0.1,0,0.2,0,0.2-0.1l0,0l0,0l0,0h0.1l0,0c0.1,0,0.2,0,0.2,0h0.6h0.2h0.1h0.1
	l0,0l0,0l0,0c0.1,0,0.2,0,0.2,0h0.1l0,0l0,0h0.1l0,0l0.2,0.1l0,0h0.1h0.1h0.1l0,0l0,0l0,0l0,0h0.1l0,0l0.1,0.1l0,0l0.1,0.1l0,0l0,0
	l0,0l0,0l0,0c0.1,0,0.1,0.1,0.2,0.1l0,0l0.1,0.1l0,0l0,0h0.1l0,0c0,0,0,0,0.1,0.1l0,0l0,0c0,0,0,0,0.1-0.1l0,0h0.1l0,0l0,0l0.1-0.1
	l0,0c0.1,0,0.1-0.1,0.2-0.1l0,0l0,0l0,0h0.1l0,0l0,0c0.1,0,0.1-0.1,0.2-0.1l0,0h0.1l0,0l0,0l0,0l0,0l0,0l0.2-0.1l0,0l0,0l0,0l0,0
	h0.1l0,0l0,0l0,0h0.1h0.1c0.1,0,0.2,0,0.2-0.1l0,0l0,0l0,0h0.1l0,0c0.1,0,0.2,0,0.2,0h0.6h0.2h0.1h0.1l0,0l0,0l0,0h0.2h0.1l0,0l0,0
	h0.1l0,0l0.2,0.1l0,0h0.1h0.1h0.1l0,0l0,0l0,0l0,0h0.1l0,0l0.1,0.1l0,0l0.1,0.1l0,0l0,0l0,0l0,0l0,0c0.1,0,0.1,0.1,0.2,0.1l0,0
	c0,0,0.1,0,0.1,0.1l0,0l0,0l0,0l0,0l0,0l0,0l0,0l0,0l0,0l0,0l0.1,0.1l0,0l0.1,0.1l0.1,0.1c0.1,0.1,0.2,0.2,0.2,0.3l0,0l0,0l0,0
	c0,0,0,0,0,0.1v0.1l0,0l0,0l0,0l0,0l0,0c0.1,0.1,0.1,0.2,0.1,0.3l0,0c0,0,0,0.1,0.1,0.1l0,0c0,0,0,0,0,0.1v0.1l0,0l0,0v0.1v0.1
	c0,0,0,0,0,0.1v0.1l0,0l0,0l0,0l0,0l0,0l0,0v0.1v0.1v0.1c0,0,0,0,0,0.1l0,0c0,0,0,0,0,0.1l0,0c0,0,0,0,0,0.1l0,0l0,0l0,0
	c0,0,0,0,0,0.1l0,0c0,0,0,0,0,0.1L-411,336.6z"/>
<path class="st2" d="M-347.7,359.2L-347.7,359.2c0,0.1,0,0.1,0,0.1v0.1l0,0c0,0,0,0,0,0.1l0,0v0.1c0,0,0,0,0,0.1v0.1v0.1l0,0l0,0
	l0,0l0,0l0,0l0,0l0,0c0,0,0,0,0,0.1l0,0l0,0l0,0v0.1l0,0c0,0,0,0,0,0.1s0,0.1-0.1,0.2c0,0,0,0,0,0.1l0,0c-0.1,0.4-0.3,0.7-0.6,1v0.1
	c-0.1,0.1-0.2,0.3-0.4,0.4l-5.9,5.9l-5.9-5.9c-0.2-0.2-0.3-0.4-0.5-0.6c-0.1-0.1-0.2-0.3-0.2-0.4c-0.4-0.7-0.6-1.6-0.5-2.4
	c0-0.1,0-0.2,0-0.2c0-0.1,0-0.3,0.1-0.4v-0.1l0,0l0,0v-0.1l0,0v-0.1c0,0,0,0,0-0.1s0.1-0.2,0.1-0.3v-0.1v-0.1c0,0,0-0.1,0.1-0.1l0,0
	l0,0v-0.1v-0.1v-0.1l0,0l0,0l0,0l0,0v-0.1l0.1-0.1l0,0l0,0l0,0v-0.1v-0.1l0,0l0,0v-0.1l0,0l0,0l0,0l0,0l0.1-0.1l0,0c0,0,0,0,0.1-0.1
	l0,0c0,0,0,0,0.1-0.1l0,0l0,0l0.1-0.1l0,0c0.1,0,0.1-0.1,0.2-0.1l0,0l0,0l0,0h0.1l0,0l0,0l0.2-0.1l0,0h0.1l0,0l0,0l0,0l0,0l0,0
	l0.2-0.1l0,0l0,0l0,0l0,0h0.1l0,0l0,0l0,0h0.1h0.1c0.1,0,0.2,0,0.2-0.1l0,0l0,0l0,0h0.1l0,0h0.2h0.6h0.2h0.1h0.1l0,0l0,0l0,0
	c0.1,0,0.2,0,0.2,0.1h0.1l0,0l0,0h0.1l0,0l0.2,0.1l0,0h0.1h0.1h0.1l0,0l0,0l0,0l0,0h0.1l0,0l0.1,0.1l0,0l0.1,0.1l0,0l0,0l0,0l0,0
	l0,0l0.2,0.1l0,0l0.1,0.1l0,0l0,0l0.1,0.1l0,0l0.1,0.1l0,0l0,0l0.1-0.1l0,0l0.1-0.1l0,0l0,0l0.1-0.1l0,0c0.1,0,0.1-0.1,0.2-0.1l0,0
	l0,0l0,0h0.1l0,0l0,0l0.2-0.1l0,0h0.1l0,0l0,0l0,0l0,0l0,0l0.2-0.1l0,0l0,0l0,0l0,0h0.1l0,0l0,0l0,0h0.1h0.1c0.1,0,0.2,0,0.2-0.1
	l0,0l0,0l0,0h0.1l0,0h0.2h0.6h0.2h0.1h0.1l0,0l0,0l0,0c0.1,0,0.2,0,0.2,0.1h0.1l0,0l0,0h0.1l0,0l0.2,0.1l0,0h0.1h0.1h0.1l0,0l0,0
	l0,0l0,0h0.1l0,0l0.1,0.1l0,0l0.1,0.1l0,0l0,0l0,0l0,0l0,0l0.2,0.1l0,0l0.1,0.1l0,0l0,0l0,0l0,0l0,0l0,0l0,0l0,0l0,0l0,0l0.1,0.1
	l0,0c0,0,0,0,0.1,0.1l0.1,0.1c0.1,0.1,0.2,0.2,0.2,0.3l0,0l0,0l0,0c0,0,0,0,0,0.1v0.1l0,0l0,0l0,0l0,0l0,0c0.1,0.1,0.1,0.2,0.1,0.3
	l0,0c0,0,0,0.1,0.1,0.1l0,0c0,0,0,0,0,0.1v0.1l0,0l0,0v0.1v0.1c0,0,0,0,0,0.1v0.1l0,0l0,0l0,0l0,0l0,0l0,0v0.1v0.1v0.1v0.1l0,0
	c0,0,0,0,0,0.1s0,0,0,0s0,0,0,0.1l0,0l0,0l0,0c0,0,0,0,0,0.1l0,0c0,0,0,0,0,0.1L-347.7,359.2z"/>
<path class="st3" d="M-347.7,359.2L-347.7,359.2c0,0.1,0,0.1,0,0.1v0.1l0,0c0,0,0,0,0,0.1l0,0v0.1c0,0,0,0,0,0.1v0.1v0.1l0,0l0,0
	l0,0l0,0l0,0l0,0l0,0c0,0,0,0,0,0.1l0,0l0,0l0,0v0.1l0,0c0,0,0,0,0,0.1s0,0.1-0.1,0.2c0,0,0,0,0,0.1l0,0c0.1-0.3,0.1-0.7,0.1-1
	c0-1.4-0.7-2.7-1.9-3.5c-0.1,0-0.2-0.1-0.2-0.1c-1.3-0.7-2.8-0.7-4,0c-0.1,0.1-0.3,0.2-0.4,0.2c-0.2,0.1-0.4,0.3-0.5,0.5
	c-0.2-0.2-0.3-0.3-0.5-0.4l0,0c-0.1-0.1-0.3-0.2-0.4-0.3c-1.3-0.7-2.8-0.7-4,0c-0.2,0.1-0.4,0.2-0.6,0.4c-0.1,0.1-0.2,0.2-0.3,0.3
	c-0.2,0.2-0.3,0.3-0.5,0.5c-0.1,0.1-0.2,0.2-0.2,0.4l0,0c-0.1,0.1-0.1,0.2-0.2,0.4c0,0.1-0.1,0.1-0.1,0.2V358l0,0l0,0v-0.1l0,0v-0.1
	c0,0,0,0,0-0.1s0.1-0.2,0.1-0.3v-0.1v-0.1c0,0,0-0.1,0.1-0.1l0,0l0,0V357v-0.1v-0.1l0,0l0,0l0,0l0,0v-0.1l0.1-0.1l0,0l0,0l0,0v-0.1
	v-0.1l0,0l0,0v-0.1l0,0l0,0l0,0l0,0l0.1-0.1l0,0c0,0,0,0,0.1-0.1l0,0c0,0,0,0,0.1-0.1l0,0l0,0l0.1-0.1l0,0c0.1,0,0.1-0.1,0.2-0.1
	l0,0l0,0l0,0h0.1l0,0l0,0l0.2-0.1l0,0h0.1l0,0l0,0l0,0l0,0l0,0l0.2-0.1l0,0l0,0l0,0l0,0h0.1l0,0l0,0l0,0h0.1h0.1
	c0.1,0,0.2,0,0.2-0.1l0,0l0,0l0,0h0.1l0,0h0.2h0.6h0.2h0.1h0.1l0,0l0,0l0,0c0.1,0,0.2,0,0.2,0.1h0.1l0,0l0,0h0.1l0,0l0.2,0.1l0,0
	h0.1h0.1h0.1l0,0l0,0l0,0l0,0h0.1l0,0l0.1,0.1l0,0l0.1,0.1l0,0l0,0l0,0l0,0l0,0l0.2,0.1l0,0l0.1,0.1l0,0l0,0l0.1,0.1l0,0l0.1,0.1
	l0,0l0,0l0.1-0.1l0,0l0.1-0.1l0,0l0,0l0.1-0.1l0,0c0.1,0,0.1-0.1,0.2-0.1l0,0l0,0l0,0h0.1l0,0l0,0l0.2-0.1l0,0h0.1l0,0l0,0l0,0l0,0
	l0,0l0.2-0.1l0,0l0,0l0,0l0,0h0.1l0,0l0,0l0,0h0.1h0.1c0.1,0,0.2,0,0.2-0.1l0,0l0,0l0,0h0.1l0,0h0.2h0.6h0.2h0.1h0.1l0,0l0,0l0,0
	c0.1,0,0.2,0,0.2,0.1h0.1l0,0l0,0h0.1l0,0l0.2,0.1l0,0h0.1h0.1h0.1l0,0l0,0l0,0l0,0h0.1l0,0l0.1,0.1l0,0l0.1,0.1l0,0l0,0l0,0l0,0
	l0,0l0.2,0.1l0,0l0.1,0.1l0,0l0,0l0,0l0,0l0,0l0,0l0,0l0,0l0,0l0,0l0.1,0.1l0,0c0,0,0,0,0.1,0.1l0.1,0.1c0.1,0.1,0.2,0.2,0.2,0.3
	l0,0l0,0l0,0c0,0,0,0,0,0.1v0.1l0,0l0,0l0,0l0,0l0,0c0.1,0.1,0.1,0.2,0.1,0.3l0,0c0,0,0,0.1,0.1,0.1l0,0c0,0,0,0,0,0.1v0.1l0,0l0,0
	v0.1v0.1c0,0,0,0,0,0.1v0.1l0,0l0,0l0,0l0,0l0,0l0,0v0.1v0.1v0.1v0.1l0,0c0,0,0,0,0,0.1l0,0c0,0,0,0,0,0.1l0,0l0,0l0,0
	c0,0,0,0,0,0.1l0,0c0,0,0,0,0,0.1L-347.7,359.2z"/>
<linearGradient id="SVGID_1_" gradientUnits="userSpaceOnUse" x1="-251.2063" y1="493.8543" x2="-251.2063" y2="315.4406" gradientTransform="matrix(1 0 0 1 -142.33 -21.01)">
	<stop  offset="0" style="stop-color:#808080;stop-opacity:0.25"/>
	<stop  offset="0.54" style="stop-color:#808080;stop-opacity:0.12"/>
	<stop  offset="1" style="stop-color:#808080;stop-opacity:0.1"/>
</linearGradient>
<path class="st4" d="M-365.4,360.5L-365.4,360.5c-0.9-0.9-1.8-1.7-2.7-2.5c0.1-1.4,0.4-4.9,0.4-5.5c0-0.8-1.2-1.9-3.9-2.9
	c-2.6-1-1.9,3.6-1.8,4c0.1,0.4,0.6,1.7,1.6,2.1c0.4,0.1,0.5,0.3,0.4,0.5h-0.1c-2.2-0.3-3.2-0.8-3.2-0.8s-0.8,2.4-0.8,3.6
	c0,0.1,0,0.1,0,0.2c0,0.2,0,0.4,0.1,0.6h0.2c0,0.3,0,0.6-0.1,0.9l0,0c-0.1,0.2-0.2,0.4-0.3,0.7c-0.1-0.7-0.1-1.3-0.1-2
	c0-0.6-1-3.3-1-3.3s-0.4-0.2-1.3-1.2c-0.9-1-1.6-1.5-2.2-1.7s-2.8-3.1-3.7-3.8c-0.7-0.5-1-0.2-1.1-0.1h-0.1
	c-0.4-0.6-0.7-1.1-0.7-1.5c0-0.3,0-0.9,0.1-1.7c0.3,0.2,0.6,0.5,0.9,0.8c0.6,0.7,1.1,1.5,1.7,2.1c0.5,0.5,1.2,0.8,1.9,0.8
	c0.2,0,0.5,0,0.7-0.1c0.9-0.3,1.5-1.4,2.4-1.5c0.7,0,1.3,0.7,1.9,1.2c0.4,0.3,1,0.5,1.6,0.5c0.2,0,0.4,0,0.7-0.1
	c0.7-0.3,1.2-1.1,0.9-1.8c-0.5-1-2.2-0.8-2.9-1.7c-0.2-0.2-0.2-0.4-0.2-0.7c0.1-0.2,0.2-0.3,0.4-0.3c0.3,0,0.7,0.2,0.9,0.4
	c0.3,0.4,0.8,0.8,1.2,0.8c0.1,0,0.2,0,0.4-0.1c0-0.3,0-0.6,0-1c0.5,0.3,1,0.4,1.5,0.4c0.1,0,0.2,0,0.3,0c0.6-0.1,1.1-0.6,1-1.1
	c0.3,0.2,0.6,0.3,0.9,0.3c0.1,0,0.3,0,0.4-0.1c0.5-0.2,0.8-0.6,0.9-1.1c0-0.6-0.3-1.1-0.7-1.6l-1.8-2.4c-0.2-0.2-0.3-0.4-0.3-0.7
	c0.1-0.2,0.2-0.4,0.3-0.5c0.5-0.7,0.2-1.7-0.4-2.3c-0.6-0.6-1.5-0.8-2.3-0.8c-0.6,0-1.3,0.1-1.9-0.2c-0.4-0.3-0.6-0.8-0.7-1.3
	c-0.4-1.4-0.4-2.9-0.7-4.3c-0.3-1.4-0.8-2.9-2-3.8c-0.3-0.2-0.6-0.4-0.9-0.4c-0.3,0-0.6,0-0.9,0.1c-1,0.1-1.8-0.6-2.4-1.4
	c-0.6-0.8-1.1-1.6-1.8-2.3c-1-1-2.7-1.3-4.1-1c-0.6,0.2-1.1,0.7-1.8,0.7c-1,0-2-0.2-2.9-0.3c-0.9-0.1-1.8-0.2-2.7,0.1
	c-0.8,0.2-1.5,0.7-1.9,1.4l-0.2-1.9c0,0-0.5-3.6-0.7-3.9c-0.2-0.2-0.1-0.5,0-0.9l0,0c0-0.1,0.1-0.2,0.1-0.3c0-0.1,0-0.2,0-0.2
	c0.1-0.7-1.2-5.4-1.2-5.4h-1.2c0-0.1,0-0.1,0-0.2c-0.3-1.9-0.9-4.9-1.3-5.6c-0.3-0.5-0.3-1.2-0.2-1.8c0.1-0.7,0.1-1.4,0.1-2.1
	c0-0.3,0-0.7,0-1c0.1-0.5-0.2-1-0.6-1.3c-1.6-1.2-5.4-3.8-7.6-3.9c-2.9-0.1,0.9,4.9,0.9,5.4s2.9,0.9,2.9,0.9s0.2,1.5,0.3,2.3
	c0.1,0.6,0.3,4.8,0.4,7.3c-0.7-0.1-1.9-0.7-1.9-0.7s-3.3-0.9-3.6,0s4.1,5.2,4.1,5.2s1.5,4.1,1.1,5.4c-0.5,1.3-0.1,7.4-0.1,7.4
	s0,7.2,0.4,9.1c0.3,1.9-0.6,2.9-0.6,2.9s-0.4,4.5,0,5c0.4,0.5,0.7,1.1,1.1,1.7l0.1,0.2c-1.3,1.5-2.5,3-3.2,3.2c-1.3,0.4-10,4-10,4
	s-2.9,2.7-3.3,2.7s2.6,2.9,2.6,2.9s2.7,2.2,3,2.5s7.8,4.4,7.8,4.4s1.3,0.4,1.4,0.8c0.1,0.4,1.8,1.5,1.8,1.5s1.3,1.5,1.7,2.5
	c0,0.1,0,0.1,0,0.2c0,0.3,0,0.4,0.1,0.3c0.2,0.6,1.8,2.2,1,3.4c-0.3,0.5,0,1.5,0.7,2.3c-0.2,1-0.4,2.1-0.7,2.4
	c-0.5,0.7-0.3,1.7-0.8,1.8c-0.5,0.1-0.7,2.6-0.7,2.6l-0.4,5.5c0,0-0.1,1.1-0.7,1.4c-0.6,0.3,0,1.8,0,1.8s-0.7,1.3-0.3,2.1
	s-0.8,4.2-0.8,4.2s-0.5,6.6,0,7.6c0.5,0.9,0.7,1.9,0.8,2.9c0,0.6,0.3,11.3,0.3,11.3s-0.7,4.3-0.9,5.1c-0.2,0.8,0.6,2.6,0.1,3.5
	c-0.6,0.9-0.5,3-0.5,3s-0.9,8.1-0.3,11c0.5,3-0.2,3.6-0.2,3.6c0.4,0.2,0.7,0.4,1.1,0.5c0,0.1,0,0.2,0,0.4c0.3,2.5,0.7,6.8,0.3,7.8
	c-0.4,1-0.5,2.8-0.5,3.9c0,0.1,0,0.1,0,0.2l0,0l-1,1.6c0,0-0.2,1.4-0.5,1.6c-0.3,0.2-2.4,4.1-2.7,4.6v0.1c0,0-2.2,4,3.2,4.1
	c5.4,0.1,4.7-2.6,4.7-2.6s0-0.5,0.1-1.2c0.1-0.8,0.2-1.8,0.4-2c0.4-0.5,1.5-2.6,1.5-2.6v-3.2h-0.3c0-0.1,0-0.1,0-0.2
	c0-0.7,0.1-1.3,0.3-1.9c0.2-0.4-0.4-2.8-0.4-2.8s0.1-4.6,0.6-7.5c0-0.1,0-0.3,0.1-0.4c0.4-0.2,0.8-0.4,1.2-0.6c0,0,0-5.8,0.7-6.9
	c0.7-1,0.5-3.9,0.5-3.9s0.2-2.6,0.7-3.1s0.4-2.8,0.4-2.8s0.5-1.5,1-2.7s0.8-4.6,0.8-4.6c0.2-0.6,0.4-1.2,0.8-1.7
	c0.6-0.8,0-2.6,0-2.6s-0.6-1.1-0.2-2.3c0.4-1.1,2.6-10.4,2.6-10.4l0.9-3.3l1.3,4.2c0,0-0.2,3,0,3.9s1.4,2.7,1.4,2.7v9
	c0,0,0.1,6.1,0.6,7c0.5,1,0.7,4.6,0.7,4.6s1.5,10.6,0.6,12.1c0.5,0.3,1,0.6,1.6,0.9v6.2c0,0-1.1,3.8-0.7,6.3c0,0.1,0,0.1,0,0.2
	c-0.1,0.1-0.2,0.1-0.3,0.1l0.2,4.3c0,0,0,2.4-0.4,3.6c-0.2,0.4-0.2,0.9-0.3,1.4c-0.1,1.7,0.6,4,4.3,3.8c5-0.3,4.2-3.5,4.2-3.5
	s0-0.1,0-0.3c-0.1-1.6-0.5-3.2-1.2-4.7c-1.2-2.3-1-5.3-1-5.3c-0.1,0-0.2,0.1-0.3,0.1c0-0.1,0-0.1,0-0.2c0.1-0.8,0.2-1.8,0.3-2.3
	c0.2-0.9,0-2.9,0-2.9l0.6-6.3V447c0.3-0.1,0.6-0.3,0.9-0.5l0,0l0,0c-0.2-0.6-0.3-1.2-0.3-1.7c0-0.4,0.1-0.8,0.3-1.1
	c0.7-0.7,1.3-10.1,1.3-10.1s0.4-3.3,0.4-4.4c0-0.1,0-0.1,0-0.2c0-0.7-0.4-3.3-0.4-4.8c0-0.3,0-0.6,0.1-1c0.3-0.9,0.8-17,0.8-17
	l0.6-7.1v-5.9c0-2.8-0.3-5.6-1-8.3c1.6,0.8,4.2,2.6,4.7,2.1c0.6-0.6,0.9-10.9,0.7-11.9c0-0.1,0-0.1,0-0.2c0-0.2-0.1-0.4-0.2-0.7
	l0.2-0.4c1.2-2,3-5.2,3.1-6.2c0.2-1.1,0.4-3.9,0.8-5.1c0-0.1,0.1-0.2,0.1-0.3l0,0c0.1-0.2,0.2-0.3,0.3-0.3c0.7,0.2,1.2,0.7,1.6,0.5
	c0,0,0,0,0.1,0l0,0l0.1-0.1l0,0c0-0.1,0.1-0.1,0.1-0.2l0,0c0-0.1,0.1-0.1,0.1-0.2l0,0v-0.1l0,0v-0.1v-0.1l0,0
	c0.1-0.3,0.1-0.6,0.2-0.8c0-0.1,0-0.1,0-0.2L-365.4,360.5L-365.4,360.5z"/>
<linearGradient id="SVGID_2_" gradientUnits="userSpaceOnUse" x1="-261.788" y1="392.9482" x2="-261.788" y2="392.4464" gradientTransform="matrix(1 0 0 1 -142.33 -21.01)">
	<stop  offset="0" style="stop-color:#808080;stop-opacity:0.25"/>
	<stop  offset="0.54" style="stop-color:#808080;stop-opacity:0.12"/>
	<stop  offset="1" style="stop-color:#808080;stop-opacity:0.1"/>
</linearGradient>
<path class="st5" d="M-404.1,372c0-0.2,0-0.3-0.1-0.5C-404.1,371.9-404.1,372-404.1,372z"/>
<path class="st6" d="M-371.9,357.4c0,0,1-0.7,0-1.1s-1.6-1.7-1.6-2.1s-0.8-5,1.8-4s3.9,2,3.9,2.9s-0.5,6.1-0.5,6.1L-371.9,357.4z"/>
<path class="st0" d="M-365.4,361c0,0,0,0.1,0,0.3c-0.1,0.5-0.3,1.6-0.6,1.8c-0.4,0.2-0.9-0.3-1.6-0.5c-0.1,0-0.2,0.1-0.3,0.3
	c0,0.1-0.1,0.2-0.1,0.3c-0.4,1.2-0.6,4-0.8,5.1c-0.1,0.9-1.9,4.1-3.1,6.1c-0.2,0.3-0.3,0.6-0.5,0.8c-0.3,0.5-0.5,0.9-0.5,0.9l-3-5.5
	v-8.2c0.2-0.4,0.4-0.7,0.5-1.1l0,0c0.1-0.3,0.2-0.6,0.1-0.9c0-0.1-0.1-0.2-0.1-0.3c0,0,0-0.1-0.1-0.1c0,0,0,0,0-0.1s0-0.1,0-0.2
	s0-0.1,0-0.2c0-1.2,0.8-3.6,0.8-3.6s1,0.5,3.2,0.8C-369.3,357-365.4,361-365.4,361z"/>
<path class="st3" d="M-365.5,361.3c-0.1,0.5-0.3,1.6-0.6,1.8c-0.4,0.2-0.9-0.3-1.6-0.5c-0.1,0-0.2,0.1-0.3,0.3
	c0,0.1-0.1,0.2-0.1,0.3c-1.5-0.7-4-2-4.2-2.4c-0.2-0.4-1.9-0.4-3-0.5h-0.2c-0.1-0.2-0.1-0.4-0.1-0.6c0.1-1.2,0.8-3.4,0.8-3.4
	s1,0.5,3.2,0.8C-369.5,357.4-365.9,360.9-365.5,361.3z"/>
<path class="st0" d="M-365.4,361c0,0-0.2,1.9-0.6,2.1s-0.9-0.3-1.6-0.5c-0.1,0-0.2,0.1-0.3,0.3c-1.4-0.7-4.1-2.1-4.3-2.4
	s-2.2-0.5-3.1-0.5c-0.4-0.7,0.7-4,0.7-4s1,0.5,3.2,0.8C-369.3,357-365.4,361-365.4,361z"/>
<path class="st0" d="M-372.7,387.6c-0.6,0.6-4.5-2.3-5.5-2.5c-1.1-0.2-4.9-16.4-4.9-16.4l0.6-9.1l-2.3-8.4l-0.3-1.1
	c0,0,0.2-0.7,1.1,0c0.9,0.7,3.1,3.5,3.7,3.7c0.6,0.2,1.3,0.6,2.2,1.7s1.3,1.2,1.3,1.2s1,2.6,1,3.2s0.3,5,0.8,5.4s1.2,3.9,1.2,3.9
	s1.4,4.9,1.7,6.3c0,0.1,0,0.2,0,0.2C-371.8,376.8-372.1,387-372.7,387.6z"/>
<path class="st3" d="M-379.4,367.3l2.8,0.8c0,0,0.5,4.9,0.7,5.1c0.2,0.2,0.9,10.2,0.9,10.2l-4.4-2l-1.7-5.4v-5.9L-379.4,367.3z"/>
<path class="st6" d="M-400.4,446.3c-0.2,0.5-0.3,1.1-0.4,1.6c-0.5,2.9-0.6,7.5-0.6,7.5s0.5,2.4,0.4,2.8c-0.2,0.6-0.3,1.3-0.3,1.9
	c0,0.4-0.1,0.7-0.1,0.7l-5.2-0.3c0,0,0-0.3,0-0.8c0-1.1,0.1-2.9,0.5-3.9s0-5.3-0.3-7.8c-0.1-1.1-0.2-1.8-0.2-1.8
	S-399.5,444-400.4,446.3z"/>
<path class="st6" d="M-380,447.7l-0.6,6.2c0,0,0.2,2,0,2.8c-0.1,0.5-0.2,1.5-0.3,2.3c0,0.6-0.1,1.1-0.1,1.1s-4,2.8-4.9,0.3
	c-0.1-0.3-0.2-0.6-0.2-0.9c-0.4-2.6,0.7-6.3,0.7-6.3v-8l5.5,0.9L-380,447.7z"/>
<path class="st3" d="M-400.4,446.3c-0.2,0.5-0.3,1.1-0.4,1.6c-1.8,0.8-3.8,0.8-5.6,0.2c-0.1-1.1-0.2-1.8-0.2-1.8
	S-399.5,444-400.4,446.3z"/>
<path class="st3" d="M-379.9,446.2l-0.2,1.5c-1.9,0.9-4,0.3-5.4-0.3v-2.1L-379.9,446.2z"/>
<path class="st7" d="M-402.1,376.1c0,0-0.5,3.4-1,4c-0.5,0.7-0.3,1.7-0.8,1.8c-0.5,0.1-0.7,2.6-0.7,2.6l-0.4,5.5
	c0,0-0.1,1.1-0.7,1.4s0,1.8,0,1.8s-0.7,1.3-0.3,2c0.4,0.7-0.8,4.2-0.8,4.2s-0.5,6.6,0,7.5s0.7,1.9,0.8,2.9c0,0.6,0.3,11.2,0.3,11.2
	s-0.7,4.3-0.9,5.1s0.6,2.6,0.1,3.5s-0.5,3-0.5,3s-0.9,8-0.4,11s-0.2,3.6-0.2,3.6c2.5,1.3,5.6,1.2,8-0.3c0,0,0-5.8,0.7-6.8
	c0.7-1,0.6-3.9,0.6-3.9s0.2-2.6,0.7-3.1s0.4-2.8,0.4-2.8s0.5-1.5,1-2.7s0.8-4.6,0.8-4.6c0.2-0.6,0.4-1.1,0.8-1.7
	c0.6-0.8,0-2.6,0-2.6s-0.6-1.1-0.2-2.3c0.4-1.1,2.6-10.4,2.6-10.4l0.9-3.3l1.3,4.2c0,0-0.2,3,0,3.9c0.2,0.9,1.4,2.7,1.4,2.7v8.9
	c0,0,0.1,6,0.6,7s0.7,4.6,0.7,4.6s1.5,10.5,0.6,12.1c0,0,4.4,3.1,7.9,0.6c0,0-0.7-2.1,0-2.8c0.7-0.7,1.3-10,1.3-10s0.5-3.7,0.4-4.6
	s-0.6-4.9-0.3-5.7c0.3-0.9,0.8-16.9,0.8-16.9l0.6-7.1v-5.8c0-3.2-0.4-6.3-1.3-9.3c-1-3.4-2.3-7.3-3.4-7.5
	C-381.1,376.9-398.8,378.9-402.1,376.1z"/>
<path class="st3" d="M-401.3,460.1c0,0.4-0.1,0.7-0.1,0.7l-5.2-0.3c0,0,0-0.3,0-0.8c2.4-2.2,4.9,0.4,4.9,0.4L-401.3,460.1
	L-401.3,460.1z"/>
<path class="st7" d="M-401,460.3v3.2c0,0-1.1,2.1-1.5,2.6c-0.2,0.3-0.3,1.2-0.4,2c-0.1,0.6-0.1,1.2-0.1,1.2s0.7,2.7-4.7,2.6
	s-3.2-4.1-3.2-4.1v-0.1c0.3-0.5,2.4-4.4,2.7-4.6c0.2-0.2,0.5-1.6,0.5-1.6l1-1.6c2.4-2.2,4.9,0.4,4.9,0.4H-401z"/>
<path class="st3" d="M-402.9,469.3c0,0,0.7,2.7-4.7,2.6s-3.2-4.1-3.2-4.1v-0.1c0.1,0.8,0.8,1.6,2.8,1.5c2.7-0.1,4.4-0.8,5.1-1.2
	C-402.9,468.7-402.9,469.3-402.9,469.3z"/>
<path class="st3" d="M-380.9,459.1c0,0.6-0.1,1.1-0.1,1.1s-4,2.8-4.9,0.3c-0.1-0.3-0.2-0.6-0.2-0.9c0.1-0.1,0.2-0.1,0.2-0.2
	c0.7-1,4.1-1,4.3-0.5C-381.5,459.1-381.2,459.1-380.9,459.1z"/>
<path class="st7" d="M-382.6,472.9c-3.8,0.2-4.4-2.1-4.3-3.8c0-0.5,0.1-0.9,0.3-1.4c0.5-1.2,0.4-3.6,0.4-3.6l-0.2-4.3
	c0.1,0.1,0.5-0.3,0.5-0.3c0.7-1,4.1-1,4.3-0.5s1,0.1,1,0.1s-0.2,2.9,1,5.2c0.7,1.5,1.1,3,1.2,4.6c0,0.2,0,0.3,0,0.3
	S-377.6,472.6-382.6,472.9z"/>
<path class="st3" d="M-382.6,472.9c-3.8,0.2-4.4-2.1-4.3-3.8c0,0,1,1.7,4.4,1.3c1.4-0.1,2.8-0.6,4.1-1.3c0,0.2,0,0.3,0,0.3
	S-377.6,472.6-382.6,472.9z"/>
<g class="st8">
	<path d="M-378.7,381.1c-0.8-2.2-1.6-4-2.4-4.2l-0.7,0.1c0.7,0.4,1.5,2.1,2.2,4.1c1.6,4.5,2.3,9.2,2.3,14v4.5l-0.6,7.1
		c0,0-0.5,16.1-0.8,16.9s0.2,4.9,0.3,5.8c0.1,0.9-0.4,4.6-0.4,4.6s-0.5,9.3-1.3,10c-0.8,0.7,0,2.8,0,2.8c-0.8,0.6-1.7,0.9-2.7,1
		c1.3,0.1,2.5-0.2,3.5-1c0,0-0.7-2.1,0-2.8c0.7-0.7,1.3-10,1.3-10s0.5-3.7,0.4-4.6s-0.6-4.9-0.3-5.8c0.3-0.9,0.8-16.9,0.8-16.9
		l0.6-7.1v-4.5C-376.4,390.4-377.1,385.6-378.7,381.1z"/>
</g>
<g class="st8">
	<path d="M-406.5,447.3c0,0,0.7-0.6,0.2-3.6s0.3-11,0.3-11s-0.1-2,0.5-3c0.6-0.9-0.3-2.7-0.1-3.5c0.2-0.8,0.9-5.1,0.9-5.1
		s-0.3-10.6-0.3-11.2c-0.1-1-0.3-2-0.8-2.9s0-7.5,0-7.5s1.2-3.4,0.8-4.2c-0.4-0.8,0.3-2,0.3-2s-0.6-1.5,0-1.8s0.7-1.4,0.7-1.4
		l0.5-5.5c0,0,0.2-2.5,0.7-2.6s0.3-1.1,0.8-1.8c0.4-0.5,0.7-2.5,0.9-3.5c-0.3-0.1-0.7-0.3-0.9-0.5c0,0-0.5,3.4-1,4
		c-0.5,0.7-0.3,1.7-0.8,1.8c-0.5,0.1-0.7,2.6-0.7,2.6l-0.4,5.5c0,0-0.1,1.1-0.7,1.4c-0.6,0.3,0,1.8,0,1.8s-0.7,1.3-0.3,2
		s-0.8,4.2-0.8,4.2s-0.5,6.6,0,7.5s0.7,1.9,0.8,2.9c0,0.6,0.3,11.2,0.3,11.2s-0.7,4.3-0.9,5.1c-0.2,0.8,0.6,2.6,0.1,3.5
		s-0.5,3-0.5,3s-0.9,8-0.3,11c0.5,3-0.2,3.6-0.2,3.6c1.3,0.7,2.8,1,4.2,0.9C-404.4,448.1-405.5,447.8-406.5,447.3z"/>
</g>
<path class="st7" d="M-384.6,323c0.7,0.7,1.2,1.5,1.8,2.3s1.5,1.4,2.4,1.4c0.3,0,0.6-0.1,0.9-0.1c0.3,0,0.7,0.2,0.9,0.4
	c1.2,0.9,1.7,2.3,2,3.8c0.3,1.4,0.3,2.9,0.7,4.3c0.1,0.5,0.3,1,0.7,1.3c0.5,0.4,1.2,0.2,1.9,0.2c0.8,0,1.7,0.2,2.3,0.8
	c0.6,0.6,0.8,1.6,0.4,2.3c-0.1,0.1-0.2,0.3-0.3,0.5c0,0.3,0.1,0.5,0.3,0.7l1.8,2.4c0.4,0.5,0.7,1,0.7,1.6c-0.1,0.7-0.7,1.2-1.3,1.2
	c-0.3,0-0.7-0.2-0.9-0.4c0.2,0.6-0.4,1.2-1,1.3c-0.6,0.1-1.2-0.2-1.8-0.5v1c-0.5,0.3-1.1-0.3-1.5-0.7c-0.4-0.4-1.3-0.7-1.5-0.1
	c-0.1,0.2,0,0.5,0.2,0.7c0.7,0.9,2.4,0.7,2.9,1.7c0.3,0.7-0.2,1.5-0.9,1.8c-0.7,0.3-1.5,0-2.1-0.4c-0.6-0.4-1.2-1.2-2-1.2
	c-1,0-1.6,1.1-2.5,1.5c-0.9,0.3-1.8-0.1-2.5-0.7c-0.7-0.6-1.1-1.4-1.7-2.1c-1.6-1.8-4-2.4-6.2-3.2c-2.2-0.7-4.6-1.8-5.8-3.8
	c-0.4-0.6-0.6-1.3-1-1.9c-0.8-1-2-1.4-2.9-2.4c-0.9-1.1-1.2-2.6-0.6-3.9c0.4-0.8,1.1-1.5,1.6-2.2c0.9-1.3,1.4-2.8,1.5-4.4
	c0-0.6-0.1-1.2,0.1-1.8c0.3-0.8,1.1-1.4,2-1.6c0.9-0.2,1.8-0.1,2.7-0.1c0.9,0.1,2,0.3,2.9,0.3c0.6,0,1.1-0.5,1.8-0.7
	C-387.3,321.6-385.6,321.9-384.6,323z"/>
<g class="st8">
	<path d="M-377.1,330c0.3,1.4,0.3,2.9,0.7,4.3c0.1,0.3,0.2,0.7,0.4,1c0-0.1-0.1-0.2-0.1-0.3c-0.4-1.4-0.4-2.9-0.7-4.3
		c-0.1-0.9-0.4-1.7-0.9-2.5C-377.3,328.8-377.2,329.4-377.1,330z"/>
	<path d="M-371.1,338.9c-0.1,0.2-0.2,0.3-0.3,0.5c0,0.3,0.1,0.5,0.3,0.7c0,0,0,0.1,0.1,0.1v-0.1c0.1-0.2,0.2-0.4,0.3-0.5
		c0.4-0.6,0.3-1.5-0.2-2.1C-370.8,338-370.9,338.5-371.1,338.9z"/>
	<path d="M-373.6,348.6c0,0.6-0.4,1.2-0.9,1.4c-0.7,0.3-1.5,0-2.1-0.4c-0.6-0.4-1.2-1.2-2-1.2c-1,0-1.6,1.1-2.5,1.5
		c-0.9,0.3-1.8-0.1-2.5-0.7c-0.7-0.6-1.1-1.4-1.7-2.1c-1.6-1.8-4-2.4-6.2-3.2c-2.2-0.7-4.6-1.8-5.8-3.8c0.1,0.2,0.2,0.5,0.3,0.7
		c1.2,2.1,3.5,3.1,5.8,3.8c2.3,0.7,4.7,1.4,6.2,3.2c0.6,0.7,1.1,1.5,1.7,2.1c0.7,0.6,1.6,1.1,2.5,0.7c0.9-0.4,1.5-1.5,2.5-1.5
		c0.8,0,1.3,0.7,2,1.2c0.6,0.5,1.4,0.7,2.1,0.4c0.7-0.3,1.2-1.1,0.9-1.8C-373.4,348.8-373.5,348.7-373.6,348.6z"/>
	<path d="M-368.8,343.5c0.1,0.2,0.1,0.4,0.1,0.6c-0.1,0.7-0.7,1.2-1.4,1.2c-0.3,0-0.7-0.2-0.9-0.4c0.2,0.6-0.4,1.2-1,1.3
		c-0.6,0.1-1.2-0.2-1.8-0.5c0,0.3,0,0.7,0,1c-0.5,0.3-1.1-0.3-1.5-0.7c-0.4-0.4-1.3-0.7-1.5-0.1c-0.1,0.2,0,0.5,0.2,0.7
		c0,0.1,0.1,0.1,0.1,0.2v-0.1c0.2-0.5,1-0.3,1.5,0.1c0.4,0.4,1,1,1.5,0.7c0-0.3,0-0.7,0-1c0.6,0.3,1.2,0.5,1.8,0.5s1.2-0.7,1-1.3
		c0.5,0.5,1.2,0.6,1.8,0.1c0.3-0.2,0.4-0.5,0.4-0.9C-368.4,344.3-368.5,343.9-368.8,343.5z"/>
	<path d="M-398.3,338.1c-0.8-1-2-1.4-2.9-2.4c-0.1-0.1-0.2-0.3-0.3-0.4c0.1,0.4,0.4,0.8,0.7,1.1c0.8,0.9,2.1,1.4,2.9,2.4
		c0.1,0.1,0.2,0.3,0.3,0.4C-397.9,338.8-398.1,338.4-398.3,338.1z"/>
</g>
<path class="st6" d="M-393.3,337.5c0,0,0.6,6.9-2.2,9c-2.8,2.1,6.1,7.9,6.1,7.9l6.8-1.5c0,0-3.3-3.1-3.3-4.4s0.6-8.7,1.5-9.5
	C-383.5,338.2-393.3,337.5-393.3,337.5z"/>
<path class="st0" d="M-395.2,337.5l-1.5,3.4c0,0-2.3,1.4-2.5,1.5s-2,2.2-2,2.2l-4.5,2.9c0,0-0.1-0.2-0.3-0.5
	c-0.3-0.6-0.7-1.1-1.1-1.7c-0.4-0.4,0-5,0-5s0.9-1,0.6-2.9c-0.3-1.8-0.4-9.1-0.4-9.1s-0.3-6.1,0.1-7.3c0.5-1.3-1.1-5.3-1.1-5.3
	s-4.4-4.3-4.1-5.2c0.3-0.9,3.6,0,3.6,0s1.3,0.7,2,0.7c0.4,0,2.6,0,4.3,0h2c0,0,1.4,4.9,1.2,5.4c0,0.1-0.1,0.2-0.1,0.3
	c-0.1,0.4-0.2,0.7-0.1,1c0.2,0.3,0.7,3.9,0.7,3.9l0.5,3.9c0,0,0.7,3.1,0.7,3.5s-1.1,1.3-0.6,2.1c0.5,0.8,0.6,3.3,0.6,3.3
	s0.8,1.8,1.6,2.5C-395.4,337.4-395.3,337.5-395.2,337.5z"/>
<circle class="st3" cx="-388" cy="333.9" r="8.2"/>
<circle class="st6" cx="-388" cy="333.6" r="8.2"/>
<path class="st9" d="M-379.4,367.3c-0.7,0.8-0.9,8.6-0.5,9.3c0.4,0.7-2.2,2-3.7,2c-1.5-0.1-5.7,1.3-5.7,1.3s-8.4-2.3-10.2-1.1
	c-1.8,1.1-4.3-2-3.5-3.2c0.7-1.1-0.8-2.7-1-3.4c-0.1-0.3-0.1-0.5-0.1-0.8l0,0c-0.2-2.9-0.4-12-0.4-12v-10.5l7.7-5.5
	c1.2,0.6,2.4,1.3,3.6,2.1c0.8,0.5,1.6,1.1,2.3,1.8c2.1,2,7.3,4.1,7.3,4.1s5.8,6.9,6.5,7.6C-376.4,359.5-378.6,366.5-379.4,367.3z"/>
<path class="st3" d="M-404.6,359.3v-9.1c0,0,0.2,16.5,0.4,21.1C-404.4,368.4-404.6,359.3-404.6,359.3z"/>
<path class="st3" d="M-404.1,372c0.1,0.2,0.1,0.3,0.1,0.5C-404.1,372.5-404.1,372.4-404.1,372z"/>
<path class="st3" d="M-393.2,348.3c-0.5,0.5-0.9,1.1-1.2,1.7c-0.4,0.9-10.1,0.2-10.1,0.2v-1.5l7.7-5.5c1.2,0.6,2.4,1.3,3.6,2.1
	C-393.2,346.9-393.2,348.3-393.2,348.3z"/>
<path class="st3" d="M-404.1,371.3c0.1,0.2,0.1,0.3,0.1,0.5C-404.1,371.9-404.1,371.7-404.1,371.3z"/>
<path class="st3" d="M-395.2,337.5l-1.5,3.4c0,0-2.3,1.4-2.5,1.5s-2,2.2-2,2.2l-4.5,2.9c0,0-0.1-0.2-0.3-0.5
	c1.2-1.5,2.5-3.1,3.2-3.6c1.5-1.1,0-1.2,0-1.5s3.2-1.4,4.1-2.2c0.7-0.7,2.6-2,3.3-2.4C-395.4,337.4-395.3,337.5-395.2,337.5z"/>
<path class="st0" d="M-395.2,337.5c0,0-2.7,1.7-3.6,2.6c-0.9,0.8-4,2-4.1,2.2c0,0.2,1.5,0.3,0,1.5c-1.5,1.1-5,6.3-6.3,6.7
	s-10,4-10,4s-2.9,2.7-3.3,2.7c-0.4,0,2.6,2.9,2.6,2.9s2.7,2.2,3,2.5c0.3,0.3,7.8,4.4,7.8,4.4s1.3,0.4,1.4,0.8s1.8,1.5,1.8,1.5
	s1.9,2.2,1.7,3c-0.2,0.8-0.5-22.3-0.5-22.3s9.7,0.8,10.1-0.2c0.3-0.6,0.7-1.2,1.2-1.7c0,0,0-7.9-0.6-8.5
	C-394.3,338.9-395.2,338.2-395.2,337.5z"/>
<path class="st3" d="M-417.8,356.3c0,0,2.6,2.8,3.8,3.2c0.8,0.3,1.3,0.9,1.7,1.7c0,0,1.4,0.8,2.2,0.9s1.9,1.3,1.9,1.3
	s2.9,0.8,2.9,1.4s1.2,1.4,1.2,1.4l-0.3-16.4c0,0-4.8,0.6-6.1,2.6C-412.1,354.5-417.8,356.3-417.8,356.3z"/>
<path class="st3" d="M-412.2,357.8c0.2-0.1,6-7.6,6-7.6l1.1-0.2c0,0-2.8,4.1-2.7,4.5S-412.2,357.8-412.2,357.8z"/>
<path class="st3" d="M-409.8,360.3c0,0,1.5-3.5,2-4.1c0.4-0.6,2.7-4.6,2.7-4.6c0.1,0.3,0.1,0.7,0,1
	C-405.2,352.9-409.8,360.3-409.8,360.3z"/>
<path class="st3" d="M-399.5,333.8c0,0-3.4,6.2-3.1,6.5C-402.3,340.7-399.5,333.8-399.5,333.8z"/>
<path class="st3" d="M-398.3,336.3c0,0-2.8,4.1-2.6,4.1C-400.6,340.3-398.3,336.3-398.3,336.3z"/>
<path class="st6" d="M-400.9,312.8l-5.4,0.4c0,0,0-0.2,0-0.5c-0.1-1.8-0.3-8-0.5-8.7c-0.2-0.8-0.3-2.3-0.3-2.3s-2.9-0.4-2.9-0.9
	s-3.7-5.5-0.9-5.4c2.2,0.1,6,2.7,7.6,3.9c0.4,0.3,0.6,0.8,0.6,1.3c0,0.3-0.1,0.7,0,1c0,0.7,0,1.4-0.1,2.1c-0.1,0.6,0,1.3,0.2,1.8
	c0.4,0.7,1,3.7,1.3,5.5C-401,312.1-400.9,312.8-400.9,312.8z"/>
<path class="st3" d="M-398.7,316.9l-0.1,0.3c-1.2-1.2-8.5-1.9-8.5-1.9c-0.6-0.7-0.1-1.1,0.6-2c0.4-0.5,2.8-1.3,4.7-1.8h2
	C-399.9,311.5-398.5,316.4-398.7,316.9z"/>
<path class="st3" d="M-400.9,312.8l-5.4,0.4c0,0,0-0.2,0-0.5c0.8-0.5,2.7-1.1,4.3-1.5h0.8C-401,312.1-400.9,312.8-400.9,312.8z"/>
<path class="st0" d="M-398.7,316.8c0,0.1-0.1,0.2-0.1,0.3c-1.2-1.2-8.5-1.9-8.5-1.9c-0.6-0.7-0.1-1.1,0.6-2c0.4-0.5,2.8-1.3,4.7-1.8
	h2C-399.9,311.3-398.5,316.3-398.7,316.8z"/>
<path class="st3" d="M-394.1,359c0,0-0.6,11.5,0,12C-393.5,371.6-394.1,359-394.1,359z"/>
<path class="st3" d="M-389.8,363.9c0,0-0.2,12.6,0,12.8C-389.6,376.7-389.8,363.9-389.8,363.9z"/>
<path class="st3" d="M-384.9,365.3c0,0,0.8,8.7,1.5,9.1C-382.6,374.7-384.9,365.3-384.9,365.3z"/>
<path class="st3" d="M-372.2,375.7c-0.2,0-0.5-0.1-0.7-0.3c-0.7-0.5-1.5-5.5-2.6-6.2s-4.9-7.4-4.9-7.4s-1.5-2.7-2.1-3.4
	c-0.6-0.7-0.3-3.8-0.3-3.8s-1.6-1.8-2.3-3.4c-0.2-0.3-0.3-0.7-0.3-1.1c0,0,0.2-0.7,1.1,0s3.1,3.5,3.7,3.7c0.6,0.2,1.3,0.6,2.2,1.7
	c0.9,1,1.3,1.2,1.3,1.2s1,2.6,1,3.2s0.3,5,0.8,5.4s1.2,3.9,1.2,3.9S-372.5,374.3-372.2,375.7z"/>
<path class="st3" d="M-375.5,359.8c0-0.1,0-0.1,0-0.2c0,0.1,0,0.3,0,0.4C-375.5,359.9-375.5,359.8-375.5,359.8z"/>
<path class="st3" d="M-372,374.4c-0.2,0.3-0.3,0.6-0.5,0.8c-0.7-0.7-1.5-5.5-2.5-6.1c-0.4-0.3-0.7-0.7-0.9-1.1v-5.6
	c0.2-0.4,0.4-0.7,0.5-1.1c0.1,1.5,0.4,3.8,0.7,4.1c0.5,0.4,1.2,3.9,1.2,3.9S-372.5,372.4-372,374.4z"/>
<path class="st0" d="M-372,375.6c-0.2,0-0.5-0.1-0.7-0.3c-0.7-0.5-1.5-5.5-2.6-6.2c-1.1-0.7-4.9-7.4-4.9-7.4s-1.5-2.7-2.1-3.4
	c-0.6-0.7-0.3-3.8-0.3-3.8s-1.6-1.8-2.3-3.4c-0.2-0.3-0.3-0.7-0.3-1.1c0,0,0.2-0.7,1.1,0c0.9,0.7,3.1,3.5,3.7,3.7s1.3,0.6,2.2,1.7
	c0.9,1.1,1.3,1.2,1.3,1.2s1,2.6,1,3.2s0.3,5,0.8,5.4s1.2,3.9,1.2,3.9S-372.3,374.2-372,375.6z"/>
<circle class="st7" cx="-380.7" cy="359" r="0.6"/>
<circle class="st7" cx="-376.9" cy="364.2" r="0.6"/>
<path class="st3" d="M-372.5,362.7c0,0-2.8-1.3-2.4-0.6C-374.5,362.8-372.5,362.7-372.5,362.7z"/>
<path class="st3" d="M-372.5,364.5c0,0-2.8-0.8-2.2-0.3S-372.5,364.5-372.5,364.5z"/>
<path class="st3" d="M-373,366.6c0,0-1.9-1.4-1.5-0.9C-374,366.2-373,366.6-373,366.6z"/>
<path class="st3" d="M-371,368c0,0-2,3.9-1,4.1S-371,368-371,368z"/>
<path class="st3" d="M-398.9,431.3c0,0-4.5,4.3-3.2,4.2C-400.8,435.4-398.9,431.3-398.9,431.3z"/>
<path class="st3" d="M-405.2,437.2c0.2,0,4.8-0.5,3.6-0.7C-402.8,436.3-405.2,437.2-405.2,437.2z"/>
<path class="st3" d="M-383.1,430.6c0,0,4.8,0.2,4.7,0.7C-378.4,431.8-383.1,430.6-383.1,430.6z"/>
<path class="st3" d="M-383.9,432.5c0,0,2.8,2.1,3.4,1.4C-379.8,433.3-383.9,432.5-383.9,432.5z"/>
<path class="st6" d="M-397.2,402.3c0,0.2-0.1,0.3-0.2,0.4c0,0.1-0.1,0.1-0.1,0.1c-0.6,0.4-2,1.1-2.3,1.1c-0.1,0-0.5-0.2-1-0.3
	c-0.5-0.2-1.1-0.3-1.3-0.3s-0.3-0.4-0.4-0.7c0-0.3,0-0.6,0.1-0.7c0.1,0,0.1-0.1,0.1-0.2s0.1-0.2,0.1-0.2v-0.1c0.1-0.3,0.1-0.7,0.2-1
	c0-0.2,0-0.3,0.1-0.4c0-0.1,0-0.1,0-0.1l0,0l0,0h0.4h0.4c1,0,2.6-0.1,3.3,0c0.3,0.1,0.5,0.3,0.6,0.7c0.1,0.3,0.1,0.5,0.1,0.8
	C-397.1,401.7-397.2,402-397.2,402.3z"/>
<path class="st6" d="M-377.7,404.3C-377.7,404.3-377.7,404.4-377.7,404.3c0,0.6,0,1.1,0,1.2c0,0.2-5.9,1.8-7.4,1.7
	c-1-0.1-0.2-0.7,0.3-1.4c0.2-0.2,0.3-0.5,0.4-0.7c0-0.1,0-0.2,0-0.3c0-0.1-0.1-0.2-0.1-0.3l0,0c-0.1-0.6-0.1-0.8,0.1-1
	c0.1-0.1,0.2-0.2,0.2-0.4c0-0.1,0.1-0.3,0.1-0.4c0-0.3,0-0.6-0.2-0.8c-0.5-0.6,1.7-0.9,1.7-0.9h4.1c0.4,0,0.6,0.6,0.7,1.3l0,0
	c0,0.2,0.1,0.4,0.1,0.7c0,0.2,0,0.4,0,0.7C-377.7,403.9-377.7,404.1-377.7,404.3z"/>
<path class="st6" d="M-395.7,421.5c0,0-4.6,1.1-4.1,0.8c0.2-0.1,0.2-0.5,0.2-0.9c0-0.2,0-0.4-0.1-0.6c-0.1-0.5-0.1-0.9-0.1-0.9
	s2.4-0.5,3.2-0.3c0.3,0.1,0.6,0.4,0.6,0.7v0.1C-395.8,420.8-395.7,421.2-395.7,421.5z"/>
<path class="st3" d="M-392.2,331.3c0.6-0.2,1.2-0.6,1.8-0.9c0.6-0.3,1.3-0.4,1.9-0.2c0.3,0.1,0.6,0.3,0.8,0.6
	c0.5,0.5,1.1,0.9,1.6,1.5s1,1,1.6,1.5c1.4,0.9,3.2,0.7,4.8,0.4c0.3,0,0.7-0.1,1-0.3c0.7-0.4,1-1.3,0.8-2.1c-0.2-0.8-0.7-1.5-1.2-2.1
	c-1.6-1.7-3.5-3.2-5.6-4.1c-2.3-1-4.9-1.6-7.2-0.5c-0.7,0.3-1.3,0.8-1.9,1.3c-0.8,0.7-2.8,2.5-2.4,3.7
	C-395.7,331.4-393.4,331.7-392.2,331.3z"/>
<path class="st7" d="M-392.2,331.2c0.6-0.2,1.2-0.6,1.8-0.9c0.6-0.3,1.3-0.4,1.9-0.2c0.3,0.1,0.6,0.3,0.8,0.6
	c0.5,0.5,1.1,0.9,1.6,1.5s1,1,1.6,1.5c1.4,0.9,3.2,0.7,4.8,0.4c0.3,0,0.7-0.1,1-0.3c0.7-0.4,1-1.3,0.8-2.1c-0.2-0.8-0.7-1.5-1.2-2.1
	c-1.6-1.7-3.5-3.2-5.6-4.1c-2.3-1-4.9-1.6-7.2-0.5c-0.7,0.3-1.3,0.8-1.9,1.3c-0.8,0.7-2.8,2.5-2.4,3.7
	C-395.7,331.2-393.4,331.5-392.2,331.2z"/>
<path class="st3" d="M-378.7,333.4c-0.3,0.1-0.6,0.2-0.9,0.3c-1.6,0.3-3.4,0.4-4.8-0.4c-0.6-0.4-1.2-0.9-1.7-1.5
	c-0.5-0.5-1-1-1.6-1.5c-0.2-0.2-0.5-0.4-0.8-0.6c-0.6-0.2-1.3-0.1-1.9,0.2s-1.1,0.7-1.8,0.9c-1.2,0.4-3.4,0-3.9-1.3
	c0-0.1,0-0.1-0.1-0.2c0,0.2,0,0.4,0.1,0.5c0.5,1.3,2.8,1.7,3.9,1.3c0.6-0.2,1.2-0.6,1.8-0.9s1.3-0.4,1.9-0.2
	c0.3,0.1,0.6,0.3,0.8,0.6c0.5,0.5,1.1,0.9,1.6,1.5s1,1,1.6,1.5c1.4,0.9,3.2,0.7,4.8,0.4c0.3,0,0.7-0.1,0.9-0.3
	c0.6-0.3,0.9-1.1,0.9-1.8C-377.9,332.5-378.2,333.1-378.7,333.4z"/>
<path class="st3" d="M-401.8,400.1c-0.1,0.5-0.2,1-0.3,1.5C-402,401.1-401.9,400.6-401.8,400.1L-401.8,400.1z"/>
<path class="st3" d="M-397.5,402.9c-0.6,0.4-2,1.1-2.3,1.1c-0.2-0.1-1.9-0.6-2.3-0.6c-0.4-0.1-0.5-1.3-0.2-1.4
	c0.1,0,0.1-0.1,0.1-0.2c0,0.1-0.1,0.2-0.1,0.2c-0.3,0.7,0.3,1.3,0.3,1.3l2.4,0.6l2.2-1.2c0.5-0.7-0.1-2.4-0.4-2.7c-0.3-0.3-4,0-4,0
	l-0.1-0.1l0,0l0,0h0.4h0.4c1,0,2.6-0.1,3.3,0C-397,400.1-397,402.5-397.5,402.9z"/>
<path class="st3" d="M-378.6,401h-4.1c0,0-2.2,0.3-1.7,0.9s0.1,1.4-0.1,1.6c-0.2,0.2-0.2,0.4,0,1.3c0.2,0.9-2.2,2.3-0.7,2.4
	s7.4-1.5,7.4-1.7C-377.8,405.3-377.5,401-378.6,401z M-378,405.4c0,0.2-5.6,1.7-7,1.6c-1.4-0.1,0.9-1.5,0.7-2.3s-0.2-1,0-1.2
	s0.5-0.9,0.1-1.5s1.6-0.9,1.6-0.9h3.9C-377.7,401.2-378,405.2-378,405.4z"/>
<path class="st3" d="M-396.6,419.7c-0.9-0.2-3.2,0.3-3.2,0.3s0.5,2.1,0,2.4s4.1-0.8,4.1-0.8S-395.7,419.9-396.6,419.7z
	 M-399.7,422.3c0.4-0.3,0-2.3,0-2.3s2.3-0.5,3.1-0.3s0.8,1.8,0.8,1.8S-400.2,422.6-399.7,422.3L-399.7,422.3z"/>
<path class="st3" d="M-377.7,403.6l-6.8,0.8l0,0l6.8-1.5C-377.7,403.2-377.7,403.4-377.7,403.6z"/>
<polygon class="st7" points="-384.6,404.3 -377.5,402.8 -377.4,403.4 "/>
<path class="st3" d="M-377.7,404.3C-377.7,404.3-377.7,404.4-377.7,404.3l-7.2,1.4c0.2-0.2,0.3-0.5,0.4-0.7L-377.7,404.3z"/>
<polygon class="st7" points="-385.6,405 -377.1,404.1 -385.4,405.7 "/>
<path class="st3" d="M-377.8,402.3l-6.3,0.5c0,0.1,0,0.3-0.1,0.4L-377.8,402.3L-377.8,402.3z"/>
<polygon class="st7" points="-384.6,402.6 -377.4,402.1 -384.7,403 "/>
<path class="st3" d="M-397.1,401.4l-5,0.2c0.1-0.3,0.1-0.7,0.2-1l4.6,0.1C-397.2,400.8-397.1,401.1-397.1,401.4z"/>
<polygon class="st7" points="-402.5,400.3 -395.7,400.4 -396.5,401.2 -402.5,401.4 "/>
<path class="st3" d="M-397.2,402.3c0,0.2-0.1,0.3-0.2,0.4l-3.4,0.9c-0.5-0.2-1.1-0.3-1.3-0.3s-0.3-0.4-0.4-0.7L-397.2,402.3z"/>
<polygon class="st7" points="-403.4,402.5 -395.5,402.1 -402.7,404.1 "/>
<path class="st3" d="M-395.9,420.4l-3.7,1c0-0.2,0-0.4-0.1-0.6C-398.6,420.7-396.9,420.5-395.9,420.4L-395.9,420.4z"/>
<path class="st7" d="M-400.5,420.8c0.1-0.1,5.3-0.7,5.3-0.7l-5.3,1.4V420.8z"/>
<circle class="st0" cx="-316.4" cy="272.7" r="5.8"/>
<circle class="st0" cx="-290.6" cy="286.9" r="4.6"/>
<circle class="st1" cx="-316.4" cy="272.7" r="5.8"/>
<circle class="st1" cx="-290.6" cy="286.9" r="4.6"/>
<circle class="st0" cx="-480.7" cy="286.9" r="14.6"/>
<circle class="st1" cx="-480.7" cy="286.9" r="14.6"/>
<circle class="st0" cx="-291.9" cy="266.6" r="1.6"/>
<circle class="st1" cx="-291.9" cy="266.6" r="1.6"/>
<path class="st0" d="M-430.5,451.7c0,0,1.7,2.2-0.8,5.5s-4.4,6.1-3.6,8.1c0,0,3.7-6.1,6.7-6.2S-427.2,455.4-430.5,451.7z"/>
<path class="st3" d="M-430.5,451.7c0.1,0.2,0.3,0.4,0.3,0.7c2.9,3.4,4.5,6.6,1.7,6.7c-2.6,0.1-5.8,4.8-6.5,5.9
	c0,0.1,0.1,0.2,0.1,0.3c0,0,3.7-6.1,6.7-6.2C-425.2,459-427.2,455.4-430.5,451.7z"/>
<path class="st10" d="M-427.4,454.5c0,0.8-0.1,1.4-0.2,1.4s-0.2-0.6-0.2-1.4s0.1-0.4,0.2-0.4S-427.4,453.7-427.4,454.5z"/>
<path class="st10" d="M-426.3,455.4c-0.7,0.4-1.3,0.6-1.3,0.5s0.5-0.5,1.1-0.8c0.7-0.4,0.4-0.1,0.5,0
	C-425.9,455.2-425.7,455-426.3,455.4z"/>
<path class="st0" d="M-439.3,451.7c0,0-1.7,2.2,0.8,5.5c2.4,3.3,4.4,6.1,3.6,8.1c0,0-3.7-6.1-6.7-6.2
	C-444.6,459-442.6,455.4-439.3,451.7z"/>
<path class="st3" d="M-439.3,451.7c-0.1,0.2-0.3,0.4-0.3,0.7c-2.9,3.4-4.5,6.6-1.7,6.7c2.6,0.1,5.8,4.8,6.5,5.9
	c0,0.1-0.1,0.2-0.1,0.3c0,0-3.7-6.1-6.7-6.2C-444.6,459-442.6,455.4-439.3,451.7z"/>
<path class="st10" d="M-442.4,454.5c0,0.8,0.1,1.4,0.2,1.4s0.2-0.6,0.2-1.4s-0.1-0.4-0.2-0.4S-442.4,453.7-442.4,454.5z"/>
<path class="st10" d="M-443.5,455.4c0.7,0.4,1.3,0.6,1.3,0.5c0.1-0.1-0.5-0.5-1.1-0.8c-0.7-0.4-0.4-0.1-0.5,0
	S-444.2,455-443.5,455.4z"/>
<path class="st11" d="M-441.9,465c0,0,4.7-0.1,6.1-1.1c1.4-1,7.2-2.2,7.5-0.6c0.3,1.6,7,8,1.7,8s-12.2-0.8-13.6-1.7
	C-441.6,468.8-441.9,465-441.9,465z"/>
<path class="st12" d="M-426.5,470.8c-5.3,0-12.2-0.8-13.6-1.7c-1.1-0.7-1.5-3-1.6-4.1h-0.2c0,0,0.3,3.8,1.7,4.6
	c1.4,0.9,8.4,1.7,13.6,1.7c1.5,0,2-0.6,2-1.4C-424.7,470.5-425.3,470.8-426.5,470.8z"/>
<path class="st13" d="M-335.6,468.4c0,0-3-10.1,0.6-17.6c1.5-3.1,2-6.6,1.3-10c-0.3-1.6-0.8-3.2-1.4-4.7"/>
<path class="st0" d="M-333,431.4c0,1.2-2.2,4.8-2.2,4.8s-2.2-3.6-2.2-4.8c0-1.2,1.1-2.2,2.3-2.2C-334,429.2-333,430.2-333,431.4z"/>
<path class="st0" d="M-329.3,438.3c-0.7,1-4.5,2.8-4.5,2.8s0.1-4.2,0.7-5.3c0.7-1,2.1-1.3,3.1-0.7
	C-328.9,435.8-328.6,437.2-329.3,438.3L-329.3,438.3z"/>
<path class="st0" d="M-329.4,450c-1.1,0.6-5.3,0.2-5.3,0.2s2.2-3.6,3.3-4.2c1.1-0.6,2.5-0.1,3,1S-328.3,449.4-329.4,450L-329.4,450
	L-329.4,450z"/>
<path class="st0" d="M-331.6,458.9c-1,0.7-5.2,1.1-5.2,1.1s1.6-3.9,2.6-4.7c1-0.7,2.4-0.5,3.1,0.5
	C-330.4,456.7-330.6,458.1-331.6,458.9L-331.6,458.9z"/>
<path class="st0" d="M-338.5,441.3c0.9,0.9,5,1.8,5,1.8s-1-4.1-1.9-5c-0.9-0.9-2.3-0.9-3.2,0C-339.4,439-339.4,440.4-338.5,441.3
	L-338.5,441.3L-338.5,441.3z"/>
<path class="st0" d="M-340.9,451.7c1.1,0.6,5.3,0.2,5.3,0.2s-2.2-3.6-3.3-4.2c-1.1-0.5-2.5,0-3,1.1
	C-342.3,449.9-341.9,451.2-340.9,451.7z"/>
<path class="st0" d="M-341.8,462.1c1,0.7,5.2,1.1,5.2,1.1s-1.6-3.9-2.6-4.7c-1-0.7-2.4-0.5-3.1,0.5
	C-343,460-342.8,461.4-341.8,462.1L-341.8,462.1L-341.8,462.1z"/>
<path class="st0" d="M-333,431.4c0,1.2-2.2,4.8-2.2,4.8s-2.2-3.6-2.2-4.8c0-1.2,1.1-2.2,2.3-2.2C-334,429.2-333,430.2-333,431.4z"/>
<path class="st0" d="M-329.3,438.3c-0.7,1-4.5,2.8-4.5,2.8s0.1-4.2,0.7-5.3c0.7-1,2.1-1.3,3.1-0.7
	C-328.9,435.8-328.6,437.2-329.3,438.3L-329.3,438.3z"/>
<path class="st0" d="M-329.4,450c-1.1,0.6-5.3,0.2-5.3,0.2s2.2-3.6,3.3-4.2c1.1-0.6,2.5-0.1,3,1S-328.3,449.4-329.4,450L-329.4,450
	L-329.4,450z"/>
<path class="st0" d="M-331.6,458.9c-1,0.7-5.2,1.1-5.2,1.1s1.6-3.9,2.6-4.7c1-0.7,2.4-0.5,3.1,0.5
	C-330.4,456.7-330.6,458.1-331.6,458.9L-331.6,458.9z"/>
<path class="st0" d="M-338.5,441.3c0.9,0.9,5,1.8,5,1.8s-1-4.1-1.9-5c-0.9-0.9-2.3-0.9-3.2,0C-339.4,439-339.4,440.4-338.5,441.3
	L-338.5,441.3L-338.5,441.3z"/>
<path class="st0" d="M-340.9,451.7c1.1,0.6,5.3,0.2,5.3,0.2s-2.2-3.6-3.3-4.2c-1.1-0.5-2.5,0-3,1.1
	C-342.3,449.9-341.9,451.2-340.9,451.7z"/>
<path class="st0" d="M-341.8,462.1c1,0.7,5.2,1.1,5.2,1.1s-1.6-3.9-2.6-4.7c-1-0.7-2.4-0.5-3.1,0.5
	C-343,460-342.8,461.4-341.8,462.1L-341.8,462.1L-341.8,462.1z"/>
<path class="st11" d="M-342.7,467.8c0,0,3.6-0.7,4.6-1.7s5.3-2.6,5.8-1.4s6.5,5.3,2.4,6c-4.1,0.7-9.7,1-10.9,0.5
	C-342,470.6-342.7,467.8-342.7,467.8z"/>
<path class="st12" d="M-329.9,470.2c-4.1,0.7-9.7,1-10.9,0.5c-0.9-0.4-1.6-2.1-1.8-3h-0.1c0,0,0.7,2.9,1.9,3.4
	c1.2,0.5,6.8,0.2,10.9-0.5c1.2-0.2,1.5-0.7,1.4-1.3C-328.6,469.7-329,470-329.9,470.2z"/>
<path class="st2" d="M-470.6,270.2L-470.6,270.2c0,0.1,0,0.1,0,0.1v0.1l0,0v0.1l0,0l0,0v0.1v0.1v0.2v0.1l0,0c0,0,0,0,0,0.1l0,0l0,0
	c0,0,0,0,0,0.1c0,0,0,0,0,0.1l0,0v0.1l0,0c0,0,0,0,0,0.1c0,0,0,0,0,0.1v0.1l0,0v0.1c0,0.1-0.1,0.2-0.1,0.3v0.1l0,0
	c-0.2,0.5-0.5,1-0.8,1.4l-0.1,0.1c-0.2,0.2-0.3,0.4-0.5,0.6l-8.5,8.4l-8.4-8.4c-0.2-0.2-0.5-0.5-0.7-0.8c-0.1-0.2-0.2-0.4-0.3-0.5
	c-0.6-1-0.8-2.2-0.7-3.4c0-0.1,0-0.2,0-0.3c0-0.2,0.1-0.4,0.1-0.6v-0.1v-0.1l0,0v-0.1l0,0c0-0.1,0-0.1,0.1-0.2c0-0.1,0-0.1,0-0.1
	c0-0.1,0.1-0.2,0.1-0.4v-0.1v-0.1l0.1-0.2l0,0l0,0v-0.1v-0.1c0,0,0-0.1,0.1-0.1c0,0,0,0,0-0.1l0,0l0,0l0,0v-0.1c0,0,0,0,0-0.1
	l0.1-0.2v-0.1v-0.1l0.1-0.1l0.1-0.1l0.1-0.1l0,0l0,0c0,0,0-0.1,0.1-0.1l0,0l0,0v-0.1l0.1-0.1c0.1-0.1,0.1-0.1,0.2-0.2l0.1-0.1
	l0.1-0.1l0.1-0.1l0.1-0.1h0.1h0.1l0.1-0.1h0.1c0.1-0.1,0.2-0.1,0.3-0.2h0.1h0.1h0.1h0.1l0,0h0.1c0.1,0,0.2-0.1,0.2-0.1l0,0h0.1h0.1
	h0.1h0.1h0.1h0.1c0.1,0,0.2-0.1,0.2-0.1h0.1h0.1h0.1l0,0h0.1l0.1-0.1l0,0l0,0h0.1h0.1c0.1,0,0.2-0.1,0.3-0.1l0,0h0.1h0.1h0.1l0,0
	c0.1,0,0.2,0,0.3,0h0.1h0.8c0.1,0,0.2,0,0.3,0h0.1h0.1h0.1h0.1l0,0c0.1,0,0.2,0,0.3,0.1h0.1l0,0h0.1h0.1l0,0l0.2,0.1h0.1h0.1h0.1
	l0.1,0.1l0,0h0.1h0.1h0.1h0.1h0.1l0.1,0.1h0.1l0.2,0.1h0.1h0.1h0.1l0,0l0,0l0.2,0.2h0.1l0.1,0.1h0.1h0.1l0.1,0.1l0.1,0.1l0.1,0.1
	l0.1,0.1l0.1-0.1l0.1-0.1c0,0,0,0,0.1-0.1l0.1-0.1h0.1h0.1l0.1-0.1h0.1c0.1-0.1,0.2-0.1,0.3-0.2h0.1h0.1h0.1h0.1l0,0h0.1
	c0.1,0,0.2-0.1,0.2-0.1l0,0h0.1h0.1h0.1h0.1h0.1h0.1c0.1,0,0.2-0.1,0.2-0.1h0.1h0.1h0.1l0,0h0.1h0.1l0,0l0,0h0.1h0.1
	c0.1,0,0.2-0.1,0.3-0.1l0,0h0.1h0.1h0.1l0,0c0.1,0,0.2,0,0.3,0h0.1h0.8h0.3h0.1h0.1h0.1h0.1l0,0c0.1,0,0.2,0,0.3,0.1h0.1l0,0h0.1
	h0.1l0,0l0.2,0.1h0.1h0.1h0.1l0.1,0.1l0,0h0.1h0.1h0.1h0.1h0.1l0.1,0.1h0.1l0.2,0.1h0.1h0.1h0.1l0,0l0,0c0.1,0.1,0.2,0.1,0.2,0.2
	c0,0,0,0,0.1,0l0.1,0.1h0.1h0.1l0.1,0.1l0.1,0.1l0,0l0,0l0,0l0.1,0.1l0,0l0,0l0.1,0.1l0.1,0.1c0,0,0,0,0.1,0.1l0.1,0.1l0.1,0.1
	c0.1,0.1,0.2,0.3,0.3,0.4c0,0,0,0,0.1,0c0,0,0,0,0,0.1v0.1l0.1,0.1l0.1,0.1v0.1l0,0l0,0v0.1v0.1c0.1,0.2,0.1,0.3,0.2,0.5v0.1
	c0,0.1,0,0.1,0.1,0.2c0,0,0,0,0,0.1v0.1v0.1l0,0c0,0,0,0,0,0.1v0.1v0.1c0,0,0,0,0,0.1v0.1l0,0c0,0,0,0,0,0.1l0,0l0,0l0,0l0,0
	c0,0,0,0,0,0.1s0,0.1,0,0.1v0.1v0.1l0,0v0.1l0,0v0.1l0,0c0,0,0,0,0,0.1c0,0,0,0,0,0.1v0.1l0,0v0.1L-470.6,270.2z"/>
<path class="st3" d="M-470.6,270.2L-470.6,270.2c0,0.1,0,0.1,0,0.1v0.1l0,0v0.1l0,0l0,0v0.1v0.1v0.2v0.1l0,0c0,0,0,0,0,0.1l0,0l0,0
	c0,0,0,0,0,0.1c0,0,0,0,0,0.1l0,0v0.1l0,0c0,0,0,0,0,0.1c0,0,0,0,0,0.1v0.1l0,0v0.1c0,0.1-0.1,0.2-0.1,0.3v0.1l0,0
	c0.5-2-0.1-4.1-1.6-5.6c-0.3-0.3-0.6-0.6-1-0.8c-0.1-0.1-0.2-0.1-0.3-0.2c-2-1.1-4.5-1-6.3,0.4c-0.3,0.2-0.5,0.4-0.8,0.7
	c-0.2-0.2-0.5-0.4-0.7-0.6l0,0c-0.2-0.1-0.4-0.3-0.6-0.4c-1.8-1-3.9-1-5.7,0c-0.3,0.2-0.6,0.4-0.8,0.6c-0.4,0.3-0.8,0.8-1.1,1.2
	c-0.1,0.2-0.2,0.3-0.3,0.5l0,0c-0.1,0.2-0.2,0.3-0.3,0.5c0,0.1-0.1,0.2-0.1,0.3v-0.1v-0.1l0,0v-0.1l0,0c0-0.1,0-0.1,0.1-0.2
	s0-0.1,0-0.1c0-0.1,0.1-0.2,0.1-0.4v-0.1v-0.1l0.1-0.2l0,0l0,0v-0.1v-0.1c0,0,0-0.1,0.1-0.1c0,0,0,0,0-0.1l0,0l0,0l0,0v-0.1
	c0,0,0,0,0-0.1l0.1-0.2v-0.1v-0.1l0.1-0.1l0.1-0.1l0.1-0.1l0,0l0,0c0,0,0-0.1,0.1-0.1l0,0l0,0v-0.1l0.1-0.1c0.1-0.1,0.1-0.1,0.2-0.2
	l0.1-0.1l0.1-0.1l0.1-0.1l0.1-0.1h0.1h0.1l0.1-0.1h0.1c0.1-0.1,0.2-0.1,0.3-0.2h0.1h0.1h0.1h0.1l0,0h0.1c0.1,0,0.2-0.1,0.2-0.1l0,0
	h0.1h0.1h0.1h0.1h0.1h0.1c0.1,0,0.2-0.1,0.2-0.1h0.1h0.1h0.1l0,0h0.1h0.1l0,0l0,0h0.1h0.1c0.1,0,0.2-0.1,0.3-0.1l0,0h0.1h0.1h0.1
	l0,0c0.1,0,0.2,0,0.3,0h0.1h0.8c0.1,0,0.2,0,0.3,0h0.1h0.1h0.1h0.1l0,0c0.1,0,0.2,0,0.3,0.1h0.1l0,0h0.1h0.1l0,0l0.2,0.1h0.1h0.1
	h0.1l0.1,0.1l0,0h0.1h0.1h0.1h0.1h0.1l0.1,0.1h0.1l0.2,0.1h0.1h0.1h0.1l0,0l0,0l0.2,0.2h0.1l0.1,0.1h0.1h0.1l0.1,0.1l0.1,0.1
	l0.1,0.1l0.1,0.1l0.1-0.1l0.1-0.1c0,0,0,0,0.1-0.1l0.1-0.1h0.1h0.1l0.1-0.1h0.1c0.1-0.1,0.2-0.1,0.3-0.2h0.1h0.1h0.1h0.1l0,0h0.1
	c0.1,0,0.2-0.1,0.2-0.1l0,0h0.1h0.1h0.1h0.1h0.1h0.1c0.1,0,0.2-0.1,0.2-0.1h0.1h0.1h0.1l0,0h0.1h0.1l0,0l0,0h0.1h0.1
	c0.1,0,0.2-0.1,0.3-0.1l0,0h0.1h0.1h0.1l0,0c0.1,0,0.2,0,0.3,0h0.1h0.8h0.3h0.1h0.1h0.1h0.1l0,0c0.1,0,0.2,0,0.3,0.1h0.1l0,0h0.1
	h0.1l0,0l0.2,0.1h0.1h0.1h0.1l0.1,0.1l0,0h0.1h0.1h0.1h0.1h0.1l0.1,0.1h0.1l0.2,0.1h0.1h0.1h0.1l0,0l0,0c0.1,0.1,0.2,0.1,0.2,0.2
	c0,0,0,0,0.1,0l0.1,0.1h0.1h0.1l0.1,0.1l0.1,0.1l0,0l0,0l0,0l0.1,0.1l0,0l0,0l0.1,0.1l0.1,0.1c0,0,0,0,0.1,0.1l0.1,0.1l0.1,0.1
	c0.1,0.1,0.2,0.3,0.3,0.4c0,0,0,0,0.1,0c0,0,0,0,0,0.1v0.1l0.1,0.1l0.1,0.1v0.1l0,0l0,0v0.1v0.1c0.1,0.2,0.1,0.3,0.2,0.5v0.1
	c0,0.1,0,0.1,0.1,0.2c0,0,0,0,0,0.1v0.1v0.1l0,0c0,0,0,0,0,0.1v0.1v0.1c0,0,0,0,0,0.1v0.1l0,0c0,0,0,0,0,0.1l0,0l0,0l0,0l0,0
	c0,0,0,0,0,0.1s0,0.1,0,0.1v0.1v0.1l0,0v0.1l0,0v0.1l0,0c0,0,0,0,0,0.1c0,0,0,0,0,0.1v0.1l0,0v0.1L-470.6,270.2z"/>
</svg>
