<?xml version="1.0" encoding="utf-8"?>
<!-- Generator: Adobe Illustrator 19.0.0, SVG Export Plug-In . SVG Version: 6.00 Build 0)  -->
<svg version="1.1" id="Layer_1" xmlns="http://www.w3.org/2000/svg" xmlns:xlink="http://www.w3.org/1999/xlink" x="0px" y="0px"
	 viewBox="0 0 709 604" style="enable-background:new 0 0 709 604;" xml:space="preserve">
<style type="text/css">
	.st0{fill:none;}
	.st1{fill:#2D94D1;}
	.st2{fill:#818285;}
</style>
<rect id="XMLID_12_" x="-257" y="-210" class="st0" width="1200" height="1000"/>
<g id="XMLID_858_">
	<g id="XMLID_917_">
		<path id="XMLID_939_" class="st1" d="M363,392.6c-101.7,0-184.1-82.4-184.1-184.1S261.3,24.5,363,24.5c36.3,0,70.2,10.6,98.7,28.7
			C427,24.7,382.6,7.6,334.3,7.6c-111,0-200.9,90-200.9,200.9c0,111,90,200.9,200.9,200.9c48.4,0,92.7-17.1,127.4-45.5
			C433.1,382.1,399.3,392.6,363,392.6z"/>
		<path id="XMLID_938_" class="st2" d="M344.4,58.7c82.8,0,149.9,67.1,149.9,149.9s-67.1,149.9-149.9,149.9
			c-29.6,0-57.1-8.6-80.4-23.4c28.2,23.2,64.3,37.1,103.7,37.1c90.3,0,163.6-73.2,163.6-163.6c0-90.3-73.2-163.6-163.6-163.6
			c-39.4,0-75.5,13.9-103.7,37.1C287.3,67.3,314.9,58.7,344.4,58.7z"/>
		<path id="XMLID_930_" class="st1" d="M353.3,252c-2.3-2-3.4-4.7-3.8-7.5c-0.4-2.8-0.1-5.6,0.6-8.3c0.6-2.7,1.7-5.2,2.8-7.6
			c1.2-2.4,2.5-4.7,4-6.9c1.4-2.2,3-4.3,4.6-6.4c1.6-2,3.3-4.1,5-6c1.7-2,3.5-3.8,5.3-5.7c1.8-1.8,3.7-3.7,5.5-5.5
			c1.9-1.8,3.8-3.6,5.7-5.3c1.9-1.7,3.9-3.5,5.8-5.1c2-1.6,4-3.3,6-4.9l6.1-4.8l6.2-4.7c2-1.6,4.1-3.1,6.2-4.6
			c2.1-1.5,4.2-3.1,6.3-4.5l6.3-4.4l9.9-6.9l1.5,12.4c0.6,5.2,1,9.9,1.2,14.9c0.2,4.9,0.3,9.8,0.3,14.7c-0.1,9.8-0.7,19.7-2,29.6
			c-0.6,4.9-1.4,9.9-2.5,14.9c-1.1,4.9-2.3,9.9-3.9,14.8c-1.6,4.9-3.5,9.7-5.9,14.4c-2.3,4.7-5,9.3-8.2,13.6
			c-3.2,4.3-6.8,8.4-10.9,12c-4.1,3.7-8.6,6.8-13.3,9.5c-4.8,2.6-9.8,4.9-14.9,6.4c-5.1,1.6-10.4,2.6-15.6,3.1
			c-5.2,0.5-10.4,0.5-15.5,0.2c-5.1-0.4-10.1-1.1-14.9-2.2c-4.9-1-9.6-2.5-14.2-4c-2.3-0.8-4.6-1.8-6.8-2.6c-2.2-1-4.5-2-6.6-3
			l0.6-2.1c2.4,0.1,4.8,0.3,7.2,0.5c2.4,0.1,4.7,0.3,7.1,0.4c4.7,0.2,9.4,0.2,14,0.1c4.6-0.1,9.1-0.5,13.5-1
			c4.4-0.6,8.7-1.4,12.9-2.5c4.1-1.2,8.1-2.6,11.9-4.3c3.8-1.7,7.3-3.8,10.6-6.1c3.3-2.3,6.4-5,9.2-7.9c2.8-2.9,5.4-6.1,7.8-9.4
			c2.4-3.4,4.6-6.9,6.6-10.7c2-3.8,3.8-7.6,5.5-11.7c1.7-4,3.2-8.2,4.5-12.4c1.3-4.3,2.5-8.6,3.4-13c2-8.8,3.1-17.9,3.8-27.1
			c0.3-4.6,0.5-9.2,0.6-13.8c0-4.5,0-9.3-0.3-13.6l11.5,5.6c-4.3,2.5-8.7,5-13,7.6c-2.1,1.3-4.3,2.5-6.5,3.9l-6.4,4l-6.3,4.1
			c-2.1,1.4-4.1,2.8-6.2,4.2c-2.1,1.4-4.1,2.9-6.1,4.3c-2.1,1.4-4,3-6,4.5c-2,1.5-3.9,3.1-5.8,4.7c-1.9,1.6-3.8,3.2-5.6,4.9
			c-1.9,1.7-3.6,3.4-5.4,5.1c-1.7,1.8-3.4,3.6-4.9,5.5c-1.6,1.9-3,3.8-4.3,5.9c-1.2,2.1-2.5,4.1-3.3,6.4c-0.8,2.2-1.4,4.5-1.4,6.8
			c0,1.1,0.2,2.3,0.5,3.3c0.3,1,0.9,2.1,1.6,2.8L353.3,252z"/>
		<path id="XMLID_922_" class="st1" d="M357.3,262.4c-1.4-2.3-3.1-4.6-4.8-6.8c-1.7-2.2-3.6-4.4-5.4-6.5c-1.9-2.1-3.7-4.2-5.7-6.3
			l-2.9-3.1l-3-3l-3-3l-3.1-2.9c-2.1-1.9-4.1-3.9-6.2-5.8l-6.3-5.7l-6.4-5.6c-4.2-3.7-8.7-7.2-13-10.9l-6.6-5.3
			c-2.2-1.8-4.4-3.5-6.6-5.3l-6.7-5.1c-2.3-1.7-4.5-3.5-6.8-5.1L257.2,172l12.2-4.6c-0.4,2.9-0.7,6.3-0.9,9.4
			c-0.2,3.2-0.4,6.4-0.5,9.6c-0.1,3.2-0.1,6.4,0,9.6c0,3.2,0.3,6.4,0.5,9.6c0.2,3.2,0.6,6.3,1,9.5c0.4,3.1,0.9,6.3,1.4,9.3
			c0.2,1.5,0.5,3.1,0.8,4.6c0.2,1.5,0.5,3.1,0.8,4.6c0.6,3,1.2,6,1.9,9c1.4,5.9,2.9,11.8,4.9,17.4c1,2.8,2.1,5.5,3.3,8.2
			c1.3,2.7,2.6,5.3,4.2,7.8c1.5,2.5,3.2,5,5.1,7.3c1.9,2.3,3.9,4.6,6.1,6.8c2.2,2.1,4.6,4.2,7.2,6.1c2.6,2,5.4,3.7,8.2,5.5l-0.6,2.1
			c-3.5,0-7-0.5-10.5-1.2c-3.4-0.9-6.9-1.9-10.3-3.4c-3.3-1.5-6.6-3.4-9.6-5.5c-3.1-2.1-5.9-4.6-8.5-7.2c-2.6-2.7-5.1-5.5-7.2-8.6
			c-2.2-3-4.1-6.2-5.9-9.5c-3.4-6.5-6.1-13.4-8-20.4c-0.9-3.5-1.7-7-2.2-10.5c-0.3-1.8-0.5-3.5-0.7-5.3c-0.2-1.8-0.3-3.5-0.4-5.3
			c-0.3-3.5-0.3-7-0.3-10.5c0-3.5,0.1-7,0.3-10.5c0.1-3.5,0.4-6.9,0.7-10.4c0.3-3.4,0.6-6.9,1-10.3c0.4-3.4,0.8-6.8,1.4-10.2
			c0.5-3.4,1.1-6.7,1.9-10.3l2.7-12.8l9.5,8.2l13,11.2c2.2,1.9,4.3,3.9,6.4,5.8l6.4,5.8c2.1,1.9,4.2,3.9,6.3,5.9l6.2,5.9
			c4.1,4.1,8.2,8.1,12.1,12.3l5.9,6.2l5.8,6.4c2,2.1,3.8,4.3,5.7,6.5l2.8,3.3l2.7,3.4l2.7,3.4l2.6,3.4c1.8,2.3,3.4,4.6,5.1,7
			c1.6,2.4,3.2,4.8,4.7,7.3c1.5,2.5,2.9,5,4.1,7.7L357.3,262.4z"/>
		<path id="XMLID_919_" class="st1" d="M312.3,201.9c-1.6-2.2-3-4.5-4.2-6.8c-1.3-2.4-2.4-4.8-3.5-7.2c-1-2.5-2-5-2.8-7.6
			c-0.8-2.6-1.5-5.2-2.1-7.9c-0.3-1.3-0.6-2.7-0.8-4c-0.2-1.3-0.4-2.7-0.6-4.1c-0.2-1.4-0.3-2.7-0.4-4.1c-0.1-1.4-0.2-2.7-0.2-4.1
			c-0.1-2.8,0.1-5.5,0.3-8.3l0.4-4.1l0.7-4.1c0.2-1.4,0.6-2.7,0.9-4.1c0.3-1.4,0.6-2.7,1-4.1c0.4-1.3,0.8-2.7,1.2-4l1.4-3.9
			c0.4-1.3,1.1-2.6,1.6-3.9c0.6-1.3,1.1-2.6,1.7-3.8c1.3-2.5,2.5-5,3.9-7.4c1.4-2.4,2.9-4.7,4.5-7c1.5-2.4,3.3-4.5,5-6.7
			c1.7-2.2,3.6-4.2,5.3-6.4l5.7-6l5.4-5.8l6.5,6c2.1,1.9,3.9,3.7,5.7,5.6c1.8,1.9,3.7,3.7,5.5,5.6c3.7,3.8,7.2,7.6,10.7,11.6
			c3.4,4,6.7,8.2,9.5,12.7c2.9,4.5,5.5,9.2,7.7,14.2c2.2,5,4.1,10.2,5.4,15.7c0.6,2.8,1.2,5.5,1.5,8.4c0.3,2.9,0.4,5.8,0.3,8.8
			c-0.1,2.9-0.6,5.9-1.3,8.8c-0.8,2.9-1.9,5.7-3.4,8.3c-1.5,2.6-3.3,4.9-5.4,6.9c-2.1,1.9-4.4,3.5-6.9,4.7l-1.4-1.6
			c1.3-2.3,2.3-4.5,3.1-6.7c0.7-2.2,1.2-4.4,1.4-6.6c0.4-4.3-0.1-8.5-1.2-12.7c-1.1-4.2-2.7-8.3-4.6-12.3c-1.9-4.1-4.1-8.1-6.5-12.1
			c-2.4-4-4.9-8-7.4-12c-2.6-4-5.1-8.1-7.7-12.1c-2.6-4.1-5.3-8.1-8.2-12.1c-1.4-2-2.9-3.9-4.4-5.8c-1.5-1.9-3.1-3.8-4.6-5.5
			l11.9,0.3l-5.5,4.9c-1.7,1.7-3.6,3.4-5.2,5.2c-1.6,1.8-3.4,3.6-4.9,5.5c-1.6,1.9-3.1,3.8-4.5,5.8c-1.5,1.9-2.8,4-4.2,6
			c-0.7,1-1.2,2.1-1.9,3.1c-0.6,1.1-1.3,2.1-1.8,3.2l-1.6,3.3c-0.5,1.1-1,2.2-1.4,3.4c-0.5,1.1-0.9,2.3-1.3,3.4
			c-0.4,1.2-0.9,2.3-1.2,3.5l-1,3.5l-0.8,3.6c-0.5,2.4-0.9,4.8-1.2,7.3c-0.2,1.2-0.2,2.5-0.3,3.7c-0.1,1.2-0.1,2.5-0.1,3.7
			c0,1.2,0,2.5,0,3.7c0,1.3,0.1,2.5,0.2,3.8c0.2,2.5,0.5,5,0.9,7.5c0.4,2.5,1,5,1.6,7.5c0.6,2.5,1.4,4.9,2.2,7.3
			c0.9,2.4,1.9,4.8,3,7L312.3,201.9z"/>
		<circle id="XMLID_918_" class="st2" cx="342.2" cy="311.8" r="29.4"/>
	</g>
	<g id="XMLID_857_">
		<g id="XMLID_879_">
			<g id="XMLID_8_">
				<g id="XMLID_262_">
					<g id="XMLID_15_">
						<path id="XMLID_280_" class="st1" d="M25.1,551.7c-7.5-3.5-14-8.6-19.3-15.4l15.6-19.7c3.3,8.8,7.9,16.1,13.8,21.7
							c5.9,5.7,12.8,8.4,20.8,8.2c6.9-0.1,12.3-2.4,16.3-6.9c4-4.4,5.9-9.9,5.8-16.6c-0.1-5.8-1.6-10.6-4.6-14.4
							c-2.9-3.8-6.5-7-10.7-9.3c-4.2-2.4-9.9-5.1-17.1-8.2c-7.3-3.2-13.1-6-17.5-8.5c-4.4-2.4-8.1-5.7-11.1-9.9
							c-3-4.1-4.6-9.2-4.8-15.2c-0.2-10.6,3.4-18.9,10.7-25c7.4-6.1,17.1-9.2,29.1-9.5c8.3-0.2,16.3,1.4,23.9,4.6
							c7.7,3.3,13.7,7.9,18,13.8l-15.1,18.2c-3.6-8.6-8.2-15.4-13.9-20.5c-5.7-5.1-11.8-7.5-18.3-7.4c-4.9,0.1-8.9,1.7-11.9,4.8
							c-3,3.1-4.5,6.7-4.4,10.7c0.1,4,1.4,7.5,3.8,10.5c2.5,3,5.6,5.6,9.4,7.7c3.8,2.1,8.8,4.7,15.2,7.5c8.1,3.8,14.8,7.2,19.9,10.3
							c5.1,3.1,9.5,7.2,13.2,12.3c3.7,5.1,5.6,11.3,5.7,18.7c0.2,7.8-1.8,14.9-5.9,21.3c-4.1,6.3-9.9,11.4-17.3,15.1
							c-7.4,3.7-15.6,5.7-24.6,5.9C40.9,556.8,32.6,555.2,25.1,551.7z"/>
						<path id="XMLID_278_" class="st1" d="M181.9,475c1.7,2.2,2.8,4.8,3.3,7.8c0.4,3,0.7,6.8,0.7,11.5v45.4c0,1.3,0.4,2.5,1.2,3.7
							c0.8,1.1,1.8,1.7,3,1.7c1.6,0,3.1-0.5,4.3-1.6c1.3-1,2.6-2.4,4-4.2l2.8,3.1c-2,3.8-4.7,7-8.1,9.6c-3.4,2.6-7.1,3.8-11,3.8
							c-5.2,0-9.1-1.5-11.8-4.5c-2.6-3-3.9-7.2-3.9-12.7v-42.8c0-1.5-0.2-2.8-0.5-3.9c-0.3-1.1-1.1-1.6-2.3-1.6
							c-3.7,0-7.5,3.9-11.3,11.8c-3.8,7.9-7,17-9.6,27.2c-2.6,10.2-3.9,18-3.9,23.2l-19.1,4.2v-68.6c0-1.6-0.4-3-1.1-4.1
							c-0.8-1.1-1.9-1.6-3.3-1.6c-1.5,0-3,0.6-4.5,1.9c-1.5,1.3-2.7,2.7-3.7,4.3l-2.9-3.3c1.6-3.8,4.2-7.1,7.7-9.8
							c3.5-2.7,7.2-4.1,11.3-4.1c5.4,0,9.4,1.5,11.9,4.5c2.5,3,3.8,7.2,3.8,12.5v31.5h0.7c2.9-12.1,7.3-23.2,13.1-33.3
							c5.8-10.1,12.8-15.2,21-15.2C177.4,471.6,180.2,472.7,181.9,475z"/>
						<path id="XMLID_276_" class="st1" d="M252,475c-7.2,5.1-12.8,10.9-16.9,17.4c-4.1,6.5-6.1,14.1-6.1,22.8
							c0,4.8,0.9,9.6,2.8,14.5c1.8,4.9,4.6,9,8.2,12.2c3.6,3.2,7.9,4.8,12.9,4.8c6.3,0,11.4-2.3,15.3-6.9c3.9-4.6,5.8-10.2,5.8-17
							c0-5.1-1.3-10.3-4-15.6c-2.7-5.3-6.2-9.7-10.7-13.4c-4.5-3.6-9.3-5.7-14.4-6.1c2.3-2.5,4.8-4.8,7.4-6.9c2.7-2.1,6-4.6,10-7.5
							c7.8,2.6,14.1,7.5,18.7,14.5c4.6,7.1,6.9,14.9,6.9,23.3c0,7.5-1.7,14.8-5,21.9c-3.3,7.1-8.1,12.8-14.4,17.2
							c-6.3,4.4-13.5,6.6-21.8,6.6c-6.9,0-13.1-1.6-18.9-4.8c-5.7-3.2-10.3-7.6-13.6-13.2c-3.4-5.6-5.1-11.8-5.1-18.5
							c0-11.6,3.7-21.9,11-30.7c7.3-8.8,16.9-15,28.7-18.4L252,475z"/>
						<path id="XMLID_273_" class="st1" d="M409.5,486.6c0,2-0.3,4.3-0.8,6.9c-0.5,2.7-1.3,5-2.1,7.1l-22.5,51.1
							c-1.2,2.7-3.3,4.1-6.2,4.1c-3.6,0-5.9-1.4-6.9-4.2l-12.7-43.3l-17,43.1c-0.8,1.9-1.6,3.1-2.5,3.8c-0.9,0.7-2.2,1-3.8,1
							c-3.2,0-5.2-1.5-6-4.4l-18.3-56.3c-0.9-2.6-1.9-4.5-2.9-5.6c-1.1-1.1-2.6-1.6-4.6-1.6c-1.2,0-2.4,0.4-3.6,1.1
							c-1.2,0.7-2.2,1.6-2.9,2.5l-2.9-2.6c2.3-4.6,5.3-8.4,8.9-11.4c3.6-3,8-4.6,13.1-4.6c3.5,0,6.3,1.4,8.3,4.2
							c2.1,2.8,3.8,6.5,5.2,11.2l13.1,42.4l12.7-33.5l-5.9-19.6l19.3-6.9l17,60.2l8.5-19.9c1.4-3.2,2.1-6.4,2.1-9.6
							c0-4-1-7.6-3-10.7c-2-3.1-4.8-5.6-8.4-7.4l12.2-16.8C405.3,471,409.5,477.6,409.5,486.6z"/>
						<path id="XMLID_270_" class="st1" d="M506.9,494.5c7,4.7,10.4,11.7,10.4,20.9c0,10.6-4.2,19.8-12.7,27.5
							c-8.5,7.8-18.8,13.7-30.9,17.7c-12.1,4-23.5,6.2-34.1,6.6l-1.5-6.2c14.6-3,27.5-8,38.7-15.2c11.2-7.2,16.8-16.9,16.8-29.1
							c0-4.4-1.3-8.4-3.8-11.9c-2.6-3.5-5.9-6.2-9.9-8c-4-1.9-8.2-2.8-12.6-2.8c-7.5,0-15.2,1.5-23.1,4.6l-0.3-0.9v51.6l-21.4,7
							v-62.9c0-11.5,2.5-22.1,7.5-31.6c5-9.6,12.1-17.1,21.1-22.7c9.1-5.5,19.3-8.3,30.7-8.3c5.8,0,10.7,1.4,14.7,4.3
							c4,2.9,6,7,6,12.3c0,7.2-3.7,14.5-11.1,22c-7.4,7.5-15.7,13.8-24.8,18.9l0.3,0.9c5.8-1.3,10.7-1.9,14.7-1.9
							C491.5,487.4,499.9,489.8,506.9,494.5z M468.7,476.7c7-6.7,10.5-14.2,10.5-22.4c0-4.2-1.1-7.6-3.2-10.2
							c-2.2-2.6-5.1-3.8-8.9-3.8c-5.7,0-10.3,2.4-13.8,7.3c-3.5,4.8-5.9,10.6-7.4,17.4c-1.4,6.7-2.1,13.2-2.1,19.3v9.4
							C453.4,489,461.7,483.4,468.7,476.7z"/>
						<path id="XMLID_267_" class="st1" d="M588,476.4c4.2,3.2,6.4,7.9,6.4,14c0,4.9-2.6,10.4-7.9,16.4c-5.3,6-11.5,11.6-18.8,16.8
							c-7.2,5.2-13.4,8.9-18.5,11.2c4.6,7.3,11.3,10.9,20.1,10.9c4.9,0,9.8-1.4,14.8-4.2c5-2.8,9.2-6.4,12.7-11l3.3,3.9
							c-5.7,7.1-11.6,12.5-17.9,16.4c-6.3,3.9-13.7,5.8-22.3,5.8c-7,0-13.2-1.6-18.7-4.7c-5.5-3.2-9.8-7.5-12.9-13
							c-3.1-5.5-4.7-11.7-4.7-18.5c0-8.3,2.3-16.2,6.8-23.8c4.5-7.6,10.5-13.6,18-18.2c7.5-4.6,15.5-6.9,23.8-6.9
							C578.4,471.6,583.7,473.2,588,476.4z M551.7,486.7c-3.3,3-5.8,6.8-7.7,11.5c-1.9,4.7-2.8,9.5-2.8,14.5
							c0,6.5,1.4,12.1,4.2,16.8c4-2.3,8.3-5.5,12.8-9.6c4.5-4.1,8.3-8.5,11.3-13.1c3-4.7,4.6-8.9,4.6-12.7c0-3.8-1-6.7-3-8.8
							c-2-2.1-4.8-3.1-8.4-3.1C558.7,482.2,555,483.7,551.7,486.7z"/>
						<path id="XMLID_265_" class="st1" d="M637.3,539.7c0,1.4,0.4,2.7,1.1,3.8c0.7,1.1,1.8,1.6,3.3,1.6c1.5,0,3.1-0.6,4.7-1.8
							c1.6-1.2,2.9-2.5,3.8-3.9l2.9,3.1c-1.9,3.7-4.5,6.9-8.1,9.5c-3.5,2.6-7.3,3.9-11.3,3.9c-10.6,0-15.8-5.7-15.8-17.1v-128
							l19.4-7V539.7z"/>
						<path id="XMLID_263_" class="st1" d="M688.5,539.7c0,1.4,0.4,2.7,1.1,3.8c0.7,1.1,1.8,1.6,3.3,1.6c1.5,0,3.1-0.6,4.7-1.8
							c1.6-1.2,2.9-2.5,3.8-3.9l2.9,3.1c-1.9,3.7-4.5,6.9-8.1,9.5c-3.5,2.6-7.3,3.9-11.3,3.9c-10.6,0-15.8-5.7-15.8-17.1v-128
							l19.4-7V539.7z"/>
					</g>
				</g>
			</g>
		</g>
		<g id="XMLID_850_">
			<g id="XMLID_9_">
				<g id="XMLID_17_">
					<path id="XMLID_820_" class="st2" d="M12,576.9h10v2.3h-7.5v5.4h7.3v2.3h-7.3v5.5h7.7v2.3H12V576.9z"/>
					<path id="XMLID_818_" class="st2" d="M40.6,576.9H43v17.7h-2.5v-13.8l-5.4,6.8h-0.5l-5.5-6.8v13.8h-2.5v-17.7h2.4l5.9,7.3
						L40.6,576.9z"/>
					<path id="XMLID_815_" class="st2" d="M48.2,594.6v-17.7h5.6c1.7,0,3,0.5,4,1.4c1,0.9,1.5,2.1,1.5,3.7c0,1-0.3,1.9-0.8,2.7
						c-0.5,0.8-1.2,1.4-2.1,1.7c-0.9,0.4-2.2,0.5-3.9,0.5h-1.9v7.7H48.2z M53.4,579.2h-2.6v5.5h2.8c1,0,1.8-0.2,2.4-0.7
						c0.6-0.5,0.8-1.2,0.8-2.1C56.8,580.1,55.7,579.2,53.4,579.2z"/>
					<path id="XMLID_812_" class="st2" d="M71.9,576.7c2.7,0,5,0.9,6.8,2.6c1.8,1.7,2.7,3.9,2.7,6.5c0,2.6-0.9,4.8-2.8,6.5
						c-1.8,1.7-4.2,2.6-6.9,2.6c-2.7,0-4.9-0.9-6.7-2.6c-1.8-1.7-2.7-3.9-2.7-6.4c0-2.6,0.9-4.8,2.7-6.6
						C66.9,577.5,69.1,576.7,71.9,576.7z M72,579.1c-2,0-3.7,0.6-5,1.9c-1.3,1.3-2,2.9-2,4.9c0,1.9,0.7,3.5,2,4.8
						c1.3,1.3,2.9,1.9,4.9,1.9c2,0,3.6-0.6,4.9-1.9c1.3-1.3,2-2.9,2-4.8c0-1.9-0.7-3.5-2-4.7C75.5,579.7,73.9,579.1,72,579.1z"/>
					<path id="XMLID_810_" class="st2" d="M107.6,576.9h2.5l-7.2,17.8h-0.6l-5.8-14.4l-5.9,14.4h-0.5l-7.1-17.8h2.6l4.9,12.2
						l4.9-12.2h2.4l4.9,12.2L107.6,576.9z"/>
					<path id="XMLID_808_" class="st2" d="M113.7,576.9h10v2.3h-7.5v5.4h7.3v2.3h-7.3v5.5h7.7v2.3h-10.3V576.9z"/>
					<path id="XMLID_805_" class="st2" d="M128.3,594.6v-17.7h4.4c1.8,0,3.2,0.4,4.3,1.3c1.1,0.9,1.6,2.1,1.6,3.6
						c0,1-0.3,1.9-0.8,2.7c-0.5,0.8-1.3,1.3-2.2,1.7c0.6,0.4,1.1,0.9,1.7,1.5c0.5,0.6,1.3,1.8,2.3,3.4c0.6,1,1.1,1.8,1.5,2.3
						l0.9,1.3h-3l-0.8-1.2c0,0-0.1-0.1-0.2-0.2l-0.5-0.7l-0.8-1.3l-0.8-1.4c-0.5-0.7-1-1.3-1.4-1.7c-0.4-0.4-0.8-0.7-1.2-0.9
						c-0.4-0.2-0.9-0.3-1.8-0.3h-0.7v7.7H128.3z M131.6,579.1h-0.8v5.6h1c1.3,0,2.2-0.1,2.6-0.3c0.5-0.2,0.8-0.6,1.1-1
						c0.3-0.4,0.4-0.9,0.4-1.5c0-0.6-0.1-1.1-0.4-1.5s-0.7-0.8-1.2-1C133.7,579.2,132.8,579.1,131.6,579.1z"/>
					<path id="XMLID_803_" class="st2" d="M145.5,576.9h2.5v17.7h-2.5V576.9z"/>
					<path id="XMLID_801_" class="st2" d="M167.6,576.9h2.4v17.7h-2.2L156,581v13.6h-2.4v-17.7h2.1l11.9,13.8V576.9z"/>
					<path id="XMLID_799_" class="st2" d="M184.9,585.9h5.9v7.5c-2.2,0.9-4.3,1.4-6.5,1.4c-2.9,0-5.3-0.9-7-2.6
						c-1.8-1.7-2.6-3.8-2.6-6.3c0-2.6,0.9-4.8,2.7-6.6c1.8-1.8,4.1-2.6,6.8-2.6c1,0,1.9,0.1,2.8,0.3c0.9,0.2,2,0.6,3.4,1.2v2.6
						c-2.1-1.2-4.2-1.8-6.3-1.8c-1.9,0-3.6,0.7-4.9,2c-1.3,1.3-2,2.9-2,4.9c0,2,0.7,3.7,2,4.9c1.3,1.3,3,1.9,5.1,1.9
						c1,0,2.2-0.2,3.6-0.7l0.2-0.1v-3.7h-3.4V585.9z"/>
					<path id="XMLID_797_" class="st2" d="M200.1,576.9h14.8v2.3h-6.2v15.5h-2.5v-15.5h-6.1V576.9z"/>
					<path id="XMLID_795_" class="st2" d="M218.9,576.9h10v2.3h-7.5v5.4h7.3v2.3h-7.3v5.5h7.7v2.3h-10.3V576.9z"/>
					<path id="XMLID_793_" class="st2" d="M248.7,590.5v2.8c-1.9,1-4,1.5-6.4,1.5c-2,0-3.7-0.4-5-1.2c-1.4-0.8-2.5-1.9-3.3-3.3
						c-0.8-1.4-1.2-2.9-1.2-4.5c0-2.6,0.9-4.7,2.8-6.5c1.8-1.8,4.1-2.6,6.8-2.6c1.9,0,3.9,0.5,6.2,1.5v2.7c-2.1-1.2-4.1-1.8-6.1-1.8
						c-2,0-3.7,0.6-5.1,1.9c-1.3,1.3-2,2.9-2,4.8c0,1.9,0.7,3.5,2,4.8c1.3,1.3,3,1.9,5.1,1.9C244.5,592.5,246.6,591.8,248.7,590.5z"
						/>
					<path id="XMLID_791_" class="st2" d="M265.8,576.9h2.5v17.7h-2.5v-7.7h-10v7.7h-2.5v-17.7h2.5v7.7h10V576.9z"/>
					<path id="XMLID_789_" class="st2" d="M287.9,576.9h2.4v17.7h-2.2L276.3,581v13.6h-2.4v-17.7h2.1l11.9,13.8V576.9z"/>
					<path id="XMLID_786_" class="st2" d="M304.4,576.7c2.7,0,5,0.9,6.8,2.6c1.8,1.7,2.7,3.9,2.7,6.5c0,2.6-0.9,4.8-2.8,6.5
						c-1.8,1.7-4.2,2.6-6.9,2.6c-2.7,0-4.9-0.9-6.7-2.6c-1.8-1.7-2.7-3.9-2.7-6.4c0-2.6,0.9-4.8,2.7-6.6
						C299.4,577.5,301.6,576.7,304.4,576.7z M304.5,579.1c-2,0-3.7,0.6-5,1.9c-1.3,1.3-2,2.9-2,4.9c0,1.9,0.7,3.5,2,4.8
						c1.3,1.3,2.9,1.9,4.9,1.9c2,0,3.6-0.6,4.9-1.9c1.3-1.3,2-2.9,2-4.8c0-1.9-0.7-3.5-2-4.7C308,579.7,306.4,579.1,304.5,579.1z"/>
					<path id="XMLID_784_" class="st2" d="M318.6,576.9h2.5v15.4h8v2.3h-10.5V576.9z"/>
					<path id="XMLID_781_" class="st2" d="M341.6,576.7c2.7,0,5,0.9,6.8,2.6c1.8,1.7,2.7,3.9,2.7,6.5c0,2.6-0.9,4.8-2.8,6.5
						c-1.8,1.7-4.2,2.6-6.9,2.6c-2.7,0-4.9-0.9-6.7-2.6c-1.8-1.7-2.7-3.9-2.7-6.4c0-2.6,0.9-4.8,2.7-6.6
						C336.6,577.5,338.8,576.7,341.6,576.7z M341.7,579.1c-2,0-3.7,0.6-5,1.9c-1.3,1.3-2,2.9-2,4.9c0,1.9,0.7,3.5,2,4.8
						c1.3,1.3,2.9,1.9,4.9,1.9c2,0,3.6-0.6,4.9-1.9c1.3-1.3,2-2.9,2-4.8c0-1.9-0.7-3.5-2-4.7C345.2,579.7,343.6,579.1,341.7,579.1z"
						/>
					<path id="XMLID_779_" class="st2" d="M365.4,585.9h5.9v7.5c-2.2,0.9-4.3,1.4-6.5,1.4c-2.9,0-5.3-0.9-7-2.6
						c-1.8-1.7-2.6-3.8-2.6-6.3c0-2.6,0.9-4.8,2.7-6.6c1.8-1.8,4.1-2.6,6.8-2.6c1,0,1.9,0.1,2.8,0.3c0.9,0.2,2,0.6,3.4,1.2v2.6
						c-2.1-1.2-4.2-1.8-6.3-1.8c-1.9,0-3.6,0.7-4.9,2c-1.3,1.3-2,2.9-2,4.9c0,2,0.7,3.7,2,4.9c1.3,1.3,3,1.9,5.1,1.9
						c1,0,2.2-0.2,3.6-0.7l0.2-0.1v-3.7h-3.4V585.9z"/>
					<path id="XMLID_777_" class="st2" d="M387.3,576.9h3.1l-6.5,8.3v9.4h-2.6v-9.4l-6.5-8.3h3.1l4.7,6.1L387.3,576.9z"/>
					<path id="XMLID_775_" class="st2" d="M397.9,576.9h14.8v2.3h-6.2v15.5h-2.5v-15.5h-6.1V576.9z"/>
					<path id="XMLID_772_" class="st2" d="M423.6,576.7c2.7,0,5,0.9,6.8,2.6c1.8,1.7,2.7,3.9,2.7,6.5c0,2.6-0.9,4.8-2.8,6.5
						c-1.8,1.7-4.2,2.6-6.9,2.6c-2.7,0-4.9-0.9-6.7-2.6c-1.8-1.7-2.7-3.9-2.7-6.4c0-2.6,0.9-4.8,2.7-6.6
						C418.6,577.5,420.9,576.7,423.6,576.7z M423.7,579.1c-2,0-3.7,0.6-5,1.9c-1.3,1.3-2,2.9-2,4.9c0,1.9,0.7,3.5,2,4.8
						c1.3,1.3,2.9,1.9,4.9,1.9c2,0,3.6-0.6,4.9-1.9c1.3-1.3,2-2.9,2-4.8c0-1.9-0.7-3.5-2-4.7C427.3,579.7,425.6,579.1,423.7,579.1z"
						/>
					<path id="XMLID_770_" class="st2" d="M446.6,576.9h9.4v2.3h-6.9v4.9h6.9v2.3h-6.9v8.3h-2.5V576.9z"/>
					<path id="XMLID_768_" class="st2" d="M460.4,576.9h2.5v17.7h-2.5V576.9z"/>
					<path id="XMLID_766_" class="st2" d="M478,585.9h5.9v7.5c-2.2,0.9-4.3,1.4-6.5,1.4c-2.9,0-5.3-0.9-7-2.6
						c-1.8-1.7-2.6-3.8-2.6-6.3c0-2.6,0.9-4.8,2.7-6.6c1.8-1.8,4.1-2.6,6.8-2.6c1,0,1.9,0.1,2.8,0.3c0.9,0.2,2,0.6,3.4,1.2v2.6
						c-2.1-1.2-4.2-1.8-6.3-1.8c-1.9,0-3.6,0.7-4.9,2c-1.3,1.3-2,2.9-2,4.9c0,2,0.7,3.7,2,4.9c1.3,1.3,3,1.9,5.1,1.9
						c1,0,2.2-0.2,3.6-0.7l0.2-0.1v-3.7H478V585.9z"/>
					<path id="XMLID_764_" class="st2" d="M501.7,576.9h2.5v17.7h-2.5v-7.7h-10v7.7h-2.5v-17.7h2.5v7.7h10V576.9z"/>
					<path id="XMLID_762_" class="st2" d="M508.2,576.9H523v2.3h-6.2v15.5h-2.5v-15.5h-6.1V576.9z"/>
					<path id="XMLID_760_" class="st2" d="M551,590.5v2.8c-1.9,1-4,1.5-6.4,1.5c-2,0-3.7-0.4-5-1.2c-1.4-0.8-2.5-1.9-3.3-3.3
						c-0.8-1.4-1.2-2.9-1.2-4.5c0-2.6,0.9-4.7,2.8-6.5c1.8-1.8,4.1-2.6,6.8-2.6c1.9,0,3.9,0.5,6.2,1.5v2.7c-2.1-1.2-4.1-1.8-6.1-1.8
						c-2,0-3.7,0.6-5.1,1.9c-1.3,1.3-2,2.9-2,4.8c0,1.9,0.7,3.5,2,4.8c1.3,1.3,3,1.9,5.1,1.9C546.8,592.5,548.9,591.8,551,590.5z"/>
					<path id="XMLID_758_" class="st2" d="M568.1,576.9h2.5v17.7h-2.5v-7.7h-10v7.7h-2.5v-17.7h2.5v7.7h10V576.9z"/>
					<path id="XMLID_756_" class="st2" d="M576.1,576.9h2.5v17.7h-2.5V576.9z"/>
					<path id="XMLID_754_" class="st2" d="M584.2,576.9h2.5v15.4h8v2.3h-10.5V576.9z"/>
					<path id="XMLID_751_" class="st2" d="M598.5,594.6v-17.7h6c2.4,0,4.3,0.4,5.7,1.1c1.4,0.7,2.5,1.8,3.3,3.2
						c0.8,1.4,1.2,2.9,1.2,4.6c0,1.2-0.2,2.3-0.7,3.4s-1.1,2-2,2.9c-0.9,0.8-1.9,1.5-3,1.9c-0.7,0.3-1.3,0.4-1.8,0.5
						c-0.6,0.1-1.6,0.1-3.2,0.1H598.5z M604.2,579.2H601v13.2h3.2c1.3,0,2.3-0.1,3-0.3c0.7-0.2,1.3-0.4,1.8-0.7
						c0.5-0.3,0.9-0.6,1.3-1c1.3-1.3,1.9-2.9,1.9-4.8c0-1.9-0.6-3.5-1.9-4.7c-0.5-0.4-1-0.8-1.6-1.1c-0.6-0.3-1.2-0.5-1.7-0.6
						C606.3,579.2,605.4,579.2,604.2,579.2z"/>
					<path id="XMLID_748_" class="st2" d="M631.3,576.8h1.8l7.9,17.8h-2.6l-2.4-5.2h-7.6l-2.2,5.2h-2.6L631.3,576.8z M635,587.1
						l-2.9-6.4l-2.6,6.4H635z"/>
					<path id="XMLID_744_" class="st2" d="M650.5,594.6h-6v-17.7h4.6c1.5,0,2.6,0.2,3.4,0.6c0.8,0.4,1.4,0.9,1.9,1.6
						c0.4,0.7,0.6,1.5,0.6,2.4c0,1.7-0.9,3-2.7,3.7c1.3,0.2,2.3,0.8,3.1,1.6c0.8,0.8,1.1,1.8,1.1,2.9c0,0.9-0.2,1.7-0.7,2.4
						c-0.5,0.7-1.1,1.3-2,1.7C653,594.4,651.9,594.6,650.5,594.6z M649.2,579.2h-2.2v5.3h1.7c1.4,0,2.3-0.3,2.9-0.8
						c0.6-0.5,0.9-1.2,0.9-2C652.5,580,651.4,579.2,649.2,579.2z M649.4,586.8h-2.4v5.6h2.5c1.4,0,2.3-0.1,2.8-0.3
						c0.5-0.2,0.9-0.6,1.2-1s0.5-0.9,0.5-1.5c0-0.5-0.2-1-0.5-1.5c-0.3-0.4-0.8-0.8-1.3-1C651.6,586.9,650.7,586.8,649.4,586.8z"/>
					<path id="XMLID_742_" class="st2" d="M673,576.9h2.5V587c0,1.4-0.1,2.4-0.3,3.1c-0.2,0.7-0.4,1.3-0.7,1.7
						c-0.3,0.5-0.6,0.9-1.1,1.2c-1.4,1.2-3.2,1.8-5.5,1.8c-2.3,0-4.2-0.6-5.6-1.8c-0.4-0.4-0.8-0.8-1.1-1.2c-0.3-0.5-0.5-1-0.7-1.7
						c-0.2-0.7-0.3-1.7-0.3-3.1v-10h2.5V587c0,1.7,0.2,2.8,0.6,3.5c0.4,0.7,1,1.2,1.7,1.6c0.8,0.4,1.7,0.6,2.8,0.6
						c1.5,0,2.7-0.4,3.7-1.2c0.5-0.4,0.9-0.9,1.1-1.5c0.2-0.6,0.3-1.6,0.3-3V576.9z"/>
					<path id="XMLID_740_" class="st2" d="M685,587.2l-1.9-1.2c-1.2-0.7-2.1-1.5-2.6-2.2s-0.8-1.5-0.8-2.5c0-1.4,0.5-2.5,1.5-3.4
						c1-0.9,2.2-1.3,3.8-1.3c1.5,0,2.8,0.4,4.1,1.2v2.9c-1.3-1.2-2.6-1.8-4.1-1.8c-0.8,0-1.5,0.2-2,0.6c-0.5,0.4-0.8,0.9-0.8,1.5
						c0,0.5,0.2,1,0.6,1.5c0.4,0.5,1,0.9,1.9,1.5l1.9,1.1c2.2,1.3,3.2,2.9,3.2,4.9c0,1.4-0.5,2.6-1.4,3.5c-1,0.9-2.2,1.3-3.7,1.3
						c-1.7,0-3.3-0.5-4.8-1.6V590c1.4,1.7,3,2.6,4.8,2.6c0.8,0,1.5-0.2,2-0.7c0.5-0.4,0.8-1,0.8-1.7
						C687.4,589.2,686.6,588.2,685,587.2z"/>
					<path id="XMLID_738_" class="st2" d="M694.1,576.9h10v2.3h-7.5v5.4h7.3v2.3h-7.3v5.5h7.7v2.3h-10.3V576.9z"/>
				</g>
			</g>
		</g>
	</g>
</g>
</svg>
