<?xml version="1.0" encoding="utf-8"?>
<!-- Generator: Adobe Illustrator 19.0.0, SVG Export Plug-In . SVG Version: 6.00 Build 0)  -->
<svg version="1.1" id="Layer_1" xmlns="http://www.w3.org/2000/svg" xmlns:xlink="http://www.w3.org/1999/xlink" x="0px" y="0px"
	 viewBox="-749 287 227.5 228" style="enable-background:new -749 287 227.5 228;" xml:space="preserve">
<style type="text/css">
	.st0{fill:#006838;}
	.st1{opacity:0.1;fill:#006838;enable-background:new    ;}
	.st2{fill:url(#SVGID_1_);}
	.st3{fill:#444176;}
	.st4{opacity:0.1;enable-background:new    ;}
	.st5{fill:#565387;}
	.st6{opacity:0.1;}
	.st7{fill:#CED2DF;}
	.st8{fill:#88455E;}
	.st9{fill:#EC8C9C;}
	.st10{fill:#EBF1F6;}
	.st11{fill:url(#SVGID_2_);}
	.st12{fill:url(#SVGID_3_);}
	.st13{fill:#FFBDC6;}
	.st14{fill:#7679B4;}
	.st15{fill:#A66477;}
	.st16{fill:#F2F1F2;}
	.st17{fill:#565388;}
	.st18{fill:url(#SVGID_4_);}
	.st19{fill:#493545;}
	.st20{opacity:5.000000e-002;enable-background:new    ;}
	.st21{fill:#3E3D77;}
	.st22{fill:#C77485;}
	.st23{fill:#FFAAC4;}
	.st24{fill:none;stroke:#535461;stroke-width:2;stroke-miterlimit:10;}
	.st25{opacity:0.5;fill:#DEE3F3;enable-background:new    ;}
	.st26{fill:none;stroke:#006838;stroke-miterlimit:10;}
	.st27{fill:#A8A8A8;}
	.st28{opacity:0.2;enable-background:new    ;}
	.st29{fill:#FFD037;}
</style>
<circle class="st0" cx="-721" cy="309.8" r="16"/>
<path class="st1" d="M-726.9,340.9c4.5,10.3-1.3,22.1-8.1,31c-2.3,3-4.8,6.1-5.1,9.8c-0.4,4.6,2.7,8.8,6.4,11.5
	c6.7,5,15.9,6.5,23.8,4c6.9-2.2,12.7-7.1,19.6-9.1c11.6-3.3,23.9,2.2,33.9,9c7,4.9,14.6,10.8,23.1,9.7c6-0.7,11.1-4.9,14.5-9.8
	c1.7-2.4,3.1-5.1,5.5-6.7c1.4-0.9,3.1-1.5,4.8-1.8c15.4-3.3,31.8,4.7,47,0.6c10.3-2.8,18.5-10.9,23.6-20.3c5.1-9.4,7.5-20,9.4-30.4
	c1.4-7.4,2.6-15.4-0.7-22.3c-3.4-7.2-11.3-11.7-19.4-12.5c-8-0.8-16,1.4-23.3,4.7c-9.2,4-18.1,9.6-28.2,9.6
	c-6.8,0-13.4-2.6-19.8-4.6c-10.9-3.3-22.3-5-33.5-6.5c-10.8-1.5-21.7-2.8-32.7-2c-7.7,0.6-14.5,3.6-22,4.9
	c-4.9,0.9-9.8,0.2-14.6,1.8c-5.9,1.8-11.9,6.1-12.3,12.8C-734.9,330.7-729.3,335.4-726.9,340.9z"/>
<linearGradient id="SVGID_1_" gradientUnits="userSpaceOnUse" x1="-497.1239" y1="669.6559" x2="-497.1239" y2="527.0726" gradientTransform="matrix(1 0 0 1 -125.1 -195.24)">
	<stop  offset="0" style="stop-color:#808080;stop-opacity:0.25"/>
	<stop  offset="0.54" style="stop-color:#808080;stop-opacity:0.12"/>
	<stop  offset="1" style="stop-color:#808080;stop-opacity:0.1"/>
</linearGradient>
<path class="st2" d="M-573.3,355.9c-1.5-3.8-5.3-12.9-7.8-11.1c-3.2,2.3,3.2,12.2,3.2,12.2c0.2,1.8-3.4,5.6-5.3,7.6
	c0-0.2,0-0.2,0-0.2c0,0.1,0,0.1-0.1,0.2l-0.2-0.1c0,0.2-0.1,0.3-0.2,0.4c0-0.3,0-0.4,0-0.4c-0.4,1.5-6.7,3.5-6.7,3.5s-0.2,0-0.5,0
	c-1.8,0-6.4-0.4-8.5-3.8c-1.1-1.9-2.5-3.5-4.2-4.9c-0.6-0.4-1.3-0.7-2-0.8c-5.9-0.4-10.7-3.4-11.6-4l-0.2-0.1v0.1
	c-0.2-0.3-0.4-0.7-0.6-1l0,0l-0.1-0.2c2.9-1.5,4.8-4.4,4.8-7.7c0-0.1,0-0.1,0-0.2c0.5-0.9,0.8-1.9,0.8-3v-1l1.3-1.2
	c0.6-0.5,1.3-1.1,1.6-1.9c0.1-0.3,0.2-0.6,0.2-1c0.1-0.6-0.2-1.1-0.6-1.5c-1-0.7-2.8,0-3.5-1c-0.3-0.4-0.3-1.1-0.5-1.6
	c-0.3-1.1-1.6-1.7-2.7-1.7c-1.1,0-2.2,0.4-3.4,0.7c-2.3,0.7-4.7,0.9-7.1,0.7c-0.6-0.1-1.3-0.1-2,0.1c-0.8,0.3-1.4,1-1.6,1.8
	c-0.1,0.3-0.1,0.6-0.2,0.9c-1,1.1-1.5,2.5-1.5,3.9v2.7c0,1.4,0.5,2.8,1.4,3.9c0.2,2.5,1.5,4.8,3.6,6.3c0,0.1,0,0.1,0,0.2l0,0
	c-0.1,0.8-0.2,1.6-0.4,2.4v-0.2c0,0-4.8,2.6-10,2.6h-0.6c-1,0-2,0.3-2.8,1c-1.5,1.4-4.2,3.7-5.9,3.7c-0.3,0-9,1.7-10.5,2l-2.7-2.6
	l-0.1,0.2l-0.2-0.2c-0.3,0-0.6,0.1-0.9,0.1c-1.4-1.6-4.1-5.4-4.8-10.5c0,0,6-6.8,3.8-13.1c-1.9-5.4-7,6.2-8.5,9.6
	c-0.3,0.6-0.3,1.3-0.1,1.9l4.8,15.6c-0.5,1.2-0.6,2.5-0.4,3.8h-0.1l3.5,4.5c0,0,2.7,1.1,6.8,1.1c3,0,6.1-0.6,8.9-1.7h0.8l-0.2,0.1
	h4.2l2.7,8.1c-0.1,0.7-1.4,11-2.4,13.3c-0.3,0.8-0.4,1.6-0.4,2.4c0.1,1.6,0.3,3.2,0.8,4.7l2.3-0.1l-0.1,0.2c-2,4.1-5.3,11.3-7.2,18
	l-3.4,6.9l2.6,30.9l0,0h0.1l0,0h0.2l0,0c0.3,0,0.7,0.1,1.2,0.2l-0.2,0.3l-5.6,9.3c0,0-4,8.2,4.9,6.7c0,0,3.3-1,4.6-6.5l5.8-5.5
	c0,0,0.3-3.6-1.4-5.1c-0.1-1.7-0.4-6.6,0-7.8c0.5-1.4-2.1-17.8-2.1-17.8s9.2-19.1,14.8-19.6c0.4,0,0.8,0,1.2,0.2
	c4.6,1.5,10.2,12.6,11.8,16.1l0,0l0.1,0.2l0,0l0.1,0.1l0,0l0.1,0.1l0,0v0.1l0,0v0.1l0,0v0.1l0,0l0,0l0,0l0,0l0,0l0,0l0.7,21.5l0,0
	l0,0l0,0h0.1l0,0l0,0l-0.1,0.4l-0.3,2.2c0,0,4,8.4,3.8,9.5c-0.2,1.1,2.7,5.4,6.8,4.2c4.1-1.2,1.7-7.9,1.7-7.9l-4-8.2l-0.2-0.4
	c0.4-0.2,0.8-0.5,1.1-0.8c0,0-1.2-8.8,0-10.7c1.2-1.9,1.6-10.6,1.6-10.6s-0.9-5.9-2.3-8.6l-6.1-21.8c1.8,1.7,3.3,2.4,4.4,2.3h0.2
	c0.5,0,1-0.1,1.5-0.4c0.2-0.1,0.5-0.3,0.7-0.5l0.1-0.1l0,0c1.7-1.4-1.9-7-4-10.3c-2-3.2,0.8-11.9,1-12.6c0.2-0.1,0.4-0.3,0.6-0.3
	c0.4-0.2,0.9-0.3,1.4-0.3c2,0.1,4.4,1.2,7.4,1.8c2.1,0.4,4.2,0.5,6.3,0.5h0.1c0.8,0,1.6,0,2.2,0c0.6,0,1.1-0.2,1.6-0.4l0,0
	c0.4-0.3,0.8-0.6,1.2-0.9l5.3-6l-0.1,0.1c0.3-0.7,0.3-1.4,0-2.1l5.6-9.7C-573,358.1-572.9,356.9-573.3,355.9z"/>
<path class="st3" d="M-636.1,461.4l-5.6,5.4c-1.3,5.5-4.5,6.4-4.5,6.4c-8.6,1.5-4.7-6.5-4.7-6.5l5.4-9.2l0.7-1.1
	c0,0,3.9-1.2,6.4-0.5c0.3,0.1,0.6,0.3,0.9,0.5C-635.8,457.7-636.1,461.4-636.1,461.4z"/>
<path class="st3" d="M-601.4,466.2c-4,1.2-6.8-3-6.5-4.1s-3.6-9.4-3.6-9.4l0.3-2.2l0.3-2l6.5,0.5l0.6,1.3l3.8,8.1
	C-600,458.3-597.4,465-601.4,466.2z"/>
<path class="st4" d="M-637.3,457.3c-0.6,1.1-5.6,0.5-8.1,0.2l0.7-1.1c0,0,3.9-1.2,6.4-0.5c0.3,0.1,0.6,0.3,0.9,0.5
	C-637.4,456.9-637.3,457.3-637.3,457.3z"/>
<path class="st4" d="M-603.8,450.2c-3.4,2.2-6.9,0.5-7.5,0.3l0.3-2l6.5,0.5L-603.8,450.2z"/>
<path class="st5" d="M-602.9,438.5c-1.2,1.9,0,10.6,0,10.6c-3.9,3.5-8.4,0.9-8.4,0.9l-0.7-21.2c0,0-7.6-17.5-13-17
	c-5.4,0.5-14.3,19.3-14.3,19.3s2.5,16.2,2,17.6s0,8.2,0,8.2c-0.8,1.4-9.4,0-9.4,0l-2.5-30.5l3.3-6.8c1.9-6.7,5.1-13.8,7-17.8
	c0.9-2,1.6-3.2,1.6-3.2l6.2-1.3l20.2-4.2l7.3,26.5c1.4,2.6,2.2,8.4,2.2,8.4S-601.7,436.6-602.9,438.5z"/>
<g class="st6">
	<path d="M-609.4,450l-0.7-21.2c0,0-7.6-17.5-13-17c-0.2,0-0.5,0.1-0.7,0.2c5.3,1.7,11.8,16.8,11.8,16.8l0.7,21.2
		c1.4,0.7,3.1,1,4.7,0.9C-607.6,450.7-608.6,450.4-609.4,450z"/>
	<path d="M-644.8,456.9l-2.5-30.5l3.3-6.8c1.9-6.7,5.1-13.8,7-17.8c0.9-2,1.6-3.2,1.6-3.2l6.2-1.3l18.5-3.8l-0.1-0.4l-20.3,4.2
		l-6.2,1.3c0,0-0.6,1.2-1.6,3.2c-1.9,4-5.1,11.1-7,17.8l-3.3,6.8l2.5,30.5c0,0,4.7,0.8,7.4,0.6C-641.1,457.4-643,457.2-644.8,456.9z
		"/>
</g>
<path class="st7" d="M-659.1,362.5c0,0-6.7,0.3-5.7,7.4l1.9,0.2l2.8-3l1.4-2.6v-0.6L-659.1,362.5z"/>
<path class="st4" d="M-659.1,362.5c0,0-6.7,0.3-5.7,7.4l1.9,0.2l2.8-3l1.4-2.6v-0.6L-659.1,362.5z"/>
<path class="st7" d="M-584.8,365c0,0,5.5,2.9,4.1,6.3l-1.8,0.7l-2.3-1.3l-0.3-3l0.2-2.1L-584.8,365z"/>
<path class="st4" d="M-584.8,365c0,0,5.5,2.9,4.1,6.3l-1.8,0.7l-2.3-1.3l-0.3-3l0.2-2.1L-584.8,365z"/>
<path class="st8" d="M-624.9,334.8h4.7c4,0,7.3,3.3,7.3,7.3l0,0c0,4-3.3,7.3-7.3,7.3h-4.7c-4,0-7.3-3.3-7.3-7.3l0,0
	C-632.1,338-628.9,334.8-624.9,334.8z"/>
<path class="st9" d="M-659.2,363.5l-4.1,6.5l-0.3-1.2l-5.6-18.2c-0.2-0.6-0.2-1.3,0.1-1.9c1.4-3.4,6.4-14.8,8.2-9.5
	c2.1,6.2-3.6,12.9-3.6,12.9c0.7,5.4,3.7,9.4,4.9,10.7C-659.3,363.3-659.2,363.5-659.2,363.5z"/>
<path class="st9" d="M-585.6,366.3c0,0,6.4-6.1,6.2-8.6c0,0-6.1-9.8-3-12.1c2.4-1.8,6.1,7.1,7.5,10.9c0.4,1,0.3,2.2-0.2,3.1
	l-7.7,13.6L-585.6,366.3z"/>
<path class="st9" d="M-627.4,349.3c0,0,1.2,7.5-2.2,10.3c-3.4,2.8,9.7,2.8,9.7,2.8l4.7-4.3c0,0-5.4-5-3.8-8.8H-627.4z"/>
<path class="st4" d="M-627.6,357.8c0,0,5,3.8,10.1-0.5l8.2,17l-0.5,20.8c0,0-17,8.8-24,3.4s-1.2-8.2-1.2-8.2l-1.6-15.9l1.8-10.3
	c0,0,3.2-4.9,3.4-4.9S-627.6,357.8-627.6,357.8z"/>
<path class="st10" d="M-627.6,357.6c0,0,5,3.8,10.1-0.5l8.2,17l-0.5,20.8c0,0-17,8.8-24,3.4s-1.2-8.2-1.2-8.2l-1.6-15.9l1.8-10.3
	c0,0,3.2-4.9,3.4-4.9S-627.6,357.6-627.6,357.6z"/>
<path class="st4" d="M-627.6,355.8c0,0-4.8,2.7-10,2.6c-1,0-1.9,0.3-2.7,1c-1.5,1.4-4.1,3.7-5.7,3.7c-0.3,0-10.3,2-10.3,2l-2.6-2.6
	c0,0-3.9,7.7-5.8,7.3l3.4,4.5c0,0,6.4,2.8,14.9-0.6h4.9l2.6,8c0,0-1.3,10.8-2.3,13.1c-1.1,2.3,0.3,6.9,0.3,6.9l9.3-0.3
	c0,0,0.5-4.6,1.2-5.2s-2.5-20.8-2.5-20.8s-2.1-11.4,5.6-15.5L-627.6,355.8z"/>
<path class="st4" d="M-631.1,397.3c-0.3,1.4-0.6,2.8-0.7,4.2l-7.1,0.3c0.9-2,1.6-3.2,1.6-3.2L-631.1,397.3z"/>
<path class="st4" d="M-659.2,363.5l-4.1,6.5l-0.3-1.2c1.5-1.5,3.3-4.6,4-5.9C-659.3,363.3-659.2,363.5-659.2,363.5z"/>
<path class="st7" d="M-627.6,355.8c0,0-5,2.7-10.2,2.6c-1,0-1.9,0.3-2.7,1c-1.5,1.4-4.1,3.7-5.7,3.7c-0.3,0-10.3,2-10.3,2l-2.6-2.6
	c0,0-3.9,7.7-5.8,7.3l3.4,4.5c0,0,6.4,2.8,14.9-0.6h4.9l2.6,8c0,0-1.3,10.8-2.3,13.1c-1.1,2.3,0.3,6.9,0.3,6.9l9.3-0.3
	c0,0,0.5-4.6,1.2-5.2s-2.5-20.8-2.5-20.8s-2.1-11.4,5.6-15.5L-627.6,355.8z"/>
<path class="st4" d="M-617.5,355.1c0,0,4.8,3.6,11.2,4.1c0.7,0,1.4,0.3,1.9,0.7c1.6,1.4,3,3,4,4.8c2.6,4.2,8.9,3.8,8.9,3.8
	s6.2-1.9,6.5-3.4c0,0,0.2,8.3,4,6.3l-5.1,5.9c-0.6,0.7-1.6,1.2-2.6,1.2c-1.9,0.1-5.2,0.1-8-0.4c-4.2-0.8-7.3-2.8-9.5-1.1
	c0,0-2.9,9.1-0.9,12.4s5.5,8.8,3.9,10.2c-1.6,1.4-3.6,1.3-6.9-2.1s-3.6-9.1-3.6-9.1l0.8-14.8c0,0-3.2-11.1-6.2-13.4L-617.5,355.1z"
	/>
<path class="st4" d="M-580.5,371.2l-5.1,5.9c-0.3,0.4-0.8,0.7-1.2,0.9l0,0c-0.4,0.2-0.9,0.3-1.3,0.3c-1.9,0.1-5.2,0.1-8-0.4
	c-3.9-0.8-6.9-2.6-9.1-1.4c-0.2,0.1-0.3,0.2-0.4,0.3c0,0-2.9,9.1-0.9,12.4s5.5,8.8,3.9,10.2c-0.3,0.2-0.6,0.4-0.9,0.6
	c-1.5,0.7-3.3,0.1-6-2.7c-3.3-3.4-3.6-9.1-3.6-9.1l0.8-14.8c0,0-3.2-11.1-6.2-13.4l1.3-4.8c0.9,0.6,5.5,3.6,11.2,3.9
	c0.7,0,1.4,0.3,1.9,0.7c1.6,1.4,3,3,4,4.8c2.6,4.2,8.9,3.8,8.9,3.8c1.5-0.5,3-1.1,4.4-1.8l0,0c0.9-0.4,1.7-0.9,2.1-1.4
	c0.1-0.1,0.2-0.3,0.2-0.4C-584.5,365-584.3,373.2-580.5,371.2z"/>
<path class="st7" d="M-580.7,371.3l-5.1,5.9c-0.3,0.3-0.6,0.6-1,0.8l0,0c-0.5,0.3-1,0.4-1.6,0.4c-1.9,0.1-5.2,0.1-8-0.4
	c-3.8-0.7-6.7-2.4-8.8-1.5c-0.2,0.1-0.5,0.2-0.7,0.4c0,0-2.9,9.1-0.9,12.4s5.5,8.8,3.9,10.2c-0.2,0.2-0.4,0.3-0.7,0.5
	c-1.5,0.8-3.4,0.3-6.2-2.6c-3.3-3.4-3.6-9.1-3.6-9.1l0.8-14.8c0,0-3.2-11.1-6.2-13.4l1.4-5l0.2,0.1c0.9,0.6,5.5,3.6,11.2,3.9
	c0.7,0,1.4,0.3,1.9,0.7c1.6,1.4,3,3,4,4.8c2.6,4.2,8.9,3.8,8.9,3.8c1.5-0.5,3-1.1,4.4-1.8l0,0c1.1-0.5,1.9-1.1,2.1-1.7
	c0,0,0,0.1,0,0.3C-584.7,366.8-584.1,373.1-580.7,371.3z"/>
<path class="st4" d="M-618.8,349.5h-8.6c0.2,1.4,0.2,2.8,0.2,4.1c2.7,1.9,6.2,2.1,9.1,0.7C-619,352.7-619.5,351-618.8,349.5z"/>
<circle class="st9" cx="-622.2" cy="346.5" r="8.6"/>
<path class="st4" d="M-624,344.9c1-0.1,1.9-0.5,2.9-0.3c0.9,0.2,1.6,0.8,2.4,0.9c1.6,0.3,3.2-0.9,4.4-2l2.7-2.4
	c0.6-0.5,1.2-1.1,1.5-1.9c0.3-0.7,0.2-1.7-0.5-2.2c-1-0.7-2.7,0-3.4-1c-0.3-0.4-0.3-1-0.4-1.6c-0.3-1.1-1.5-1.6-2.6-1.6
	c-1.1,0-2.2,0.4-3.2,0.7c-2.2,0.6-4.6,0.9-6.9,0.7c-0.6-0.1-1.3-0.1-1.9,0.1c-0.8,0.3-1.3,1-1.5,1.8c-0.5,1.9,0.4,4.9,1.3,6.6
	C-628.3,344.4-625.8,345.2-624,344.9z"/>
<path class="st8" d="M-624,344.7c1-0.1,1.9-0.5,2.9-0.3c0.9,0.2,1.6,0.8,2.4,0.9c1.6,0.3,3.2-0.9,4.4-2l2.7-2.4
	c0.6-0.5,1.2-1.1,1.5-1.9c0.3-0.7,0.2-1.7-0.5-2.2c-1-0.7-2.7,0-3.4-1c-0.3-0.4-0.3-1-0.4-1.6c-0.3-1.1-1.5-1.6-2.6-1.6
	c-1.1,0-2.2,0.4-3.2,0.7c-2.2,0.6-4.6,0.9-6.9,0.7c-0.6-0.1-1.3-0.1-1.9,0.1c-0.8,0.3-1.3,1-1.5,1.8c-0.5,1.9,0.4,4.9,1.3,6.6
	C-628.3,344.2-625.8,344.9-624,344.7z"/>
<path class="st4" d="M-638.9,381.7c0,0,1.9,0.2,2.8,1.4c0.9,1.2,2.6,1.5,2.6,1.5"/>
<path class="st4" d="M-655.8,366.2c0,0,1.5,3.4,0.6,3.8c-0.9,0.4-0.6,2.8-0.6,2.8"/>
<g class="st6">
	<path d="M-655.3,365c0,0,10-2,10.3-2c1.6,0,4.2-2.2,5.7-3.7c0.4-0.4,1-0.7,1.6-0.9h-0.1c-1,0-1.9,0.3-2.7,1
		c-1.5,1.4-4.1,3.7-5.7,3.7c-0.3,0-6.7,1.3-9.2,1.8L-655.3,365z"/>
	<path d="M-627.6,356.3v-0.4c-2.4,1.2-5,2-7.6,2.4C-632.6,358.1-630,357.4-627.6,356.3z"/>
	<path d="M-639.9,401.6c0,0-1.4-4.6-0.3-6.9s2.3-13.1,2.3-13.1l-2.6-8h-4.9l-0.3,0.1h4l2.6,8c0,0-1.3,10.8-2.3,13.1
		c-1.1,2.3,0.3,6.9,0.3,6.9l9.3-0.3v-0.1L-639.9,401.6z"/>
</g>
<g class="st6">
	<path d="M-602.9,397.7c-0.2,0.2-0.4,0.3-0.7,0.5c-1.5,0.8-3.4,0.3-6.2-2.6c-2.6-2.7-3.4-6.9-3.6-8.5l-0.1,1.2c0,0,0.3,5.7,3.6,9.1
		c2.8,2.9,4.7,3.4,6.2,2.6c0.2-0.1,0.5-0.3,0.7-0.5c0.5-0.4,0.5-1.2,0.3-2.2C-602.7,397.5-602.8,397.6-602.9,397.7z"/>
	<path d="M-582.4,371.5l-3.3,3.8c-0.3,0.3-0.6,0.6-1,0.8l0,0c-0.5,0.3-1,0.4-1.6,0.4c-1.9,0.1-5.2,0.1-8-0.4
		c-3.8-0.7-6.7-2.4-8.8-1.5c-0.2,0.1-0.5,0.2-0.7,0.4c0,0-1.9,5.9-1.6,9.9c0.2-3.8,1.6-8.1,1.6-8.1c0.2-0.2,0.4-0.3,0.7-0.4
		c2.2-1,5,0.7,8.8,1.5c2.8,0.5,6.1,0.5,8,0.4c0.5,0,1.1-0.2,1.6-0.4l0,0c0.4-0.2,0.7-0.5,1-0.8l5.1-5.9
		C-581.1,371.7-581.8,371.7-582.4,371.5z"/>
</g>
<linearGradient id="SVGID_2_" gradientUnits="userSpaceOnUse" x1="-575.6263" y1="574.3003" x2="-575.6263" y2="574.2245" gradientTransform="matrix(1 0 0 1 -125.1 -195.24)">
	<stop  offset="0" style="stop-color:#808080;stop-opacity:0.25"/>
	<stop  offset="0.54" style="stop-color:#808080;stop-opacity:0.12"/>
	<stop  offset="1" style="stop-color:#808080;stop-opacity:0.1"/>
</linearGradient>
<path class="st11" d="M-700.9,379c0.1,0.1,0.2,0.1,0.3,0C-700.7,379.1-700.8,379-700.9,379z"/>
<linearGradient id="SVGID_3_" gradientUnits="userSpaceOnUse" x1="-580.0117" y1="614.912" x2="-580.0117" y2="499.8049" gradientTransform="matrix(1 0 0 1 -125.1 -195.24)">
	<stop  offset="0" style="stop-color:#808080;stop-opacity:0.25"/>
	<stop  offset="0.54" style="stop-color:#808080;stop-opacity:0.12"/>
	<stop  offset="1" style="stop-color:#808080;stop-opacity:0.1"/>
</linearGradient>
<path class="st12" d="M-665.7,321.9c-0.6-0.2-1.5-0.5-2.6-0.8c1.1-1.4,1.9-3.1,2.4-4.8h-0.1c0-0.1,0.1-0.2,0.1-0.3
	c-2,0.8-4.3-0.6-5.7-2.4c-1.4-1.8-2.4-4-4-5.7c-0.7-0.7-1.4-1.3-2.1-1.8c-0.5-0.3-1-0.7-1.5-0.8c-0.9,0-1.6,0.9-2.5,1.1
	c-0.6,0.1-1.2,0.1-1.8-0.1c-2.3-0.5-4.5-1.5-6.8-1.7c-1.2-0.2-2.5,0-3.7,0.4s-1.7,1.3-2.7,2c-1,0.8-3.1,0.7-4.3,0.9
	c-1.5,0.2-2.9,0.2-4.4,0.2c-0.8-0.1-1.7,0-2.5,0.1c-1.7,0.4-3.2,1.8-4.5,3.1c-0.4,0.3-0.6,0.7-0.7,1.2c0,0.1,0,0.3,0,0.4
	c0,0.3,0,0.7,0.2,1c0.4,1.2,1,2.3,1.7,3.4c0.5,0.8,1.2,1.5,1.5,2.4c0.1,0.4,0.2,0.9,0.2,1.4s-0.1,1-0.2,1.5
	c-0.2,1.4-0.6,2.7-1.1,3.9c-0.3,0.7-0.5,1.3-0.7,2.1c0,0.1,0,0.3,0,0.4c-0.1,2.3,2.2,3.9,2.7,6.2c0,0.2,0.1,0.4,0.1,0.6
	c0,1.4-0.9,2.8-2,3.3c0.1,0,0.2,0.1,0.3,0.1c-0.1,0.1-0.2,0.1-0.3,0.2c0.2,0.1,0.4,0.2,0.7,0.2c-1.3,1.2-2.5,2.6-3.3,4.1
	c-4,7.4-31,22-31,22l0.4,0.2l-0.3,0.2c-2.3,1.6-7.8,6.1-2.9,11.8c0,0,3.9-6.1,6.6-8.7c0.1-0.1,0.2-0.2,0.3-0.3
	c0.1,0.2,0.2,0.4,0.1,0.6l17.8-10c0,0,6.3-4.4,8.1-5.4c1.2-0.8,2.6-1.4,4-1.7l-0.2,0.1c0.7-0.2,1.3-0.3,2-0.3
	c3.1,0,6.5,2.4,7.7,11.5c1.5,12.2,0.8,14.4,0.3,14.7c-0.1,0-0.1,0-0.2,0l0,0c-0.1,0-0.1,0-0.2,0c0.1,0.1,0.2,0.1,0.3,0.1
	s0.1,0,0.2,0l0,0c0.1,0,0.2,0,0.2,0c0,0.1,0,0.2,0,0.3c0,0-0.1,0.1,0,0.1l0,0c0,0.7,0,1.4,0,2.2c-1.6,0.1-3.1,0.2-4.5,0.3l0.1-0.6
	l0.1-0.3c1.2-0.1,2.3-0.4,2.5-1.4c0.3-2.1-2.6-3.3-5.1-3.4s-17.5,0.9-17.5,0.9s-2.2,2.9,4.9,3.8c0.2,0.1,0.4,0.2,0.7,0.3
	c2.8,1.6,6.6,4.5,8.4,6l0.3,0.2l-0.8,0.7c4.4,1,8.7,17.8,11,25.5s7.5,7.4,11.7,6.3c4-1.1,4.5-12.6,4.5-14.1v-0.1l7.1,8.8l0.5,0.7
	c0.2,0.1,0.4,0.2,0.6,0.3c5.4,2.6,11.3-2.3,9.6-7.9c-1.7-5.6-4.4-14-6.1-17.5c-1.5-2.9-3.4-7.8-4.5-10.9c0.2-0.1,0.3-0.1,0.4-0.2
	c0,0,0-0.1-0.1-0.4h0.1c0,0-1.7-8.9-1.8-15.2c0-0.1,0-0.2,0-0.3c0-0.1,0-0.1,0-0.2c1.3-0.3,2.1-0.4,2.1-0.4v-0.3h-0.1l0.7-8.2
	c0,0,2.6-5.6,0.6-7.9c-0.6-0.7-1-1.5-1.2-2.4c-0.3-2.1,0-5.7,4.7-8.7c7.2-4.6,10-8.3,10-8.3S-661.3,323.2-665.7,321.9z M-680,327.6
	v-3.8c1.3-0.1,2.7,0.1,4,0c0.7,0,1.3-0.2,1.9-0.3l0.3,0.2C-675.7,325.2-677.8,326.5-680,327.6z M-700.4,386.7
	c0.5,0.4,1.1,0.7,1.6,1.1c0.3,1.9,0.6,3.2,0.6,3.3C-698.8,389.6-699.5,388.1-700.4,386.7z"/>
<path class="st13" d="M-689,383.6l-0.3,1.7l-0.2,1.3l-0.4,2.4l-4.2,2.9c0,0-0.4-0.3-1-0.8c-1.7-1.4-5.4-4.3-8-5.9
	c-0.7-0.4-1.4-0.8-2.2-1L-689,383.6z"/>
<path class="st4" d="M-689,383.6l-0.3,1.7c-0.9,0.1-1.9,0-2.8-0.1l-9.8,0.1c-0.5,0-0.9-0.1-1.3-0.1c-0.7-0.4-1.4-0.8-2.2-1
	L-689,383.6z"/>
<path class="st14" d="M-692.1,384.9c0,0,4.9,0.8,5.2-1.3c0.3-2.1-2.5-3.2-4.9-3.4c-2.4-0.2-16.7,0.8-16.7,0.8s-2.5,3.4,6.6,3.9
	H-692.1z"/>
<path class="st4" d="M-689,383.6l-0.3,1.7l-0.2,1.3l-0.4,2.4l-4.2,2.9c0,0-0.4-0.3-1-0.8c-1.7-1.4-5.4-4.3-8-5.9
	c-0.7-0.4-1.4-0.8-2.2-1L-689,383.6z"/>
<path class="st4" d="M-689,383.6l-0.3,1.7c-0.9,0.1-1.9,0-2.8-0.1l-9.8,0.1c-0.5,0-0.9-0.1-1.3-0.1c-0.7-0.4-1.4-0.8-2.2-1
	L-689,383.6z"/>
<path class="st4" d="M-692.1,384.9c0,0,4.9,0.8,5.2-1.3c0.3-2.1-2.5-3.2-4.9-3.4c-2.4-0.2-16.7,0.8-16.7,0.8s-2.5,3.4,6.6,3.9
	H-692.1z"/>
<rect x="-707.1" y="315.7" class="st15" width="25.7" height="30.5"/>
<rect x="-707.1" y="315.7" class="st4" width="25.7" height="30.5"/>
<path class="st13" d="M-737.2,367.8c-0.4,0.1-1,0.5-1.6,1.1c-2.6,2.6-6.3,8.6-6.3,8.6c-4.7-5.6,0.5-10.1,2.8-11.6
	c0.5-0.4,0.9-0.6,0.9-0.6L-737.2,367.8z"/>
<path class="st13" d="M-689.3,325.3c0,0,1.3,8.8,5.6,11c4.3,2.2-5.6,6-5.6,6l-13.6-5.1c0,0,7.7-2.5,6.2-10L-689.3,325.3z"/>
<path class="st13" d="M-703.9,378.5l-0.3,1.7l-0.2,1.3l-0.4,2.4l-4.2,2.9c0,0-0.4-0.3-1-0.8c-1.7-1.4-5.4-4.3-8-5.9
	c-0.7-0.4-1.4-0.8-2.2-1L-703.9,378.5z"/>
<path class="st4" d="M-703.9,378.5l-0.3,1.7c-0.9,0.1-1.9,0-2.8-0.1l-9.8,0.1c-0.5,0-0.9-0.1-1.3-0.1c-0.7-0.4-1.4-0.8-2.2-1
	L-703.9,378.5z"/>
<path class="st14" d="M-707,379.8c0,0,4.9,0.8,5.2-1.3c0.3-2.1-2.5-3.2-4.9-3.4c-2.4-0.1-16.7,0.8-16.7,0.8s-2.5,3.4,6.6,3.9H-707z"
	/>
<path class="st4" d="M-704.4,381.5l-0.4,2.4l-4.2,2.9c0,0-0.4-0.3-1-0.8L-704.4,381.5L-704.4,381.5z"/>
<path class="st14" d="M-676.7,413.6c-0.2-0.1-0.4-0.2-0.6-0.3l-0.5-0.7l-6.8-8.6v0.2c0,1.4-0.5,12.8-4.3,13.9
	c-4.1,1.1-9,1.4-11.2-6.2s-6.3-24.1-10.5-25.1l6.2-5.1c0,0,4.1,4.8,5.8,9.5c-0.1-0.3-2.9-13.6-0.6-16h20.5c0,0,3.2,9,5.3,13.5
	c1.7,3.5,4.2,11.7,5.9,17.2C-665.8,411.3-671.5,416.1-676.7,413.6z"/>
<path class="st4" d="M-677.2,377.7c-3.2,1.9-17.1,1.1-21.6,0.8l-1.2-0.1c-0.1,0,0-0.1,0-0.1l0.1-1.3l3.4-8.6l18-10.5
	c-0.4,1.1-0.5,2.8-0.5,4.7C-678.9,368.9-677.2,377.7-677.2,377.7z"/>
<path class="st16" d="M-677.2,377.3c-3.2,1.9-17.1,1.1-21.6,0.8l-1.2-0.1h-0.2l0.2-0.1l1.1-0.3l2.4-9.5l18-10.5
	c-0.4,1.1-0.5,2.8-0.5,4.7C-678.9,368.5-677.2,377.3-677.2,377.3z"/>
<path class="st4" d="M-678.9,362.3c-3.7,0.8-11.7,3.3-14.8,9.3c-2.1,4-3.8,5.7-5,6.4l-1.2-0.1v-0.1l1.1-0.3l2.4-9.5l18-10.5
	C-678.9,358.7-679,360.4-678.9,362.3z"/>
<path class="st4" d="M-741.4,365.3l4.2,2.5c-0.4,0.1-1,0.5-1.6,1.1c-0.3-1-2.6-2.5-3.6-3.1C-741.7,365.5-741.4,365.3-741.4,365.3z"
	/>
<path class="st4" d="M-700.8,378.1c-0.1,0.1-0.2,0-0.3,0C-701,378.1-700.9,378.1-700.8,378.1z"/>
<path class="st17" d="M-691.3,335.7c0,0-3.8,0.4-6.5-2.4c0,0-11.2,3.2-15,10.5s-29.6,21.6-29.6,21.6s4.5,2.5,4.1,3.8l17-9.8
	c0,0,6-4.4,7.7-5.3c1.7-1,11-7,12.9,9.4c1.9,16.4,0,14.5,0,14.5s2.8,1,6.9-6.9c4.1-7.9,16.7-9.7,16.7-9.7l0.7-8.3
	c0,0,2.5-5.5,0.6-7.8c-0.6-0.7-1-1.5-1.1-2.4c-0.3-2.1,0-5.6,4.5-8.5c6.9-4.5,9.5-8.1,9.5-8.1s0.1-2.7-4.1-3.9s-21.3-8.1-21.3-8.1
	l-0.6,2.4l13.5,9.5c0,0-6.7,5.5-12.1,5.3C-687.5,331.5-686.5,335.6-691.3,335.7z"/>
<path class="st4" d="M-688.7,329.2c-0.3-1.1-0.6-2.3-0.8-3.4l-7.4,2c0.3,1.4,0.3,2.9-0.2,4.3C-693.9,332.8-690.6,331.7-688.7,329.2
	L-688.7,329.2z"/>
<circle class="st13" cx="-694.8" cy="323.8" r="8"/>
<path class="st4" d="M-690.6,305.6c2.2,0.3,4.3,1.2,6.5,1.7c0.5,0.2,1.1,0.2,1.7,0.1c0.8-0.3,1.5-1.2,2.4-1.1c0.5,0,1,0.4,1.5,0.7
	c0.7,0.5,1.4,1.1,2,1.8c1.5,1.6,2.4,3.8,3.8,5.6c1.4,1.8,3.5,3.2,5.5,2.3c-1.3,5.2-5.7,9.1-10.4,9.4c-1.9,0.1-3.8-0.3-5.6,0.3
	c-0.5,0.2-0.9,0.3-1.4,0.3c-1,0-1.9-1-2.5-1.9c-1.5-2.2-2.8-4.7-4.5-6.7c-0.6-0.7-1.2-1.3-2-1.4s-1.5,0.3-2.3,0.6
	c-1.2,0.6-2.4,1.2-3.3,2.3c-0.9,1-1.5,2.6-1.1,4c0.2,0.8,0.7,1.5,0.7,2.3c0,1.3-1.1,2.2-1.3,3.4c0,0.5-0.1,1-0.1,1.6
	c-0.1,1.7-1.2,3.1-2.4,4.2c-0.5,0.4-1,0.9-1.1,1.5c-0.1,0.4,0,0.9-0.1,1.3c-0.2,1.1-1.3,1.7-2.2,1.8c-1.1,0.2-2.3,0-3.4-0.4
	c1.4-0.6,2.2-2.5,1.9-4.1c-0.4-2.3-2.7-3.9-2.5-6.2c0.1-0.7,0.3-1.4,0.6-2.1c0.5-1.3,0.9-2.6,1.1-3.9c0.2-1,0.2-2.1-0.1-3.1
	c-0.3-0.9-0.9-1.6-1.4-2.4c-0.7-1-1.2-2.1-1.6-3.3c-0.1-0.3-0.2-0.7-0.2-1.1c0.1-0.4,0.4-0.8,0.7-1.1c1.3-1.3,2.6-2.7,4.3-3.1
	c0.8-0.1,1.6-0.2,2.4-0.1c1.4,0,2.8,0,4.2-0.2c1.2-0.1,3.1-0.1,4.1-0.9c0.9-0.7,1.4-1.6,2.5-2C-693,305.6-691.8,305.5-690.6,305.6z"
	/>
<path class="st4" d="M-686.1,388.3c0,0,4.6,9.1,3.2,11.9"/>
<path class="st4" d="M-677.7,412.7l-6.8-8.6v0.2c0,0-0.4-2.8,0.9-1.8c2.8,2,7.4,5.4,7.5,6C-676.1,408.9-677.1,411.2-677.7,412.7z"/>
<g class="st6">
	<path d="M-687.3,331.5c0,0,0.6,2.4-1.3,3.6c2.9-0.5,3-2.7,2.9-3.7C-686.3,331.5-686.8,331.5-687.3,331.5z"/>
	<path d="M-740.7,364.9c0,0,25.8-14.3,29.6-21.6c2.7-5.2,9.3-8.4,12.8-9.7c-2.5,0.9-11.1,4.1-14.3,10.3
		c-3.8,7.3-29.6,21.6-29.6,21.6L-740.7,364.9z"/>
	<path d="M-682.3,330.4c4.4-1.4,8.6-4.8,8.6-4.8l-13.5-9.5l0.3-1.3l-1.3-0.5l-0.6,2.4l13.5,9.5
		C-677.4,327.8-679.8,329.3-682.3,330.4z"/>
	<path d="M-682.2,362.7c1.7-0.6,3.5-1,5.3-1.3v-0.3C-678.7,361.5-680.5,362.1-682.2,362.7z"/>
	<path d="M-698.6,377.4h-0.1c-0.1,0.1-0.2,0-0.3,0c0.1,0,0.2,0,0.3,0c0.5-0.3,1.2-2.4-0.3-14.5c-1.6-13-7.6-11.9-11-10.4
		c3.4-0.9,8.1-0.1,9.4,11c1.5,12.1,0.8,14.2,0.3,14.5C-699.6,378-699,377.8-698.6,377.4z"/>
	<path d="M-700.2,378c-0.1,0-0.2,0-0.3,0C-700.4,378-700.3,378-700.2,378z"/>
</g>
<path class="st15" d="M-690.6,305.4c2.2,0.3,4.3,1.2,6.5,1.7c0.5,0.2,1.1,0.2,1.7,0.1c0.8-0.3,1.5-1.2,2.4-1.1c0.5,0,1,0.4,1.5,0.7
	c0.7,0.5,1.4,1.1,2,1.8c1.5,1.6,2.4,3.8,3.8,5.6c1.4,1.8,3.5,3.2,5.5,2.3c-1.3,5.2-5.7,9.1-10.4,9.4c-1.9,0.1-3.8-0.3-5.6,0.3
	c-0.5,0.2-0.9,0.3-1.4,0.3c-1,0-1.9-1-2.5-1.9c-1.5-2.2-2.8-4.7-4.5-6.7c-0.6-0.7-1.2-1.3-2-1.4s-1.5,0.3-2.3,0.6
	c-1.2,0.6-2.4,1.2-3.3,2.3c-0.9,1-1.5,2.6-1.1,4c0.2,0.8,0.7,1.5,0.7,2.3c0,1.3-1.1,2.2-1.3,3.4c0,0.5-0.1,1-0.1,1.6
	c-0.1,1.7-1.2,3.1-2.4,4.2c-0.5,0.4-1,0.9-1.1,1.5c-0.1,0.4,0,0.9-0.1,1.3c-0.2,1.1-1.3,1.7-2.2,1.8c-1.1,0.2-2.3,0-3.4-0.4
	c1.4-0.6,2.2-2.5,1.9-4.1c-0.4-2.3-2.7-3.9-2.5-6.2c0.1-0.7,0.3-1.4,0.6-2.1c0.5-1.3,0.9-2.6,1.1-3.9c0.2-1,0.2-2.1-0.1-3.1
	c-0.3-0.9-0.9-1.6-1.4-2.4c-0.7-1-1.2-2.1-1.6-3.3c-0.1-0.3-0.2-0.7-0.2-1.1c0.1-0.4,0.4-0.8,0.7-1.1c1.3-1.3,2.6-2.7,4.3-3.1
	c0.8-0.1,1.6-0.2,2.4-0.1c1.4,0,2.8,0,4.2-0.2c1.2-0.1,3.1-0.1,4.1-0.9c0.9-0.7,1.4-1.6,2.5-2C-693,305.3-691.8,305.2-690.6,305.4z"
	/>
<linearGradient id="SVGID_4_" gradientUnits="userSpaceOnUse" x1="-435.4203" y1="631.6346" x2="-435.4203" y2="491.3451" gradientTransform="matrix(1 0 0 1 -125.1 -195.24)">
	<stop  offset="0" style="stop-color:#808080;stop-opacity:0.25"/>
	<stop  offset="0.54" style="stop-color:#808080;stop-opacity:0.12"/>
	<stop  offset="1" style="stop-color:#808080;stop-opacity:0.1"/>
</linearGradient>
<path class="st18" d="M-524.1,305.1L-524.1,305.1V305v-0.1h-0.1c0-0.1,0-0.2,0-0.3c-0.1-3.2-4.6-10-6.3-8c-1.6,1.7,0.8,6.2,2,8.1
	l0.1,0.2h-0.1c0,0-4.9,14.7-5.5,15.3c-0.6,0.6-4.6,12.1-10,13.4c-1.1,0.3-1.9,0.5-2.7,0.7l0.1-0.2c0.3-1.1,0.8-2.2,0.9-3.4
	c0.2-1.3,0-2.8-0.6-3.4c-0.3-0.3-0.7-0.3-0.9-0.8c-0.2-0.4-0.3-0.9-0.3-1.3l-0.5-5.6l0.3-0.1c1.9-0.6,3.8-2.1,4-4
	c-0.1,0-0.1,0-0.2,0.1c0-0.1,0-0.2,0.1-0.3c-1.6,0.6-3.1-1-4.7-1.8c-2.6-1.3-5.5-0.1-8.1,0.2c-3,0.3-5.8-0.9-8.9-0.7
	c-1.7,0.1-3.5,1.3-3.4,2.9c0.1,0.9,0.7,1.7,1,2.5c0.7,2.1-0.8,4.2-2.1,6c-0.8,1.2-1.7,2.6-1.8,4c-3-3.1-6.2-6.7-6.5-8l-8.6-14.7
	c0,0-0.2,0.2-0.5,0.5c-0.1-0.2-0.1-0.3-0.2-0.5c-1.1-3.1-4.2-10.5-8.1-9.1s1.6,9,4,12l0.3,0.4c-0.2,0-0.4,0-0.6,0l9.6,16.4
	c0,0,1.7,3.1,3.3,4c0,0,11.9,15,12,18c0.1,3,5.3,11,5.3,11s1.7,13-1.3,15.3l0,0l0,0l0,0l0,0h0.1l0,0l0,0h0.1l0,0h0.1l0,0
	c-0.1,0.1-0.3,0.3-0.4,0.5c-2.3,2.5-5.1,7.9-1.2,17c5.8,13.4,6.7,18.7,6.7,18.7s-11,0.6-13.2,1c-1.9,0.4-9.4,0.6-11.1,0.7
	c-0.6-0.7-2.4-2.3-4.8,0c-3,2.9-5.2,12.4-5.2,12.4s-1.2,7.7,2.8,5.7c0,0,4.6-6.4,5.9-6.7c0.6-0.1,1.3-1.1,1.9-2l0,0l0,0
	c0,0,0.2-0.1,0.4-0.2l0,0c1-0.4,3.6-1.3,5.7-0.8c1.1,0.3,6.1,0.3,11.2,0.3c-1.2,2.8-3.3,10-3.3,10s-0.9,6.7,2,6.4
	c2.1-0.2,5.2-5.5,6.9-8.5c1.2-0.9,4.6-4,7.2-3.8l17.1-6.6c0,0,4.1-2.3,1.9-9.9c-1.7-6-6.6-18.3-8.6-23.1l0,0l-0.1-0.1
	c-0.5-1.2-0.8-1.9-0.8-1.9l0,0c-0.8-2.2-1.3-4.5-1.6-6.8c0-0.2,0-0.4,0-0.6c0.2-0.1,0.5-0.2,0.7-0.4c0,0-1.6-16.1,0-17.9l0,0l0,0
	l0,0l0,0l0,0l0,0l0,0l0,0l0.1-0.1l0,0l0.1-0.1l0,0c0.1-0.1,0.2-0.3,0.3-0.4l0,0c0.9-1.3,2.6-4.4,2.1-8l0,0c0-0.2,0-0.3-0.1-0.5l0,0
	c-0.2-1-0.5-1.9-1-2.8c-0.1-0.4-0.1-0.7-0.1-1.1c0-0.2,0-0.4,0-0.7l0,0c0-0.1,0-0.1,0-0.2l0,0c0-0.2,0-0.3,0.1-0.5v-0.1
	c0-0.1,0-0.1,0-0.2v-0.1c0-0.1,0-0.1,0-0.2V342c0-0.1,0-0.2,0.1-0.2l0,0c0-0.1,0-0.1,0.1-0.2v-0.1l0.1-0.2v-0.1
	c0-0.1,0.1-0.1,0.1-0.2v-0.1c0-0.1,0.1-0.2,0.1-0.2v-0.1l0.1-0.2l0.1-0.1l0.1-0.1l0.1-0.1c0.1-0.1,0.1-0.1,0.2-0.2
	c1.9-1.7,10.3-14.4,10.3-14.4s2-2.9,2-4.7C-527.3,320.7-523.7,308.7-524.1,305.1z M-546.6,411.9c-0.2-2-0.4-4.4-0.6-6.9l3.3,5.1
	C-544,410.1-544.3,411.6-546.6,411.9z"/>
<path class="st19" d="M-580.9,410.8c0,0-2-3.1-4.9-0.3c-3,2.8-5.1,12.2-5.1,12.2s-1.1,7.6,2.7,5.6c0,0,4.5-6.3,5.8-6.6
	c1.3-0.3,2.7-3.8,2.7-3.8L-580.9,410.8z"/>
<path class="st19" d="M-559.8,418.4c0,0-2.7-1.3-3.5-0.3c-0.8,1-3.7,10.8-3.7,10.8s-0.8,6.5,2,6.2s7.7-10.4,7.7-10.4L-559.8,418.4z"
	/>
<path class="st20" d="M-559.8,418.4c0,0-2.7-1.3-3.5-0.3c-0.8,1-3.7,10.8-3.7,10.8s-0.8,6.5,2,6.2s7.7-10.4,7.7-10.4L-559.8,418.4z"
	/>
<path class="st21" d="M-550.5,399.3l6,9.4c0,0-0.4,2.1-4.1,1.7l-12.5,7.9c0,0-1.1,9.6,2.4,8.7c0.6-0.1,4.5-4.2,7.3-3.9l16.6-6.5
	c0,0,3.9-2.2,1.8-9.7c-2.1-7.4-9.1-24.7-9.1-24.7l-11,6.2L-550.5,399.3z"/>
<path class="st20" d="M-550.5,399.3l6,9.4c0,0-0.4,2.1-4.1,1.7l-12.5,7.9c0,0-1.1,9.6,2.4,8.7c0.6-0.1,4.5-4.2,7.3-3.9l16.6-6.5
	c0,0,3.9-2.2,1.8-9.7c-2.1-7.4-9.1-24.7-9.1-24.7l-11,6.2L-550.5,399.3z"/>
<path class="st21" d="M-546.7,413.2c0.8,5.3-3.9,5.8-3.9,5.8s-21.5,0.4-24-0.1c-2.5-0.6-5.9,1-5.9,1c-4.4-2.7-0.8-9.3-0.8-9.3
	s9-0.3,11.1-0.7c2.1-0.4,12.8-1,12.8-1s-0.8-5.2-6.5-18.4c-3.8-9-1-14.2,1.2-16.7c0.6-0.7,1.2-1.2,1.9-1.7l17.3,0.8
	c0,0.9,0,1.7,0.1,2.6c0.3,3,1.1,5.9,2.3,8.6c-1,0-7.3,5.9-7.3,5.9S-547.6,407.8-546.7,413.2z"/>
<path class="st4" d="M-580.2,411.1c0,0,9-0.3,11.1-0.7c2.1-0.4,12.8-1,12.8-1s-0.8-5.2-6.5-18.4c-3.8-9-1-14.2,1.2-16.7
	c0.6-0.7,1.2-1.2,1.9-1.7l16,0.8c0-0.2,0-0.3,0-0.5l-17.3-0.8c-0.7,0.5-1.4,1-1.9,1.7c-2.2,2.5-5,7.7-1.2,16.7
	c5.6,13.2,6.5,18.4,6.5,18.4s-10.7,0.6-12.8,1c-2.1,0.4-11.1,0.7-11.1,0.7s-3.5,6.6,0.8,9.3c0,0,0.1-0.1,0.3-0.2
	C-583.1,416.6-580.2,411.1-580.2,411.1z"/>
<rect x="-563.2" y="320.5" class="st19" width="8.7" height="22"/>
<rect x="-563.2" y="320.5" class="st4" width="8.7" height="22"/>
<path class="st19" d="M-549.5,317.3c0.3,0.1,0.6,0.1,0.8,0.5c0.1,0.3,0.2,0.7,0.2,1l0.5,6.8c0,0.4,0.1,0.9,0.3,1.3
	c0.2,0.5,0.6,0.5,0.9,0.8c0.6,0.6,0.8,2.1,0.6,3.3c-0.2,1.2-0.6,2.3-0.9,3.4c-0.5,1.6-0.8,3.4-1.4,4.7c-0.7,1.3-1.9,2.1-2.6,0.9
	c-0.8-1.1-0.7-3.4-0.8-5.2c-0.2-3.1-1.5-5.8-1.5-8.9c-0.1-2.5,0.6-4.9,1-7.3c0.3-1.6,0.3-3.6,0.8-5.1
	C-551.3,315.3-550.6,317-549.5,317.3z"/>
<path class="st4" d="M-549.5,317.3c0.3,0.1,0.6,0.1,0.8,0.5c0.1,0.3,0.2,0.7,0.2,1l0.5,6.8c0,0.4,0.1,0.9,0.3,1.3
	c0.2,0.5,0.6,0.5,0.9,0.8c0.6,0.6,0.8,2.1,0.6,3.3c-0.2,1.2-0.6,2.3-0.9,3.4c-0.5,1.6-0.8,3.4-1.4,4.7c-0.7,1.3-1.9,2.1-2.6,0.9
	c-0.8-1.1-0.7-3.4-0.8-5.2c-0.2-3.1-1.5-5.8-1.5-8.9c-0.1-2.5,0.6-4.9,1-7.3c0.3-1.6,0.3-3.6,0.8-5.1
	C-551.3,315.3-550.6,317-549.5,317.3z"/>
<path class="st22" d="M-586.3,307.6l-3.4,2.8c0,0-0.4-0.5-1-1.2c-2.3-3-7.7-10.5-3.9-11.8c3.8-1.3,6.8,6,7.9,9
	C-586.5,307.1-586.3,307.6-586.3,307.6z"/>
<path class="st22" d="M-525.5,306.6c-1.4,2.1-3.4,0-3.4,0s-0.3-0.4-0.6-1c-1.2-2-3.4-6.3-1.9-8c1.7-2,6,4.7,6.1,7.9
	C-525.3,305.9-525.4,306.3-525.5,306.6z"/>
<path class="st22" d="M-560.1,329.4c0,0,2.8,9,2,11.6c-0.8,2.7,6,5.8,6,5.8h7.9c0,0,2.8-5.8,2.1-7.4c-0.7-1.7-6.7-2.9-6.7-2.9
	s-3.5,0-3.4-9.4L-560.1,329.4z"/>
<path class="st4" d="M-586.3,307.6l-3.4,2.8c0,0-0.4-0.5-1-1.2c1.2-0.2,3.1-2,4-2.8C-586.5,307.1-586.3,307.6-586.3,307.6z"/>
<path class="st4" d="M-525.5,306.6c-1.4,2.1-3.4,0-3.4,0s-0.3-0.4-0.6-1v-0.1c0.9,0.7,3.7,0.1,4.2,0
	C-525.3,305.9-525.4,306.3-525.5,306.6z"/>
<path class="st4" d="M-543.6,375.5c-4.3,2-18.5-1.5-19.3-1.8c0.6-0.7,1.2-1.2,1.9-1.7l17.3,0.8
	C-543.7,373.7-543.7,374.6-543.6,375.5z"/>
<path class="st23" d="M-558.3,337.1c0,0-3.4,1.1-8.1-3.2c0,0-10.7-10.5-11.4-13.1l-8.3-14.5c0,0-3.5,3.8-4.9,3.2l9.3,16.1
	c0,0,1.7,3.1,3.2,3.9c0,0,11.5,14.7,11.6,17.7c0.1,2.9,5.2,10.8,5.2,10.8s1.7,12.8-1.3,15c0,0,16.4,4.2,19.9,1.4
	c0,0-1.5-15.9,0-17.5c0,0,4.8-5.6,1.5-11.8c0,0-0.7-3.4,1.1-5.1s10-14.2,10-14.2s2-2.8,2-4.6c0,0,3.7-12.4,3.1-15.6
	c0,0-3.2,0.7-4.2,0c0,0-4.8,14.5-5.3,15c-0.6,0.5-4.5,11.9-9.7,13.2c-5.2,1.3-6,1.8-6,1.8s10.1,6.3,5.2,9.1
	C-550.3,347.5-558.3,337.1-558.3,337.1z"/>
<path class="st4" d="M-551.9,331.5c-0.2-1.3-0.2-2.7-0.2-4l-7.9,2.4c0.2,0.5,0.4,1.1,0.5,1.6c0.9,0.4,2.1,1.3,3.2,1.3
	C-554.7,332.9-553.2,332.4-551.9,331.5z"/>
<circle class="st22" cx="-556.4" cy="325.1" r="7.3"/>
<path class="st4" d="M-565.1,313.9c-1.6,0.1-3.4,1.2-3.3,2.8c0,0.9,0.7,1.6,0.9,2.5c0.6,2.1-0.8,4.1-2,5.9s-2.4,4.1-1.3,5.9
	c0.3,0.4,0.6,0.9,1,1.3c1.3,1.8,1.3,4.2,1.9,6.3c1.6,5.7,7.3,9.2,13,7.9c-1-1.3-1.6-3-1.5-4.7c0.1-1.2,0.5-2.5,0-3.6
	c-0.6-1.5-2.4-2-3.3-3.3s-0.9-3-0.4-4.6c0.4-1.5,1.2-2.9,1.6-4.5c0.1-0.5,0.2-0.9,0.3-1.3c0.6-1.8,2.6-2.9,4.5-3.4s3.9-0.5,5.7-1.1
	s3.7-2,3.9-4c-1.6,0.6-3-1-4.5-1.8c-2.5-1.2-5.3-0.1-7.8,0.2C-559.4,314.9-562.2,313.7-565.1,313.9z"/>
<path class="st19" d="M-565.3,313.6c-1.6,0.1-3.4,1.2-3.3,2.8c0,0.9,0.7,1.6,0.9,2.5c0.6,2.1-0.8,4.1-2,5.9s-2.4,4.1-1.3,5.9
	c0.3,0.4,0.6,0.9,1,1.3c1.3,1.8,1.3,4.2,1.9,6.3c1.6,5.7,7.3,9.2,13,7.9c-1-1.3-1.6-3-1.5-4.7c0.1-1.2,0.5-2.5,0-3.6
	c-0.6-1.5-2.4-2-3.3-3.3c-0.9-1.3-0.9-3-0.4-4.6c0.4-1.5,1.2-2.9,1.6-4.5c0.1-0.5,0.2-0.9,0.3-1.3c0.6-1.8,2.6-2.9,4.5-3.4
	c1.9-0.5,3.9-0.5,5.7-1.1s3.7-2,3.9-4c-1.6,0.6-3-1-4.5-1.8c-2.5-1.2-5.3-0.1-7.8,0.2C-559.6,314.6-562.3,313.4-565.3,313.6z"/>
<path class="st4" d="M-549.2,341.4c0,0,2.9,2.6,3.5,3.8"/>
<path class="st4" d="M-542.9,356.9c0,0-3.7,0-5.3,0.4c-1.7,0.4-5.8,0-5.8,0"/>
<g class="st6">
	<path d="M-545.3,344.9c-0.3,0.2-0.7,0.3-1,0.4c0.9,0.2,1.9,0.1,2.7-0.4c4.9-2.8-5.2-9.1-5.2-9.1h-1.7
		C-550.5,335.8-540.4,342.1-545.3,344.9z"/>
	<path d="M-525.2,306c0-0.1,0-0.2,0-0.3c-0.6,0.1-1.2,0.2-1.7,0.3C-526.4,306.1-525.8,306.1-525.2,306z"/>
	<path d="M-561.2,373.2c2.9-2.2,1.3-15,1.3-15s-5.1-7.9-5.2-10.8c-0.1-2.9-11.6-17.7-11.6-17.7c-1.5-0.8-3.2-3.9-3.2-3.9
		s-9.5-15.6-11-16.1l9.3,16.1c0,0,1.7,3.1,3.2,3.9c0,0,11.5,14.7,11.6,17.7c0.1,2.9,5.2,10.8,5.2,10.8s1.7,12.8-1.3,15
		c0,0,10.1,2.6,16.1,2.4C-552.8,375.3-561.2,373.2-561.2,373.2z"/>
	<path d="M-558.2,337.2l-0.1-0.1c-0.1,0-0.2,0.1-0.3,0.1C-558.4,337.2-558.3,337.2-558.2,337.2z"/>
</g>
<g class="st6">
	<path d="M-525.3,305.8L-525.3,305.8c-0.2,4.3-3.2,14.5-3.2,14.5c0,1.8-2,4.6-2,4.6s-8.1,12.5-10,14.2c-1.8,1.7-1.1,5.1-1.1,5.1l0,0
		c-0.1-1.1,0.1-2.9,1.2-4c1.8-1.7,10-14.2,10-14.2s2-2.8,2-4.6C-528.4,321.4-524.7,309-525.3,305.8z"/>
	<path d="M-543.1,355.9c0.2,1.2,0.1-0.1,0.1,1.1c0,0,3.4-4,2.5-9C-540.2,352.4-543.1,355.9-543.1,355.9z"/>
</g>
<ellipse class="st1" cx="-631" cy="492" rx="101.5" ry="14.2"/>
<path class="st24" d="M-678,486c0,0-5-17,0.9-29.6c2.5-5.2,3.3-11.2,2.2-16.9c-0.6-2.7-1.4-5.4-2.4-7.9"/>
<path class="st0" d="M-673.5,423.7c0,2.1-3.8,8.1-3.8,8.1s-3.8-6.1-3.8-8.1c-0.2-2.1,1.4-3.9,3.5-4.1c2.1-0.2,3.9,1.4,4.1,3.5
	C-673.5,423.3-673.5,423.5-673.5,423.7L-673.5,423.7z"/>
<path class="st0" d="M-667.3,435.2c-1.1,1.8-7.6,4.8-7.6,4.8s0.1-7.1,1.3-8.9c1-1.8,3.3-2.5,5.2-1.5c1.8,1,2.5,3.3,1.5,5.2
	C-667.1,434.9-667.2,435.1-667.3,435.2L-667.3,435.2z"/>
<path class="st0" d="M-667.5,455c-1.9,0.9-9,0.3-9,0.3s3.7-6.1,5.6-7c1.8-1.1,4.1-0.5,5.2,1.3s0.5,4.1-1.3,5.2
	C-667.2,454.8-667.4,454.9-667.5,455L-667.5,455z"/>
<path class="st0" d="M-671.1,469.9c-1.7,1.2-8.8,1.8-8.8,1.8s2.6-6.6,4.3-7.9c1.8-1.1,4.1-0.5,5.2,1.3
	C-669.5,466.7-669.8,468.7-671.1,469.9L-671.1,469.9z"/>
<path class="st0" d="M-682.8,440.4c1.5,1.5,8.5,3,8.5,3s-1.7-6.9-3.2-8.4c-1.4-1.6-3.8-1.7-5.4-0.3c-1.6,1.4-1.7,3.8-0.3,5.4
	C-683.1,440.2-683,440.3-682.8,440.4z"/>
<path class="st0" d="M-686.8,457.9c1.9,0.9,9,0.3,9,0.3s-3.7-6.1-5.6-7c-1.9-0.8-4.2,0.1-5,2C-689,454.9-688.4,456.9-686.8,457.9
	L-686.8,457.9z"/>
<path class="st0" d="M-688.3,475.4c1.7,1.2,8.8,1.8,8.8,1.8s-2.6-6.6-4.3-7.9c-1.6-1.4-4-1.2-5.4,0.3c-1.4,1.6-1.2,4,0.3,5.4
	C-688.6,475.2-688.5,475.3-688.3,475.4L-688.3,475.4z"/>
<path class="st1" d="M-673.5,423.7c0,2.1-3.8,8.1-3.8,8.1s-3.8-6.1-3.8-8.1c-0.2-2.1,1.4-3.9,3.5-4.1c2.1-0.2,3.9,1.4,4.1,3.5
	C-673.5,423.3-673.5,423.5-673.5,423.7L-673.5,423.7z"/>
<path class="st1" d="M-667.3,435.2c-1.1,1.8-7.6,4.8-7.6,4.8s0.1-7.1,1.3-8.9c1-1.8,3.3-2.5,5.2-1.5c1.8,1,2.5,3.3,1.5,5.2
	C-667.1,434.9-667.2,435.1-667.3,435.2L-667.3,435.2z"/>
<path class="st1" d="M-667.5,455c-1.9,0.9-9,0.3-9,0.3s3.7-6.1,5.6-7c1.8-1.1,4.1-0.5,5.2,1.3s0.5,4.1-1.3,5.2
	C-667.2,454.8-667.4,454.9-667.5,455L-667.5,455z"/>
<path class="st1" d="M-671.1,469.9c-1.7,1.2-8.8,1.8-8.8,1.8s2.6-6.6,4.3-7.9c1.8-1.1,4.1-0.5,5.2,1.3
	C-669.5,466.7-669.8,468.7-671.1,469.9L-671.1,469.9z"/>
<path class="st1" d="M-682.8,440.4c1.5,1.5,8.5,3,8.5,3s-1.7-6.9-3.2-8.4c-1.4-1.6-3.8-1.7-5.4-0.3c-1.6,1.4-1.7,3.8-0.3,5.4
	C-683.1,440.2-683,440.3-682.8,440.4z"/>
<path class="st1" d="M-686.8,457.9c1.9,0.9,9,0.3,9,0.3s-3.7-6.1-5.6-7c-1.9-0.8-4.2,0.1-5,2C-689,454.9-688.4,456.9-686.8,457.9
	L-686.8,457.9z"/>
<path class="st1" d="M-688.3,475.4c1.7,1.2,8.8,1.8,8.8,1.8s-2.6-6.6-4.3-7.9c-1.6-1.4-4-1.2-5.4,0.3c-1.4,1.6-1.2,4,0.3,5.4
	C-688.6,475.2-688.5,475.3-688.3,475.4L-688.3,475.4z"/>
<path class="st24" d="M-591.6,503.6c0,0-5-17,0.9-29.6c2.5-5.2,3.3-11.2,2.2-16.9c-0.6-2.7-1.4-5.4-2.4-7.9"/>
<path class="st0" d="M-587.2,441.3c0,2.1-3.8,8.1-3.8,8.1s-3.8-6.1-3.8-8.1c0.2-2.1,2-3.7,4.1-3.5
	C-588.8,437.9-587.3,439.4-587.2,441.3L-587.2,441.3z"/>
<path class="st0" d="M-580.9,452.9c-1.1,1.8-7.6,4.8-7.6,4.8s0.1-7.1,1.3-8.9c1-1.8,3.3-2.5,5.2-1.5c1.8,1,2.5,3.3,1.5,5.2
	C-580.7,452.6-580.8,452.7-580.9,452.9z"/>
<path class="st0" d="M-581.2,472.6c-1.9,0.9-9,0.3-9,0.3s3.7-6.1,5.6-7c1.8-1.1,4.1-0.5,5.2,1.3c1.1,1.8,0.5,4.1-1.3,5.2
	C-580.8,472.5-581,472.6-581.2,472.6z"/>
<path class="st0" d="M-584.8,487.5c-1.7,1.2-8.8,1.8-8.8,1.8s2.6-6.6,4.3-7.9c1.8-1.1,4.1-0.5,5.2,1.3
	C-583.1,484.3-583.4,486.3-584.8,487.5L-584.8,487.5z"/>
<path class="st0" d="M-596.5,458c1.5,1.5,8.5,3,8.5,3s-1.7-6.9-3.2-8.4c-1.4-1.6-3.8-1.7-5.4-0.3c-1.6,1.4-1.7,3.8-0.3,5.4
	C-596.7,457.8-596.6,457.9-596.5,458L-596.5,458z"/>
<path class="st0" d="M-600.4,475.5c1.9,0.9,9,0.3,9,0.3s-3.7-6.1-5.6-7c-1.9-0.8-4.2,0.1-5,2C-602.7,472.6-602,474.6-600.4,475.5
	L-600.4,475.5z"/>
<path class="st0" d="M-601.9,493.1c1.7,1.2,8.8,1.8,8.8,1.8s-2.6-6.6-4.3-7.9c-1.8-1.1-4.1-0.5-5.2,1.3
	C-603.6,489.8-603.3,491.9-601.9,493.1L-601.9,493.1z"/>
<path class="st1" d="M-587.2,441.3c0,2.1-3.8,8.1-3.8,8.1s-3.8-6.1-3.8-8.1c0.2-2.1,2-3.7,4.1-3.5
	C-588.8,437.9-587.3,439.4-587.2,441.3L-587.2,441.3z"/>
<path class="st1" d="M-580.9,452.9c-1.1,1.8-7.6,4.8-7.6,4.8s0.1-7.1,1.3-8.9c1-1.8,3.3-2.5,5.2-1.5c1.8,1,2.5,3.3,1.5,5.2
	C-580.7,452.6-580.8,452.7-580.9,452.9z"/>
<path class="st1" d="M-581.2,472.6c-1.9,0.9-9,0.3-9,0.3s3.7-6.1,5.6-7c1.8-1.1,4.1-0.5,5.2,1.3c1.1,1.8,0.5,4.1-1.3,5.2
	C-580.8,472.5-581,472.6-581.2,472.6z"/>
<path class="st1" d="M-584.8,487.5c-1.7,1.2-8.8,1.8-8.8,1.8s2.6-6.6,4.3-7.9c1.8-1.1,4.1-0.5,5.2,1.3
	C-583.1,484.3-583.4,486.3-584.8,487.5L-584.8,487.5z"/>
<path class="st1" d="M-596.5,458c1.5,1.5,8.5,3,8.5,3s-1.7-6.9-3.2-8.4c-1.4-1.6-3.8-1.7-5.4-0.3c-1.6,1.4-1.7,3.8-0.3,5.4
	C-596.7,457.8-596.6,457.9-596.5,458L-596.5,458z"/>
<path class="st1" d="M-600.4,475.5c1.9,0.9,9,0.3,9,0.3s-3.7-6.1-5.6-7c-1.9-0.8-4.2,0.1-5,2C-602.7,472.6-602,474.6-600.4,475.5
	L-600.4,475.5z"/>
<path class="st1" d="M-601.9,493.1c1.7,1.2,8.8,1.8,8.8,1.8s-2.6-6.6-4.3-7.9c-1.8-1.1-4.1-0.5-5.2,1.3
	C-603.6,489.8-603.3,491.9-601.9,493.1L-601.9,493.1z"/>
<path class="st25" d="M-549.8,292.3h-2.2c0.8,0,1.5-0.6,1.6-1.4c0-0.8-0.6-1.5-1.4-1.6h-0.1h-17.7c-0.8,0-1.5,0.8-1.4,1.6
	c0,0.8,0.7,1.4,1.4,1.4h2.2c-0.8,0-1.5,0.8-1.4,1.6c0,0.8,0.7,1.4,1.4,1.4h-3c-0.8,0-1.5,0.6-1.6,1.4c0,0.8,0.6,1.5,1.4,1.6h0.1
	h17.5c0.8,0,1.5-0.6,1.6-1.4c0-0.8-0.6-1.5-1.4-1.6h-0.1h3c0.8,0,1.5-0.8,1.4-1.6C-548.4,292.9-549.1,292.3-549.8,292.3z"/>
<path class="st25" d="M-651.3,301.1h-1.6c0.6,0,1.2-0.5,1.2-1.1s-0.5-1.2-1.1-1.2h-0.1h-13.3c-0.6,0-1.1,0.6-1.1,1.2
	s0.5,1.1,1.1,1.1h1.6c-0.6,0-1.2,0.5-1.2,1.1s0.5,1.2,1.1,1.2h0.1h-2.3c-0.6,0-1.2,0.5-1.2,1.1s0.5,1.2,1.1,1.2h0.1h13.3
	c0.6,0,1.2-0.5,1.2-1.1s-0.5-1.2-1.1-1.2h-0.1h2.3c0.6,0,1.1-0.6,1.1-1.2S-650.7,301.1-651.3,301.1z"/>
<path class="st26" d="M-717.5,434.3c0,0,4.1,11.8,0.8,18.3c-3.4,6.5,0.3,24.1,0.3,24.1"/>
<path class="st0" d="M-716.3,430.6c0,2.3-1.2,4.1-1.2,4.1s-1.2-1.9-1.2-4.1c0-2.3,1.2-4.1,1.2-4.1S-716.3,428.3-716.3,430.6z"/>
<path class="st26" d="M-715.3,434.3c0,0-4.1,11.8-0.8,18.3c3.4,6.5-0.3,24.1-0.3,24.1"/>
<path class="st0" d="M-716.6,430.6c0,2.3,1.2,4.1,1.2,4.1s1.2-1.9,1.2-4.1c0-2.3-1.2-4.1-1.2-4.1S-716.6,428.3-716.6,430.6z"/>
<path class="st4" d="M-716.6,430.6c0,2.3,1.2,4.1,1.2,4.1s1.2-1.9,1.2-4.1c0-2.3-1.2-4.1-1.2-4.1S-716.6,428.3-716.6,430.6z"/>
<path class="st26" d="M-713.7,434.3c0,0,4.1,11.8,0.8,18.3c-3.4,6.5,0.3,24.1,0.3,24.1"/>
<path class="st0" d="M-712.4,430.6c0,2.3-1.2,4.1-1.2,4.1s-1.2-1.9-1.2-4.1c0-2.3,1.2-4.1,1.2-4.1S-712.4,428.3-712.4,430.6z"/>
<path class="st0" d="M-713,440.1c-1.1,1.6-2.8,1.8-2.8,1.8s0.1-2.5,1.2-4.1s2.8-1.8,2.8-1.8S-712,438.5-713,440.1z"/>
<path class="st0" d="M-713,448.3c-1.1,1.6-2.8,1.8-2.8,1.8s0.1-2.5,1.2-4.1c1.1-1.6,2.8-1.8,2.8-1.8S-711.9,446.6-713,448.3z"/>
<path class="st0" d="M-718.9,452.8c1,1.7,1,4.2,1,4.2s-1.7-0.3-2.8-2s-1-4.2-1-4.2S-719.9,451-718.9,452.8z"/>
<path class="st0" d="M-717.9,435.4c1.3,1.3,1.7,3.7,1.7,3.7s-1.7,0.4-3-0.9s-1.7-3.7-1.7-3.7S-719.2,434.1-717.9,435.4z"/>
<path class="st4" d="M-717.9,435.4c1.3,1.3,1.7,3.7,1.7,3.7s-1.7,0.4-3-0.9s-1.7-3.7-1.7-3.7S-719.2,434.1-717.9,435.4z"/>
<path class="st26" d="M-711.5,434.3c0,0-4.1,11.8-0.8,18.3c3.4,6.5-0.3,24.1-0.3,24.1"/>
<path class="st0" d="M-712.7,430.6c0,2.3,1.2,4.1,1.2,4.1s1.2-1.9,1.2-4.1c0-2.3-1.2-4.1-1.2-4.1S-712.7,428.3-712.7,430.6z"/>
<path class="st4" d="M-712.7,430.6c0,2.3,1.2,4.1,1.2,4.1s1.2-1.9,1.2-4.1c0-2.3-1.2-4.1-1.2-4.1S-712.7,428.3-712.7,430.6z"/>
<path class="st0" d="M-712.4,440.3c-1.1,1.6-1.2,4.1-1.2,4.1s1.7-0.1,2.8-1.8c1.1-1.7,1.2-4.1,1.2-4.1S-711.3,438.6-712.4,440.3z"/>
<path class="st4" d="M-712.4,440.3c-1.1,1.6-1.2,4.1-1.2,4.1s1.7-0.1,2.8-1.8c1.1-1.7,1.2-4.1,1.2-4.1S-711.3,438.6-712.4,440.3z"/>
<path class="st0" d="M-710.2,451.6c-1.1,1.6-1.2,4.1-1.2,4.1s1.7-0.1,2.8-1.8c1.1-1.7,1.2-4.1,1.2-4.1S-709.1,450-710.2,451.6z"/>
<path class="st26" d="M-713.4,449.1c0,0,2.5-5.7,6-5.9"/>
<path class="st26" d="M-715.4,445.6c0,0-2.5-5.7-6-5.9"/>
<path class="st26" d="M-715.7,453.8c0,0,2.5-5.7,6-5.9"/>
<ellipse class="st0" cx="-707.5" cy="443.2" rx="0.6" ry="0.9"/>
<ellipse class="st0" cx="-721.3" cy="439.8" rx="0.6" ry="0.9"/>
<path class="st26" d="M-713.9,455.7c0,0-2.5-5.7-6-5.9"/>
<ellipse class="st0" cx="-719.8" cy="449.9" rx="0.6" ry="0.9"/>
<ellipse class="st0" cx="-709.7" cy="448" rx="0.6" ry="0.9"/>
<path class="st27" d="M-700,469.9c0,0-6-1.8-7.6-4.1c-1.6-2.3-8.8-6.4-9.6-3.5c-0.8,2.9-10.8,12.8-4,14.6c6.8,1.8,16,2.3,18,1.2
	C-701.3,476.9-700,469.9-700,469.9z"/>
<path class="st28" d="M-721.3,475.8c6.8,1.8,16,2.3,18,1.2c1.5-0.9,2.6-5.2,3-7.1l0.2,0.1c0,0-1.2,7-3.2,8.2s-11.2,0.6-18-1.2
	c-2-0.5-2.5-1.7-2.3-3.2C-723.4,474.6-722.8,475.4-721.3,475.8z"/>
<path class="st0" d="M-560.6,451.4c0,0,2.9,3.8-1.3,9.5c-4.2,5.7-7.7,10.5-6.3,14.1c0,0,6.4-10.6,11.6-10.7
	C-551.5,464.1-554.9,457.8-560.6,451.4z"/>
<path class="st4" d="M-560.6,451.4c0.3,0.4,0.5,0.8,0.6,1.2c5.1,5.9,7.8,11.5,2.9,11.6c-4.5,0.1-10,8.2-11.3,10.3
	c0,0.2,0.1,0.3,0.2,0.5c0,0,6.4-10.6,11.6-10.7C-551.5,464.1-554.9,457.8-560.6,451.4z"/>
<path class="st29" d="M-555.2,456.2c0,1.3-0.1,2.4-0.3,2.4s-0.3-1.1-0.3-2.4s0.2-0.7,0.4-0.7C-555.2,455.5-555.2,454.9-555.2,456.2z
	"/>
<path class="st29" d="M-553.4,457.8c-1.2,0.6-2.2,1-2.3,0.9c-0.1-0.2,0.8-0.8,2-1.4s0.7-0.2,0.8,0
	C-552.8,457.5-552.2,457.2-553.4,457.8z"/>
<path class="st0" d="M-575.9,451.4c0,0-2.9,3.8,1.3,9.5c4.2,5.7,7.7,10.5,6.3,14.1c0,0-6.4-10.6-11.6-10.7
	C-585,464.1-581.6,457.8-575.9,451.4z"/>
<path class="st4" d="M-575.9,451.4c-0.3,0.4-0.5,0.8-0.6,1.2c-5.1,5.9-7.8,11.5-2.9,11.6c4.5,0.1,10,8.2,11.3,10.3
	c0,0.2-0.1,0.3-0.2,0.5c0,0-6.4-10.6-11.6-10.7C-585,464.1-581.6,457.8-575.9,451.4z"/>
<path class="st29" d="M-581.2,456.2c0,1.3,0.1,2.4,0.3,2.4c0.2,0,0.3-1.1,0.3-2.4s-0.2-0.7-0.4-0.7S-581.2,454.9-581.2,456.2z"/>
<path class="st29" d="M-583.1,457.8c1.2,0.6,2.2,1,2.3,0.9c0.1-0.2-0.8-0.8-2-1.4s-0.7-0.2-0.8,0
	C-583.7,457.4-584.3,457.2-583.1,457.8z"/>
<path class="st27" d="M-580.3,474.5c0,0,8.1-0.2,10.5-2c2.4-1.8,12.4-3.8,13-1c0.6,2.8,12.1,13.8,3,13.9c-9.1,0.1-21.2-1.4-23.6-2.9
	C-579.8,481-580.3,474.5-580.3,474.5z"/>
<path class="st28" d="M-553.6,484.4c-9.1,0.1-21.2-1.4-23.6-2.9c-1.9-1.1-2.6-5.2-2.8-7h-0.3c0,0,0.5,6.5,2.9,8
	c2.4,1.5,14.5,3,23.6,2.9c2.6,0,3.5-1,3.5-2.3C-550.6,483.8-551.6,484.4-553.6,484.4z"/>
<path class="st25" d="M-719.4,312.7h-2.2c0.8,0,1.5-0.6,1.6-1.4c0.1-0.8-0.6-1.5-1.4-1.6h-0.1H-739c-0.8,0-1.5,0.8-1.4,1.6
	c0,0.8,0.7,1.4,1.4,1.4h2.2c-0.8,0-1.5,0.8-1.4,1.6c0,0.8,0.7,1.4,1.4,1.4h-3c-0.8,0-1.5,0.8-1.4,1.6c0,0.8,0.7,1.4,1.4,1.4h17.5
	c0.8,0,1.5-0.6,1.6-1.4c0-0.8-0.6-1.5-1.4-1.6h-0.1h3c0.8,0,1.5-0.8,1.4-1.6C-718,313.4-718.7,312.8-719.4,312.7z"/>
</svg>
